<svg width="64" height="64" viewBox="0 0 64 64" fill="none" xmlns="http://www.w3.org/2000/svg">
<g clip-path="url(#clip0_148_1094)">
<path d="M51.3871 19.0508L55.2191 15.2188L51.4484 11.4468L47.3491 15.5462C43.6042 12.8923 39.2342 11.2567 34.6671 10.7995V5.33284H40.0004V-0.000488281H24.0004V5.33284H29.3338V10.7995C24.7667 11.2567 20.3966 12.8923 16.6518 15.5462L12.5524 11.4468L8.78176 15.2188L12.6138 19.0508C9.03682 22.838 6.64746 27.59 5.74077 32.7198C4.83408 37.8497 5.44977 43.1328 7.51179 47.9166C9.5738 52.7005 12.9919 56.7757 17.3438 59.6389C21.6958 62.502 26.7911 64.0278 32.0004 64.0278C37.2098 64.0278 42.3051 62.502 46.657 59.6389C51.009 56.7757 54.4271 52.7005 56.4891 47.9166C58.5511 43.1328 59.1668 37.8497 58.2601 32.7198C57.3534 27.59 54.964 22.838 51.3871 19.0508ZM32.0004 58.6662C27.7811 58.6662 23.6565 57.415 20.1483 55.0709C16.64 52.7267 13.9057 49.3949 12.291 45.4968C10.6763 41.5986 10.2539 37.3092 11.077 33.1709C11.9002 29.0327 13.932 25.2314 16.9155 22.2479C19.899 19.2644 23.7002 17.2326 27.8385 16.4094C31.9768 15.5863 36.2662 16.0087 40.1643 17.6234C44.0625 19.2381 47.3943 21.9724 49.7385 25.4807C52.0826 28.9889 53.3338 33.1135 53.3338 37.3328C53.3274 42.9888 51.0778 48.4114 47.0784 52.4108C43.079 56.4102 37.6564 58.6598 32.0004 58.6662Z" fill="white"/>
<path d="M32.0002 21.3328V37.3328H16.0002C16.0002 40.4973 16.9386 43.5907 18.6967 46.2219C20.4548 48.8531 22.9537 50.9038 25.8773 52.1148C28.8009 53.3258 32.018 53.6427 35.1217 53.0253C38.2254 52.408 41.0763 50.8841 43.314 48.6465C45.5516 46.4088 47.0754 43.5579 47.6928 40.4542C48.3102 37.3505 47.9933 34.1334 46.7823 31.2098C45.5713 28.2862 43.5206 25.7874 40.8894 24.0293C38.2582 22.2711 35.1647 21.3328 32.0002 21.3328Z" fill="white"/>
</g>
<defs>
<clipPath id="clip0_148_1094">
<rect width="64" height="64" fill="white"/>
</clipPath>
</defs>
</svg>
