<svg width="64" height="64" viewBox="0 0 64 64" fill="none" xmlns="http://www.w3.org/2000/svg">
<path d="M50.826 21.1649C50.5903 21.1255 50.3765 21.003 50.2233 20.8195C50.0701 20.6361 49.9877 20.4039 49.991 20.1649C49.991 20.1479 49.997 20.0459 49.998 20.0269C50.0023 18.7722 49.7114 17.5341 49.1488 16.4126C48.5863 15.2911 47.7678 14.3176 46.7596 13.5708C45.7514 12.8241 44.5816 12.3249 43.3448 12.1137C42.108 11.9024 40.8389 11.9851 39.64 12.3549C39.4181 12.4234 39.1793 12.4126 38.9645 12.3243C38.7498 12.236 38.5724 12.0757 38.463 11.8709C37.0313 9.14122 34.6745 7.01045 31.8148 5.86024C28.9551 4.71004 25.7793 4.61555 22.8563 5.5937C19.9332 6.57185 17.4539 8.55874 15.8625 11.1985C14.271 13.8382 13.6714 16.9583 14.171 19.9999C14.1912 20.1299 14.1855 20.2627 14.1542 20.3905C14.123 20.5183 14.0669 20.6388 13.989 20.7448C13.9112 20.8509 13.8131 20.9406 13.7006 21.0088C13.588 21.0769 13.4631 21.1221 13.333 21.1419C10.5929 21.5604 8.11208 22.9986 6.38741 25.1686C4.66274 27.3385 3.82155 30.0799 4.03234 32.8438C4.24312 35.6076 5.4903 38.1898 7.5241 40.0731C9.55789 41.9564 12.2281 43.0018 15 42.9999H21V38.8159C20.3328 38.58 19.7704 38.1158 19.4123 37.5054C19.0543 36.895 18.9235 36.1777 19.0432 35.4802C19.1628 34.7827 19.5252 34.1499 20.0663 33.6938C20.6074 33.2376 21.2923 32.9875 22 32.9875C22.7077 32.9875 23.3926 33.2376 23.9336 33.6938C24.4747 34.1499 24.8371 34.7827 24.9568 35.4802C25.0764 36.1777 24.9457 36.895 24.5876 37.5054C24.2295 38.1158 23.6672 38.58 23 38.8159V42.9999H31V38.8159C30.3328 38.58 29.7704 38.1158 29.4123 37.5054C29.0543 36.895 28.9235 36.1777 29.0432 35.4802C29.1628 34.7827 29.5252 34.1499 30.0663 33.6938C30.6074 33.2376 31.2923 32.9875 32 32.9875C32.7077 32.9875 33.3926 33.2376 33.9336 33.6938C34.4747 34.1499 34.8371 34.7827 34.9568 35.4802C35.0764 36.1777 34.9457 36.895 34.5876 37.5054C34.2295 38.1158 33.6672 38.58 33 38.8159V42.9999H41V38.8159C40.3328 38.58 39.7704 38.1158 39.4123 37.5054C39.0543 36.895 38.9235 36.1777 39.0432 35.4802C39.1628 34.7827 39.5252 34.1499 40.0663 33.6938C40.6074 33.2376 41.2923 32.9875 42 32.9875C42.7077 32.9875 43.3926 33.2376 43.9336 33.6938C44.4747 34.1499 44.8371 34.7827 44.9568 35.4802C45.0764 36.1777 44.9457 36.895 44.5876 37.5054C44.2295 38.1158 43.6672 38.58 43 38.8159V42.9999H49C51.7587 43.0025 54.4175 41.9677 56.4487 40.101C58.4799 38.2343 59.7351 35.6721 59.965 32.923C60.1949 30.1739 59.3827 27.4389 57.6898 25.2607C55.9968 23.0826 53.5468 21.6206 50.826 21.1649Z" fill="white"/>
<path d="M42.0002 37.0001C42.5525 37.0001 43.0002 36.5524 43.0002 36.0001C43.0002 35.4478 42.5525 35.0001 42.0002 35.0001C41.448 35.0001 41.0002 35.4478 41.0002 36.0001C41.0002 36.5524 41.448 37.0001 42.0002 37.0001Z" fill="white"/>
<path d="M32 37C32.5523 37 33 36.5523 33 36C33 35.4477 32.5523 35 32 35C31.4477 35 31 35.4477 31 36C31 36.5523 31.4477 37 32 37Z" fill="white"/>
<path d="M22 37C22.5523 37 23 36.5523 23 36C23 35.4477 22.5523 35 22 35C21.4477 35 21 35.4477 21 36C21 36.5523 21.4477 37 22 37Z" fill="white"/>
<path d="M21 49H11C10.7348 49 10.4804 49.1054 10.2929 49.2929C10.1054 49.4804 10 49.7348 10 50V54.184C9.33279 54.4199 8.77045 54.8841 8.41237 55.4945C8.0543 56.1049 7.92354 56.8222 8.04321 57.5197C8.16288 58.2172 8.52528 58.85 9.06635 59.3061C9.60741 59.7623 10.2923 60.0124 11 60.0124C11.7077 60.0124 12.3926 59.7623 12.9337 59.3061C13.4747 58.85 13.8371 58.2172 13.9568 57.5197C14.0765 56.8222 13.9457 56.1049 13.5876 55.4945C13.2296 54.8841 12.6672 54.4199 12 54.184V51H22C22.2652 51 22.5196 50.8946 22.7071 50.7071C22.8946 50.5196 23 50.2652 23 50V43H21V49ZM11 58C10.8022 58 10.6089 57.9414 10.4444 57.8315C10.28 57.7216 10.1518 57.5654 10.0761 57.3827C10.0004 57.2 9.98063 56.9989 10.0192 56.8049C10.0578 56.6109 10.153 56.4327 10.2929 56.2929C10.4328 56.153 10.6109 56.0578 10.8049 56.0192C10.9989 55.9806 11.2 56.0004 11.3827 56.0761C11.5654 56.1518 11.7216 56.28 11.8315 56.4444C11.9414 56.6089 12 56.8022 12 57C12 57.2652 11.8946 57.5196 11.7071 57.7071C11.5196 57.8946 11.2652 58 11 58Z" fill="white"/>
<path d="M33 54.184V43H31V54.184C30.3328 54.4199 29.7705 54.8841 29.4124 55.4945C29.0543 56.1049 28.9235 56.8222 29.0432 57.5197C29.1629 58.2172 29.5253 58.85 30.0663 59.3061C30.6074 59.7623 31.2923 60.0124 32 60.0124C32.7077 60.0124 33.3926 59.7623 33.9337 59.3061C34.4747 58.85 34.8371 58.2172 34.9568 57.5197C35.0765 56.8222 34.9457 56.1049 34.5876 55.4945C34.2296 54.8841 33.6672 54.4199 33 54.184ZM32 58C31.8022 58 31.6089 57.9414 31.4444 57.8315C31.28 57.7216 31.1518 57.5654 31.0761 57.3827C31.0004 57.2 30.9806 56.9989 31.0192 56.8049C31.0578 56.6109 31.153 56.4327 31.2929 56.2929C31.4328 56.153 31.6109 56.0578 31.8049 56.0192C31.9989 55.9806 32.2 56.0004 32.3827 56.0761C32.5654 56.1518 32.7216 56.28 32.8315 56.4444C32.9414 56.6089 33 56.8022 33 57C33 57.2652 32.8947 57.5196 32.7071 57.7071C32.5196 57.8946 32.2652 58 32 58Z" fill="white"/>
<path d="M54.0003 54.184V50C54.0003 49.7348 53.8949 49.4804 53.7074 49.2929C53.5198 49.1054 53.2655 49 53.0003 49H43.0002V43H41.0002V50C41.0002 50.2652 41.1056 50.5196 41.2931 50.7071C41.4807 50.8946 41.735 51 42.0002 51H52.0003V54.184C51.333 54.4199 50.7707 54.8841 50.4126 55.4945C50.0545 56.1049 49.9238 56.8222 50.0435 57.5197C50.1631 58.2172 50.5255 58.85 51.0666 59.3061C51.6077 59.7623 52.2926 60.0124 53.0003 60.0124C53.7079 60.0124 54.3928 59.7623 54.9339 59.3061C55.475 58.85 55.8374 58.2172 55.9571 57.5197C56.0767 56.8222 55.946 56.1049 55.5879 55.4945C55.2298 54.8841 54.6675 54.4199 54.0003 54.184ZM53.0003 58C52.8025 58 52.6091 57.9414 52.4447 57.8315C52.2802 57.7216 52.1521 57.5654 52.0764 57.3827C52.0007 57.2 51.9809 56.9989 52.0195 56.8049C52.0581 56.6109 52.1533 56.4327 52.2931 56.2929C52.433 56.153 52.6112 56.0578 52.8052 56.0192C52.9991 55.9806 53.2002 56.0004 53.3829 56.0761C53.5657 56.1518 53.7218 56.28 53.8317 56.4444C53.9416 56.6089 54.0003 56.8022 54.0003 57C54.0003 57.2652 53.8949 57.5196 53.7074 57.7071C53.5198 57.8946 53.2655 58 53.0003 58Z" fill="white"/>
</svg>
