<svg width="64" height="64" viewBox="0 0 64 64" fill="none" xmlns="http://www.w3.org/2000/svg">
<path d="M25.1819 21.7961C29.607 21.7961 33.1943 18.2088 33.1943 13.7837C33.1943 9.35853 29.607 5.77124 25.1819 5.77124C20.7567 5.77124 17.1694 9.35853 17.1694 13.7837C17.1694 18.2088 20.7567 21.7961 25.1819 21.7961Z" fill="white"/>
<path fill-rule="evenodd" clip-rule="evenodd" d="M11.4463 16.0728C12.6794 16.0681 13.8943 15.7762 14.9947 15.2201C14.4349 11.4951 15.9886 7.76703 19.0283 5.5422C17.7361 1.66219 13.7265 -0.619098 9.73093 0.252378C5.73536 1.12385 3.03981 4.86766 3.48074 8.93334C3.92168 12.999 7.35688 16.0779 11.4463 16.0728Z" fill="white"/>
<path fill-rule="evenodd" clip-rule="evenodd" d="M35.4836 13.7836C35.4792 14.2645 35.4409 14.7446 35.3692 15.2201C36.4697 15.7762 37.6845 16.0683 38.9176 16.0728C43.0159 16.0853 46.463 13.003 46.9072 8.92883C47.3514 4.85464 44.6493 1.10207 40.6446 0.231091C36.6399 -0.639885 32.6234 1.65154 31.3354 5.5422C33.9424 7.47983 35.4804 10.5354 35.4836 13.7836Z" fill="white"/>
<path fill-rule="evenodd" clip-rule="evenodd" d="M19.4393 22.3317C17.6894 21.149 16.3431 19.4595 15.5807 17.49C14.2784 18.0656 12.8701 18.3627 11.4463 18.3622H9.15708C4.10211 18.3679 0.00563374 22.4642 0 27.5192V37.8209C0 39.0852 1.02496 40.1102 2.2893 40.1102C3.55364 40.1102 4.5786 39.0852 4.5786 37.8209V26.3746C4.5786 25.7425 5.09102 25.23 5.72325 25.23C6.35548 25.23 6.8679 25.7424 6.8679 26.3746V37.821C6.86314 38.6271 6.64343 39.4173 6.23154 40.1103H11.4465V33.2425C11.4528 28.2537 14.6848 23.842 19.4393 22.3317Z" fill="white"/>
<path fill-rule="evenodd" clip-rule="evenodd" d="M38.9175 18.3622C37.4937 18.3627 36.0854 18.0656 34.7831 17.49C34.0189 19.4638 32.6683 21.1559 30.9131 22.3386C33.522 23.1615 35.7465 24.8982 37.1777 27.2296C39.7954 26.6412 42.2174 25.3884 44.2103 23.592C45.0982 22.7499 46.4912 22.755 47.373 23.6033C48.2033 24.4007 49.1423 25.0764 50.1624 25.6098C49.2539 21.3879 45.5254 18.3704 41.2068 18.362H38.9175V18.3622Z" fill="white"/>
<path d="M32.2788 34.9935C33.7291 50.1564 41.3569 56.524 45.7855 58.9725C50.2233 56.5184 57.8591 50.1474 59.2922 34.989C54.544 34.745 49.9205 33.3822 45.7993 31.0115C41.6695 33.3867 37.0366 34.7512 32.2788 34.9935ZM52.216 38.0623C52.7124 38.4503 52.8019 39.1665 52.4163 39.6648L44.4039 49.9665C44.202 50.2258 43.8986 50.3859 43.5706 50.406L43.4962 50.4118C43.1926 50.4117 42.9015 50.2911 42.6869 50.0764L39.253 46.6425C38.8192 46.1934 38.8255 45.4794 39.2669 45.0379C39.7085 44.5963 40.4223 44.5902 40.8715 45.024L43.3897 47.5421L50.6008 38.2637C50.7873 38.0227 51.0619 37.866 51.3641 37.8282C51.6664 37.7904 51.9713 37.8746 52.2113 38.0623H52.216Z" fill="white"/>
<path fill-rule="evenodd" clip-rule="evenodd" d="M25.8941 28.8929C26.333 28.4611 26.9319 28.2318 27.5469 28.2599C29.9681 28.3179 32.3895 28.1469 34.7787 27.7494C33.0598 25.4408 30.3496 24.0818 27.4714 24.0855H22.8929C17.8379 24.0911 13.7415 28.1876 13.7358 33.2425V43.5443C13.7358 44.8086 14.7608 45.8336 16.0251 45.8336C17.2895 45.8336 18.3144 44.8086 18.3144 43.5443V32.0979C18.3144 31.4658 18.8269 30.9532 19.4591 30.9532C20.0913 30.9532 20.6037 31.4657 20.6037 32.0979V43.5443C20.5994 44.3503 20.38 45.1405 19.9685 45.8336H27.5861C26.0708 40.895 25.2616 35.7671 25.1823 30.6019C25.1782 29.9593 25.4351 29.3426 25.8941 28.8929Z" fill="white"/>
<path d="M62.8492 30.5606C58.7675 30.5606 51.2541 29.9242 46.4718 25.8767C46.0587 25.5291 45.4554 25.5291 45.0423 25.8767C40.2909 29.9401 32.7272 30.548 28.6522 30.5582C28.3412 30.5558 28.0426 30.6803 27.8252 30.9026C27.6077 31.125 27.4902 31.4263 27.4995 31.7372C27.9449 44.8558 33.1082 58.5216 45.3158 63.8556C45.6155 63.9855 45.9558 63.9855 46.2555 63.8556C58.819 58.3865 62.9672 45.585 63.9973 31.7865C64.0178 31.469 63.9061 31.1572 63.6887 30.925C63.4712 30.6928 63.1674 30.5609 62.8492 30.5606ZM46.8758 60.9849C46.1969 61.3627 45.3709 61.3627 44.6918 60.9849C39.8695 58.3236 31.5503 51.4375 30.0051 35.2078C29.9478 34.6001 30.1358 33.9948 30.5269 33.5262C30.918 33.0576 31.4801 32.7648 32.0883 32.7124C36.4772 32.4632 40.7516 31.2167 44.5865 29.0679C45.3251 28.6077 46.2609 28.6077 46.9994 29.0679C50.8315 31.2152 55.102 32.4623 59.4874 32.7147C60.0948 32.7675 60.6562 33.0606 61.0468 33.5287C61.4374 33.9969 61.6252 34.6016 61.5683 35.2088C60.0358 51.4296 51.7062 58.3203 46.8758 60.9849Z" fill="white"/>
</svg>
