<svg width="64" height="64" viewBox="0 0 64 64" fill="none" xmlns="http://www.w3.org/2000/svg">
<path d="M42.2217 1.87409V6.15309C44.2928 6.15309 45.9717 7.83196 45.9717 9.90308C45.9717 11.9742 44.2928 13.6531 42.2217 13.6531V18.0281C42.2217 19.0636 43.0612 19.9031 44.0967 19.9031H48.4717C48.4717 21.9742 50.1506 23.6531 52.2217 23.6531C54.2928 23.6531 55.9717 21.9742 55.9717 19.9031H60.2507C61.3687 19.9031 62.2296 18.9318 62.1144 17.8197C61.1434 8.43783 53.6869 0.981337 44.3051 0.0103373C43.1929 -0.104788 42.2217 0.756087 42.2217 1.87409Z" fill="white"/>
<path d="M12.7326 20.4298C15.3734 20.4298 17.6197 22.1515 18.408 24.5312H23.6701V19.5702C25.9354 19.5702 27.7716 17.7339 27.7716 15.4688C27.7716 13.2035 25.9352 11.3673 23.6701 11.3673V4.53125C12.2206 4.53125 2.82723 13.328 1.87598 24.5312H7.05723C7.84548 22.1515 10.0919 20.4298 12.7326 20.4298Z" fill="white"/>
<path d="M34.6074 30.5077C32.3422 30.5077 30.5059 28.6714 30.5059 26.4062H25.5449V31.6684C27.9247 32.4566 29.6464 34.703 29.6464 37.3437C29.6464 39.9845 27.9247 42.2309 25.5449 43.0191V53.75H33.2402C33.2402 49.5521 35.0272 45.5487 38.1704 42.7662C42.6923 38.7634 45.5448 32.9216 45.5448 26.4062H38.7088C38.7089 28.6715 36.8727 30.5077 34.6074 30.5077Z" fill="white"/>
<path d="M21.7949 41.4452C21.7949 40.4097 22.6344 39.5702 23.6699 39.5702C24.8976 39.5702 25.8964 38.5713 25.8964 37.3437C25.8964 36.1161 24.8976 35.1172 23.6699 35.1172C22.6344 35.1172 21.7949 34.2777 21.7949 33.2422V28.2812H16.8339C15.7984 28.2812 14.9589 27.4417 14.9589 26.4062C14.9589 25.1784 13.9601 24.1797 12.7324 24.1797C11.5046 24.1797 10.5059 25.1786 10.5059 26.4062C10.5059 27.4417 9.66637 28.2812 8.63087 28.2812H1.875C2.3645 34.0369 5.08587 39.1516 9.16925 42.7662C12.3125 45.5487 14.0995 49.5519 14.0995 53.7499H21.7948V41.4452H21.7949Z" fill="white"/>
<path d="M14.1699 59.625C14.1699 62.0413 16.1287 64 18.5449 64H28.7295C31.095 64 33.032 62.1199 33.1025 59.7554L33.1699 57.5H14.1699V59.625Z" fill="white"/>
</svg>
