<svg width="227" height="578" viewBox="0 0 227 578" fill="none" xmlns="http://www.w3.org/2000/svg">
<g filter="url(#filter0_b_136_400)">
<ellipse cx="99.2333" cy="290.4" rx="98.6572" ry="174.4" fill="url(#paint0_linear_136_400)"/>
<path d="M196.995 290.4C196.995 338.434 185.979 381.877 168.215 413.279C150.436 444.709 126.012 463.905 99.2333 463.905C72.4545 463.905 48.0311 444.709 30.2515 413.279C12.4873 381.877 1.47158 338.434 1.47158 290.4C1.47158 242.367 12.4873 198.924 30.2515 167.522C48.0311 136.092 72.4545 116.895 99.2333 116.895C126.012 116.895 150.436 136.092 168.215 167.522C185.979 198.924 196.995 242.367 196.995 290.4Z" stroke="white" stroke-width="1.79083"/>
</g>
<g clip-path="url(#clip0_136_400)">
<g filter="url(#filter1_b_136_400)">
<circle cx="193.09" cy="291.13" r="33.1303" fill="url(#paint1_linear_136_400)"/>
<circle cx="193.09" cy="291.13" r="32.2349" stroke="white" stroke-width="1.79083"/>
</g>
<path d="M201.149 282.4C202.262 282.4 203.164 281.498 203.164 280.385C203.164 279.272 202.262 278.37 201.149 278.37C200.036 278.37 199.134 279.272 199.134 280.385C199.134 281.498 200.036 282.4 201.149 282.4Z" fill="white"/>
<path d="M199.806 303.796L198.731 304.87C198.658 304.944 198.568 304.999 198.469 305.032L196.898 305.555C196.759 305.601 196.614 305.623 196.468 305.623C196.258 305.624 196.051 305.575 195.864 305.481C195.677 305.387 195.514 305.249 195.39 305.081C195.265 304.912 195.183 304.716 195.148 304.509C195.114 304.302 195.129 304.09 195.192 303.89H185.031V302.547H195.635L195.723 302.285C195.755 302.184 195.81 302.092 195.884 302.016L199.806 298.101V289.66C199.609 289.566 199.438 289.428 199.306 289.255C199.174 289.082 199.085 288.88 199.047 288.666L198.96 288.135C198.35 287.966 197.764 287.722 197.213 287.41L196.777 287.726C196.519 287.911 196.203 287.999 195.887 287.971C195.57 287.944 195.274 287.805 195.051 287.578L193.956 286.483C193.729 286.261 193.59 285.964 193.563 285.648C193.536 285.331 193.623 285.015 193.809 284.757L194.124 284.321C193.813 283.769 193.567 283.183 193.392 282.575L192.868 282.487C192.654 282.449 192.452 282.361 192.279 282.228C192.107 282.096 191.968 281.925 191.875 281.729H186.374C186.376 282.084 186.517 282.425 186.769 282.677C187.021 282.929 187.362 283.071 187.718 283.072V284.415C187.005 284.415 186.322 284.132 185.818 283.628C185.314 283.124 185.031 282.441 185.031 281.729H179.659C179.66 282.084 179.802 282.425 180.053 282.677C180.305 282.929 180.646 283.071 181.002 283.072V284.415C180.29 284.415 179.606 284.132 179.103 283.628C178.599 283.124 178.316 282.441 178.316 281.729H176.973V309.934H199.806V303.796ZM185.031 286.429H193.09V287.773H185.031V286.429ZM185.031 289.116H195.776V290.459H185.031V289.116ZM185.031 293.145H193.09V294.488H185.031V293.145ZM185.031 295.831H195.776V297.174H185.031V295.831ZM185.031 299.861H193.09V301.204H185.031V299.861ZM178.316 287.101C178.316 286.745 178.457 286.403 178.709 286.151C178.961 285.899 179.303 285.758 179.659 285.758H180.97V287.101H179.659V289.787H182.345V288.444H183.688V289.787C183.688 290.143 183.547 290.485 183.295 290.737C183.043 290.989 182.701 291.13 182.345 291.13H179.659C179.303 291.13 178.961 290.989 178.709 290.737C178.457 290.485 178.316 290.143 178.316 289.787V287.101ZM178.316 293.817C178.316 293.46 178.457 293.119 178.709 292.867C178.961 292.615 179.303 292.473 179.659 292.473H180.97V293.817H179.659V296.503H182.345V295.16H183.688V296.503C183.688 296.859 183.547 297.201 183.295 297.453C183.043 297.704 182.701 297.846 182.345 297.846H179.659C179.303 297.846 178.961 297.704 178.709 297.453C178.457 297.201 178.316 296.859 178.316 296.503V293.817ZM183.688 303.218C183.688 303.575 183.547 303.916 183.295 304.168C183.043 304.42 182.701 304.562 182.345 304.562H179.659C179.303 304.562 178.961 304.42 178.709 304.168C178.457 303.916 178.316 303.575 178.316 303.218V300.532C178.316 300.176 178.457 299.834 178.709 299.582C178.961 299.331 179.303 299.189 179.659 299.189H180.97V300.532H179.659V303.218H182.345V301.875H183.688V303.218ZM181.477 302.35L180.527 301.401L183.885 298.043L184.835 298.992L181.477 302.35ZM181.477 295.634L180.527 294.685L183.885 291.327L184.835 292.277L181.477 295.634ZM181.477 288.919L180.527 287.969L183.885 284.612L184.835 285.561L181.477 288.919ZM195.776 308.591H194.04C193.863 308.591 193.688 308.557 193.525 308.489C193.362 308.422 193.214 308.323 193.09 308.197L192.419 307.526L191.537 308.407C191.413 308.532 191.264 308.631 191.101 308.698C190.938 308.766 190.763 308.801 190.587 308.8C190.515 308.801 190.444 308.795 190.374 308.783C190.163 308.749 189.964 308.666 189.793 308.539C189.621 308.413 189.482 308.248 189.386 308.058C189.37 308.026 189.357 307.993 189.346 307.959L188.817 306.272L186.869 308.376L185.885 307.463L187.927 305.259C187.955 305.23 187.985 305.203 188.017 305.179C188.174 305.061 188.356 304.979 188.548 304.939C188.741 304.898 188.94 304.901 189.131 304.946C189.323 304.991 189.502 305.078 189.656 305.2C189.81 305.322 189.936 305.476 190.024 305.652C190.04 305.684 190.053 305.717 190.064 305.751L190.597 307.451L191.47 306.578C191.722 306.326 192.064 306.184 192.42 306.184C192.776 306.184 193.118 306.326 193.369 306.578L194.041 307.249H195.776V308.591ZM198.463 308.591H197.119V307.248H198.463V308.591Z" fill="white"/>
<path d="M210.605 291.097L212.028 289.673C212.091 289.61 212.14 289.536 212.174 289.454C212.207 289.372 212.224 289.284 212.223 289.196C212.224 289.109 212.207 289.022 212.174 288.941C212.14 288.86 212.091 288.787 212.028 288.726C211.901 288.603 211.732 288.534 211.555 288.534C211.378 288.534 211.208 288.603 211.081 288.726L209.658 290.15L210.605 291.097Z" fill="white"/>
<path d="M209.657 292.05L208.704 291.096L207.757 292.05L208.704 292.997L209.657 292.05Z" fill="white"/>
<path d="M206.804 292.997L204.305 295.495L196.945 302.856L196.468 304.279L197.899 303.809L199.806 301.895V301.875H199.826L207.757 293.944L206.804 292.997Z" fill="white"/>
<path d="M209.201 279.613L207.804 279.371L207.71 278.935C207.532 278.171 207.228 277.442 206.81 276.779L206.561 276.396L207.394 275.234L206.299 274.14L205.138 274.972L204.755 274.724C204.092 274.306 203.363 274.001 202.599 273.824L202.163 273.73L201.921 272.326L200.376 272.333L200.135 273.73L199.698 273.824C198.934 274.001 198.206 274.306 197.542 274.724L197.159 274.972L195.998 274.14L194.903 275.234L195.736 276.396L195.487 276.779C195.069 277.442 194.765 278.171 194.587 278.935L194.493 279.371L193.09 279.613V281.057L193.097 281.157L194.493 281.399L194.587 281.836C194.765 282.599 195.069 283.328 195.487 283.991L195.736 284.374L194.903 285.536L195.998 286.631L197.159 285.798L197.542 286.046C198.206 286.465 198.934 286.769 199.698 286.946L200.135 287.04L200.376 288.444H201.921V288.437L202.163 287.04L202.599 286.946C203.363 286.769 204.092 286.465 204.755 286.046L205.138 285.798L206.299 286.631L207.394 285.536L206.561 284.374L206.81 283.991C207.228 283.328 207.532 282.599 207.71 281.836L207.804 281.399L209.207 281.157L209.201 279.613ZM201.149 283.743C200.484 283.743 199.835 283.546 199.283 283.177C198.731 282.808 198.301 282.284 198.046 281.67C197.792 281.057 197.726 280.381 197.855 279.73C197.985 279.079 198.305 278.48 198.774 278.011C199.244 277.541 199.842 277.221 200.493 277.092C201.145 276.962 201.82 277.029 202.434 277.283C203.047 277.537 203.572 277.967 203.94 278.52C204.309 279.072 204.506 279.721 204.506 280.385C204.506 281.276 204.153 282.13 203.523 282.759C202.893 283.389 202.039 283.743 201.149 283.743Z" fill="white"/>
<path d="M181.002 277.699C180.29 277.699 179.606 277.982 179.103 278.486C178.599 278.99 178.316 279.673 178.316 280.385H179.659C179.659 280.029 179.801 279.687 180.052 279.435C180.304 279.184 180.646 279.042 181.002 279.042C181.358 279.042 181.7 279.184 181.952 279.435C182.204 279.687 182.345 280.029 182.345 280.385H183.688C183.688 279.673 183.405 278.99 182.902 278.486C182.398 277.982 181.715 277.699 181.002 277.699V277.699ZM187.718 277.699C187.005 277.699 186.322 277.982 185.818 278.486C185.315 278.99 185.032 279.673 185.032 280.385H186.375C186.375 280.029 186.516 279.687 186.768 279.435C187.02 279.184 187.362 279.042 187.718 279.042C188.074 279.042 188.416 279.184 188.667 279.435C188.919 279.687 189.061 280.029 189.061 280.385H190.404C190.404 279.673 190.121 278.99 189.617 278.486C189.113 277.982 188.43 277.699 187.718 277.699V277.699Z" fill="white"/>
</g>
<defs>
<filter id="filter0_b_136_400" x="-848.087" y="-732.664" width="1894.64" height="2046.13" filterUnits="userSpaceOnUse" color-interpolation-filters="sRGB">
<feFlood flood-opacity="0" result="BackgroundImageFix"/>
<feGaussianBlur in="BackgroundImage" stdDeviation="424.332"/>
<feComposite in2="SourceAlpha" operator="in" result="effect1_backgroundBlur_136_400"/>
<feBlend mode="normal" in="SourceGraphic" in2="effect1_backgroundBlur_136_400" result="shape"/>
</filter>
<filter id="filter1_b_136_400" x="140.26" y="238.301" width="105.659" height="105.659" filterUnits="userSpaceOnUse" color-interpolation-filters="sRGB">
<feFlood flood-opacity="0" result="BackgroundImageFix"/>
<feGaussianBlur in="BackgroundImage" stdDeviation="9.84954"/>
<feComposite in2="SourceAlpha" operator="in" result="effect1_backgroundBlur_136_400"/>
<feBlend mode="normal" in="SourceGraphic" in2="effect1_backgroundBlur_136_400" result="shape"/>
</filter>
<linearGradient id="paint0_linear_136_400" x1="0.576172" y1="116" x2="292.818" y2="342.109" gradientUnits="userSpaceOnUse">
<stop stop-color="#525353"/>
<stop offset="1" stop-color="#534F4A"/>
</linearGradient>
<linearGradient id="paint1_linear_136_400" x1="159.959" y1="258" x2="214.611" y2="332.748" gradientUnits="userSpaceOnUse">
<stop stop-color="#525353"/>
<stop offset="1" stop-color="#534F4A"/>
</linearGradient>
<clipPath id="clip0_136_400">
<rect width="66.2605" height="66.2605" fill="white" transform="translate(159.959 258)"/>
</clipPath>
</defs>
</svg>
