<svg width="272" height="578" viewBox="0 0 272 578" fill="none" xmlns="http://www.w3.org/2000/svg">
<g filter="url(#filter0_b_136_401)">
<ellipse cx="119.698" cy="290.87" rx="119.288" ry="210.87" fill="url(#paint0_linear_136_401)"/>
<path d="M238.09 290.87C238.09 348.974 224.766 401.534 203.268 439.536C181.755 477.565 152.174 500.844 119.698 500.844C87.2225 500.844 57.6414 477.565 36.1285 439.536C14.6309 401.534 1.30606 348.974 1.30606 290.87C1.30606 232.765 14.6309 180.205 36.1285 142.203C57.6414 104.174 87.2225 80.8954 119.698 80.8954C152.174 80.8954 181.755 104.174 203.268 142.203C224.766 180.205 238.09 232.765 238.09 290.87Z" stroke="white" stroke-width="1.79083"/>
</g>
<g clip-path="url(#clip0_136_401)">
<g filter="url(#filter1_b_136_401)">
<circle cx="238.409" cy="291.13" r="33.1303" fill="url(#paint1_linear_136_401)"/>
<circle cx="238.409" cy="291.13" r="32.2349" stroke="white" stroke-width="1.79083"/>
</g>
<g clip-path="url(#clip1_136_401)">
<path d="M239.08 295.159H241.095C241.323 295.159 241.546 295.137 241.766 295.106V292.473H239.08V295.159Z" fill="white"/>
<path d="M231.021 284.415H233.707V287.101H231.021V284.415Z" fill="white"/>
<path d="M241.766 282.057C240.815 281.809 239.913 281.429 239.08 280.931V283.072H241.766V282.057Z" fill="white"/>
<path d="M239.08 288.444H241.766V291.13H239.08V288.444Z" fill="white"/>
<path d="M233.707 280.453C232.394 280.721 231.357 281.758 231.089 283.072H233.707V280.453Z" fill="white"/>
<path d="M233.707 288.444H231.021V290.459C231.021 290.687 231.043 290.91 231.075 291.13H233.707V288.444Z" fill="white"/>
<path d="M243.109 284.415H245.796V287.101H243.109V284.415Z" fill="white"/>
<path d="M244.415 282.4C243.973 282.4 243.539 282.364 243.109 282.311V283.071H245.593C245.352 282.671 244.917 282.4 244.415 282.4V282.4Z" fill="white"/>
<path d="M243.109 294.699C244.083 294.235 244.871 293.447 245.336 292.473H243.109V294.699Z" fill="white"/>
<path d="M243.109 291.13H245.742C245.773 290.91 245.796 290.687 245.796 290.459V288.444H243.109V291.13Z" fill="white"/>
<path d="M233.708 294.699V292.473H231.481C231.946 293.447 232.734 294.235 233.708 294.699Z" fill="white"/>
<path d="M235.051 284.415H237.737V287.101H235.051V284.415Z" fill="white"/>
<path d="M244.055 298.919C242.773 300.748 240.662 301.875 238.409 301.875C236.156 301.875 234.045 300.749 232.762 298.919C228.239 300.131 224.978 304.253 224.978 309.049V310.605H229.007V305.233H230.35V310.605H246.467V305.233H247.811V310.605H251.84V309.049C251.84 304.253 248.577 300.13 244.055 298.919Z" fill="white"/>
<path d="M235.051 280.385H237.737V283.072H235.051V280.385Z" fill="white"/>
<path d="M230.74 298.202C231.76 297.755 232.854 297.444 234.007 297.299C234.294 297.263 234.525 297.049 234.582 296.766L234.654 296.403C231.83 295.896 229.679 293.427 229.679 290.459V283.743C229.679 281.152 231.787 279.042 234.379 279.042H236.758C236.116 278.34 235.563 277.54 235.122 276.657L236.323 276.056C237.866 279.14 240.967 281.057 244.415 281.057C245.918 281.057 247.139 282.279 247.139 283.781V290.459C247.139 293.427 244.987 295.896 242.163 296.403L242.235 296.766C242.293 297.049 242.524 297.264 242.811 297.3C243.963 297.444 245.057 297.756 246.077 298.203C248.69 297.355 250.497 294.891 250.497 292.126C250.497 291.139 250.263 290.151 249.822 289.268L249.688 288.999C248.899 287.422 248.482 285.657 248.482 283.893V281.729C248.482 276.174 243.963 271.655 238.409 271.655C232.854 271.655 228.335 276.174 228.335 281.729V283.893C228.335 285.657 227.918 287.422 227.13 288.999L226.996 289.268C226.555 290.151 226.321 291.139 226.321 292.126C226.321 294.891 228.129 297.355 230.74 298.202V298.202Z" fill="white"/>
<path d="M239.08 284.415H241.766V287.101H239.08V284.415Z" fill="white"/>
<path d="M235.051 288.444H237.737V291.13H235.051V288.444Z" fill="white"/>
<path d="M238.409 300.532C240.021 300.532 241.543 299.813 242.589 298.621C241.753 298.492 241.085 297.861 240.918 297.029L240.814 296.503H236.005L235.899 297.029C235.734 297.861 235.066 298.493 234.229 298.621C235.275 299.813 236.796 300.532 238.409 300.532Z" fill="white"/>
<path d="M235.051 295.106C235.271 295.137 235.494 295.159 235.722 295.159H237.737V292.473H235.051V295.106Z" fill="white"/>
<path d="M257.884 303.89H253.854V305.233H259.227V299.86H257.884V303.89Z" fill="white"/>
<path d="M218.933 299.86H217.59V305.233H222.963V303.89H218.933V299.86Z" fill="white"/>
<path d="M218.933 271.655H222.963V270.312H217.59V275.684H218.933V271.655Z" fill="white"/>
<path d="M253.854 270.312V271.655H257.884V275.684H259.227V270.312H253.854Z" fill="white"/>
<path d="M221.62 282.4H222.963V283.743H221.62V282.4Z" fill="white"/>
<path d="M224.306 282.4H225.649V283.743H224.306V282.4Z" fill="white"/>
<path d="M218.934 282.4H220.277V283.743H218.934V282.4Z" fill="white"/>
<path d="M218.934 285.086H225.649V286.43H218.934V285.086Z" fill="white"/>
<path d="M218.934 279.714H225.649V281.057H218.934V279.714Z" fill="white"/>
<path d="M218.934 277.027H225.649V278.37H218.934V277.027Z" fill="white"/>
<path d="M256.541 285.086H257.884V286.43H256.541V285.086Z" fill="white"/>
<path d="M251.169 285.086H252.512V286.43H251.169V285.086Z" fill="white"/>
<path d="M253.854 285.086H255.198V286.43H253.854V285.086Z" fill="white"/>
<path d="M251.169 282.4H257.885V283.743H251.169V282.4Z" fill="white"/>
<path d="M251.169 279.714H257.885V281.057H251.169V279.714Z" fill="white"/>
</g>
</g>
<defs>
<filter id="filter0_b_136_401" x="-1025.72" y="-946.13" width="2290.83" height="2474" filterUnits="userSpaceOnUse" color-interpolation-filters="sRGB">
<feFlood flood-opacity="0" result="BackgroundImageFix"/>
<feGaussianBlur in="BackgroundImage" stdDeviation="513.065"/>
<feComposite in2="SourceAlpha" operator="in" result="effect1_backgroundBlur_136_401"/>
<feBlend mode="normal" in="SourceGraphic" in2="effect1_backgroundBlur_136_401" result="shape"/>
</filter>
<filter id="filter1_b_136_401" x="185.58" y="238.301" width="105.659" height="105.659" filterUnits="userSpaceOnUse" color-interpolation-filters="sRGB">
<feFlood flood-opacity="0" result="BackgroundImageFix"/>
<feGaussianBlur in="BackgroundImage" stdDeviation="9.84954"/>
<feComposite in2="SourceAlpha" operator="in" result="effect1_backgroundBlur_136_401"/>
<feBlend mode="normal" in="SourceGraphic" in2="effect1_backgroundBlur_136_401" result="shape"/>
</filter>
<linearGradient id="paint0_linear_136_401" x1="0.410645" y1="80" x2="353.764" y2="353.391" gradientUnits="userSpaceOnUse">
<stop stop-color="#525353"/>
<stop offset="1" stop-color="#534F4A"/>
</linearGradient>
<linearGradient id="paint1_linear_136_401" x1="205.279" y1="258" x2="259.931" y2="332.748" gradientUnits="userSpaceOnUse">
<stop stop-color="#525353"/>
<stop offset="1" stop-color="#534F4A"/>
</linearGradient>
<clipPath id="clip0_136_401">
<rect width="66.2605" height="66.2605" fill="white" transform="translate(205.279 258)"/>
</clipPath>
<clipPath id="clip1_136_401">
<rect width="42.9798" height="42.9798" fill="white" transform="translate(216.919 269.64)"/>
</clipPath>
</defs>
</svg>
