<svg width="309" height="578" viewBox="0 0 309 578" fill="none" xmlns="http://www.w3.org/2000/svg">
<g filter="url(#filter0_b_136_402)">
<ellipse cx="139.635" cy="290.791" rx="139.042" ry="245.791" fill="url(#paint0_linear_136_402)"/>
<path d="M277.782 290.791C277.782 358.539 262.246 419.829 237.173 464.15C212.086 508.499 177.566 535.686 139.635 535.686C101.704 535.686 67.1845 508.499 42.0967 464.15C17.0242 419.829 1.48819 358.539 1.48819 290.791C1.48819 223.043 17.0242 161.753 42.0967 117.431C67.1845 73.0826 101.704 45.8954 139.635 45.8954C177.566 45.8954 212.086 73.0826 237.173 117.431C262.246 161.753 277.782 223.043 277.782 290.791Z" stroke="white" stroke-width="1.79083"/>
</g>
<g clip-path="url(#clip0_136_402)">
<g filter="url(#filter1_b_136_402)">
<circle cx="274.996" cy="291.13" r="33.1303" fill="url(#paint1_linear_136_402)"/>
<circle cx="274.996" cy="291.13" r="32.2349" stroke="white" stroke-width="1.79083"/>
</g>
<g clip-path="url(#clip1_136_402)">
<path d="M289.077 288.166H290.559V294.094H289.077V288.166Z" fill="white"/>
<path d="M292.067 282.33C291.121 281.335 289.791 280.756 288.406 280.756C286.088 280.756 284.075 282.327 283.513 284.576L283.355 285.202H287.908C288.824 283.672 290.332 282.631 292.067 282.33Z" fill="white"/>
<path d="M275.738 302.109V309.656C275.738 310.473 275.073 311.138 274.256 311.138H256.471C255.654 311.138 254.989 310.473 254.989 309.656V272.604C254.989 271.787 255.654 271.122 256.471 271.122H274.256C275.073 271.122 275.738 271.787 275.738 272.604V280.107C276.247 280.178 276.743 280.289 277.22 280.445V271.863C277.22 270.638 276.222 269.64 274.997 269.64H255.73C254.504 269.64 253.507 270.638 253.507 271.863V310.397C253.507 311.623 254.504 312.62 255.73 312.62H274.997C276.222 312.62 277.22 311.623 277.22 310.397V300.022C277.22 300.987 276.598 301.802 275.738 302.109Z" fill="white"/>
<path d="M263.881 277.051H265.363V278.533H263.881V277.051Z" fill="white"/>
<path d="M260.917 277.051H262.4V278.533H260.917V277.051Z" fill="white"/>
<path d="M260.917 294.835H262.4V296.317H260.917V294.835Z" fill="white"/>
<path d="M263.881 303.728H265.363V305.21H263.881V303.728Z" fill="white"/>
<path d="M260.917 303.728H262.4V305.21H260.917V303.728Z" fill="white"/>
<path d="M274.256 280.015V272.604H256.471V309.656H274.256V302.245H272.033V307.433H258.694V301.504H267.424C267.068 301.11 266.846 300.594 266.846 300.022V299.207C266.305 299.096 265.815 298.858 265.387 298.54H258.694V292.612H261.901C261.418 291.693 261.11 290.692 260.986 289.648H258.694V283.72H262.456C263.352 282.43 264.591 281.4 266.041 280.756H258.694V274.827H272.033V280.015H274.256Z" fill="white"/>
<path d="M293.523 289.648C292.706 289.648 292.041 290.312 292.041 291.13C292.041 291.947 292.706 292.612 293.523 292.612C294.631 292.612 296.487 291.684 296.487 291.13C296.487 290.575 294.631 289.648 293.523 289.648Z" fill="white"/>
<path d="M274.548 281.497H269.519C265.593 281.497 262.399 284.69 262.399 288.615C262.399 290.516 263.14 292.305 264.484 293.649L265.364 294.528V295.576C265.364 296.802 266.361 297.799 267.587 297.799H268.328V300.022C268.328 300.431 268.66 300.763 269.069 300.763H269.81V297.799H271.292V300.763H272.774V297.799H274.256V300.763H274.997C275.406 300.763 275.738 300.431 275.738 300.022V297.799H276.479C277.705 297.799 278.702 296.802 278.702 295.576V294.528L279.582 293.649C280.926 292.305 281.666 290.517 281.666 288.615C281.666 284.69 278.472 281.497 274.548 281.497ZM269.069 291.13H267.587C265.95 291.13 264.623 289.803 264.623 288.166C264.623 286.529 265.95 285.202 267.587 285.202C269.224 285.202 270.551 286.529 270.551 288.166V289.648C270.551 290.467 269.888 291.13 269.069 291.13ZM272.812 296.551L272.306 295.031C272.226 294.797 271.839 294.796 271.76 295.032L271.253 296.551L269.848 296.082L270.355 294.562C270.597 293.838 271.271 293.353 272.033 293.353C272.795 293.353 273.469 293.838 273.711 294.562L274.218 296.083L272.812 296.551ZM276.479 291.13H274.997C274.178 291.13 273.515 290.467 273.515 289.648V288.166C273.515 286.529 274.842 285.202 276.479 285.202C278.116 285.202 279.443 286.529 279.443 288.166C279.443 289.803 278.116 291.13 276.479 291.13Z" fill="white"/>
<path d="M287.908 297.058H283.355L283.512 297.684C284.075 299.934 286.088 301.505 288.406 301.505C289.791 301.505 291.121 300.925 292.067 299.931C290.332 299.629 288.824 298.589 287.908 297.058Z" fill="white"/>
<path d="M287.594 286.684H282.921C283.065 287.306 283.148 287.951 283.148 288.615C283.148 290.913 282.254 293.073 280.629 294.697L280.184 295.142V295.576H287.594V286.684Z" fill="white"/>
</g>
</g>
<defs>
<filter id="filter0_b_136_402" x="-1195.47" y="-1151.06" width="2670.21" height="2883.71" filterUnits="userSpaceOnUse" color-interpolation-filters="sRGB">
<feFlood flood-opacity="0" result="BackgroundImageFix"/>
<feGaussianBlur in="BackgroundImage" stdDeviation="598.031"/>
<feComposite in2="SourceAlpha" operator="in" result="effect1_backgroundBlur_136_402"/>
<feBlend mode="normal" in="SourceGraphic" in2="effect1_backgroundBlur_136_402" result="shape"/>
</filter>
<filter id="filter1_b_136_402" x="222.167" y="238.301" width="105.659" height="105.659" filterUnits="userSpaceOnUse" color-interpolation-filters="sRGB">
<feFlood flood-opacity="0" result="BackgroundImageFix"/>
<feGaussianBlur in="BackgroundImage" stdDeviation="9.84954"/>
<feComposite in2="SourceAlpha" operator="in" result="effect1_backgroundBlur_136_402"/>
<feBlend mode="normal" in="SourceGraphic" in2="effect1_backgroundBlur_136_402" result="shape"/>
</filter>
<linearGradient id="paint0_linear_136_402" x1="0.592773" y1="45" x2="412.463" y2="363.666" gradientUnits="userSpaceOnUse">
<stop stop-color="#525353"/>
<stop offset="1" stop-color="#534F4A"/>
</linearGradient>
<linearGradient id="paint1_linear_136_402" x1="241.866" y1="258" x2="296.518" y2="332.748" gradientUnits="userSpaceOnUse">
<stop stop-color="#525353"/>
<stop offset="1" stop-color="#534F4A"/>
</linearGradient>
<clipPath id="clip0_136_402">
<rect width="66.2605" height="66.2605" fill="white" transform="translate(241.866 258)"/>
</clipPath>
<clipPath id="clip1_136_402">
<rect width="42.9798" height="42.9798" fill="white" transform="translate(253.506 269.64)"/>
</clipPath>
</defs>
</svg>
