<svg width="337" height="578" viewBox="0 0 337 578" fill="none" xmlns="http://www.w3.org/2000/svg">
<g filter="url(#filter0_b_136_403)">
<ellipse cx="152.669" cy="293.072" rx="152.212" ry="269.072" fill="url(#paint0_linear_136_403)"/>
<path d="M303.986 293.072C303.986 367.248 286.976 434.358 259.52 482.893C232.049 531.455 194.237 561.248 152.669 561.248C111.101 561.248 73.2893 531.455 45.8182 482.893C18.3625 434.358 1.35244 367.248 1.35244 293.072C1.35244 218.895 18.3625 151.785 45.8182 103.25C73.2893 54.6883 111.101 24.8954 152.669 24.8954C194.237 24.8954 232.049 54.6883 259.52 103.25C286.976 151.785 303.986 218.895 303.986 293.072Z" stroke="white" stroke-width="1.79083"/>
</g>
<g clip-path="url(#clip0_136_403)">
<g filter="url(#filter1_b_136_403)">
<circle cx="303.106" cy="291.13" r="33.1303" fill="url(#paint1_linear_136_403)"/>
<circle cx="303.106" cy="291.13" r="32.2349" stroke="white" stroke-width="1.79083"/>
</g>
<g clip-path="url(#clip1_136_403)">
<path d="M305.186 285.584C305.186 284.438 304.253 283.505 303.107 283.505C301.96 283.505 301.027 284.438 301.027 285.584V286.278H305.186V285.584Z" fill="white"/>
<path d="M306.573 287.664H299.641V294.596H306.574L306.573 287.664ZM305.186 290.437H303.8V293.21H302.413V290.437H301.027V289.05H305.186V290.437Z" fill="white"/>
<path d="M292.708 308.461C292.708 309.99 293.952 311.233 295.481 311.233H310.732C312.261 311.233 313.505 309.99 313.505 308.461V304.301H292.708V308.461ZM300.334 307.074C300.334 306.691 300.645 306.381 301.027 306.381H305.186C305.569 306.381 305.88 306.691 305.88 307.074V308.46C305.88 308.843 305.569 309.154 305.186 309.154H301.027C300.645 309.154 300.334 308.843 300.334 308.46V307.074Z" fill="white"/>
<path d="M309.346 296.248V283.24L303.107 280.12L296.868 283.24V296.247L303.107 299.367L309.346 296.248ZM298.254 294.596V287.664C298.254 286.899 298.876 286.278 299.641 286.278V285.584C299.641 283.673 301.196 282.118 303.107 282.118C305.018 282.118 306.573 283.673 306.573 285.584V286.278C307.337 286.278 307.959 286.899 307.959 287.664V294.596C307.959 295.361 307.337 295.983 306.573 295.983H299.641C298.876 295.983 298.254 295.361 298.254 294.596V294.596Z" fill="white"/>
<path d="M310.732 271.027H295.481C293.952 271.027 292.708 272.27 292.708 273.799V275.186H313.505V273.799C313.505 272.27 312.262 271.027 310.732 271.027ZM302.414 273.799H298.254V272.413H302.414V273.799ZM305.186 273.799H303.8V272.413H305.186V273.799ZM307.959 273.799H306.573V272.413H307.959V273.799Z" fill="white"/>
<path d="M292.708 302.915H313.505V276.573H292.708V302.915ZM295.481 282.383L303.107 278.57L310.732 282.383V297.104L303.107 300.917L295.481 297.104V282.383Z" fill="white"/>
<path d="M323.21 273.8H320.437C319.672 273.8 319.051 274.421 319.051 275.186V277.959C319.051 278.724 319.672 279.345 320.437 279.345V283.505H314.891V284.891H320.437C321.202 284.891 321.823 284.269 321.823 283.505V279.345H323.21C323.974 279.345 324.596 278.724 324.596 277.959V275.186C324.596 274.421 323.974 273.8 323.21 273.8Z" fill="white"/>
<path d="M323.21 287.664H320.437C319.672 287.664 319.05 288.286 319.05 289.05V290.437H314.891V291.823H319.05C319.05 292.588 319.672 293.21 320.437 293.21H323.21C323.974 293.21 324.596 292.588 324.596 291.823V289.05C324.596 288.286 323.974 287.664 323.21 287.664Z" fill="white"/>
<path d="M323.21 302.915H321.823V298.756C321.823 297.991 321.202 297.369 320.437 297.369H314.891V298.756H320.437V302.915C319.672 302.915 319.051 303.537 319.051 304.301V307.074C319.051 307.839 319.672 308.461 320.437 308.461H323.21C323.974 308.461 324.596 307.839 324.596 307.074V304.301C324.596 303.537 323.974 302.915 323.21 302.915V302.915Z" fill="white"/>
<path d="M287.163 289.05C287.163 288.286 286.541 287.664 285.776 287.664H283.003C282.238 287.664 281.617 288.286 281.617 289.05V291.823C281.617 292.588 282.238 293.21 283.003 293.21H285.776C286.541 293.21 287.162 292.588 287.162 291.823H291.322V290.437H287.163V289.05Z" fill="white"/>
<path d="M285.776 279.346C286.541 279.346 287.162 278.724 287.162 277.959V275.186C287.162 274.422 286.541 273.8 285.776 273.8H283.003C282.238 273.8 281.617 274.422 281.617 275.186V277.959C281.617 278.724 282.238 279.346 283.003 279.346H284.39V283.505C284.39 284.27 285.011 284.891 285.776 284.891H291.322V283.505H285.776V279.346Z" fill="white"/>
<path d="M284.39 298.756V302.915H283.003C282.238 302.915 281.617 303.537 281.617 304.301V307.074C281.617 307.839 282.238 308.461 283.003 308.461H285.776C286.541 308.461 287.162 307.839 287.162 307.074V304.301C287.162 303.537 286.541 302.915 285.776 302.915V298.756H291.322V297.369H285.776C285.011 297.369 284.39 297.991 284.39 298.756V298.756Z" fill="white"/>
</g>
</g>
<defs>
<filter id="filter0_b_136_403" x="-1308.89" y="-1285.35" width="2923.12" height="3156.84" filterUnits="userSpaceOnUse" color-interpolation-filters="sRGB">
<feFlood flood-opacity="0" result="BackgroundImageFix"/>
<feGaussianBlur in="BackgroundImage" stdDeviation="654.675"/>
<feComposite in2="SourceAlpha" operator="in" result="effect1_backgroundBlur_136_403"/>
<feBlend mode="normal" in="SourceGraphic" in2="effect1_backgroundBlur_136_403" result="shape"/>
</filter>
<filter id="filter1_b_136_403" x="250.277" y="238.301" width="105.659" height="105.659" filterUnits="userSpaceOnUse" color-interpolation-filters="sRGB">
<feFlood flood-opacity="0" result="BackgroundImageFix"/>
<feGaussianBlur in="BackgroundImage" stdDeviation="9.84954"/>
<feComposite in2="SourceAlpha" operator="in" result="effect1_backgroundBlur_136_403"/>
<feBlend mode="normal" in="SourceGraphic" in2="effect1_backgroundBlur_136_403" result="shape"/>
</filter>
<linearGradient id="paint0_linear_136_403" x1="0.457031" y1="24" x2="451.339" y2="372.849" gradientUnits="userSpaceOnUse">
<stop stop-color="#525353"/>
<stop offset="1" stop-color="#534F4A"/>
</linearGradient>
<linearGradient id="paint1_linear_136_403" x1="269.976" y1="258" x2="324.628" y2="332.748" gradientUnits="userSpaceOnUse">
<stop stop-color="#525353"/>
<stop offset="1" stop-color="#534F4A"/>
</linearGradient>
<clipPath id="clip0_136_403">
<rect width="66.2605" height="66.2605" fill="white" transform="translate(269.976 258)"/>
</clipPath>
<clipPath id="clip1_136_403">
<rect width="42.9798" height="42.9798" fill="white" transform="translate(281.616 269.64)"/>
</clipPath>
</defs>
</svg>
