<svg width="358" height="578" viewBox="0 0 358 578" fill="none" xmlns="http://www.w3.org/2000/svg">
<g filter="url(#filter0_b_136_404)">
<ellipse cx="163.537" cy="288.771" rx="163.356" ry="288.771" fill="url(#paint0_linear_136_404)"/>
<path d="M325.997 288.771C325.997 368.387 307.74 440.422 278.267 492.521C248.78 544.648 208.182 576.646 163.537 576.646C118.892 576.646 78.2939 544.648 48.8063 492.521C19.3339 440.422 1.07656 368.387 1.07656 288.771C1.07656 209.154 19.3339 137.119 48.8063 85.0198C78.2939 32.8932 118.892 0.895413 163.537 0.895413C208.182 0.895413 248.78 32.8932 278.267 85.0198C307.74 137.119 325.997 209.154 325.997 288.771Z" stroke="white" stroke-width="1.79083"/>
</g>
<g clip-path="url(#clip0_136_404)">
<g filter="url(#filter1_b_136_404)">
<circle cx="324.321" cy="291.13" r="33.1303" fill="url(#paint1_linear_136_404)"/>
<circle cx="324.321" cy="291.13" r="32.2349" stroke="white" stroke-width="1.79083"/>
</g>
<path d="M342.453 295.832C343.195 295.832 343.796 295.23 343.796 294.488C343.796 293.747 343.195 293.145 342.453 293.145C341.711 293.145 341.11 293.747 341.11 294.488C341.11 295.23 341.711 295.832 342.453 295.832Z" fill="white"/>
<path d="M340.438 305.233C341.18 305.233 341.781 304.632 341.781 303.89C341.781 303.148 341.18 302.547 340.438 302.547C339.697 302.547 339.095 303.148 339.095 303.89C339.095 304.632 339.697 305.233 340.438 305.233Z" fill="white"/>
<path d="M331.036 310.606C331.778 310.606 332.38 310.004 332.38 309.263C332.38 308.521 331.778 307.919 331.036 307.919C330.295 307.919 329.693 308.521 329.693 309.263C329.693 310.004 330.295 310.606 331.036 310.606Z" fill="white"/>
<path d="M317.605 310.606C318.347 310.606 318.948 310.004 318.948 309.263C318.948 308.521 318.347 307.919 317.605 307.919C316.864 307.919 316.262 308.521 316.262 309.263C316.262 310.004 316.864 310.606 317.605 310.606Z" fill="white"/>
<path d="M308.203 305.233C308.945 305.233 309.547 304.632 309.547 303.89C309.547 303.148 308.945 302.547 308.203 302.547C307.462 302.547 306.86 303.148 306.86 303.89C306.86 304.632 307.462 305.233 308.203 305.233Z" fill="white"/>
<path d="M306.189 295.832C306.931 295.832 307.532 295.23 307.532 294.488C307.532 293.747 306.931 293.145 306.189 293.145C305.447 293.145 304.846 293.747 304.846 294.488C304.846 295.23 305.447 295.832 306.189 295.832Z" fill="white"/>
<path d="M325.895 300.233C327.046 299.593 328.005 298.657 328.673 297.522C329.341 296.386 329.693 295.093 329.694 293.776V290.223L324.321 287.84L318.949 290.227V293.779C318.949 295.096 319.302 296.39 319.969 297.525C320.637 298.66 321.597 299.597 322.748 300.237L324.321 301.107L325.895 300.233ZM322.307 293.145C322.305 292.775 322.405 292.412 322.596 292.096C322.787 291.779 323.062 291.522 323.389 291.351C323.717 291.18 324.086 291.102 324.455 291.127C324.824 291.151 325.179 291.277 325.481 291.489C325.783 291.702 326.021 291.994 326.169 292.333C326.316 292.672 326.367 293.045 326.317 293.412C326.267 293.778 326.116 294.123 325.883 294.41C325.649 294.696 325.341 294.913 324.993 295.036V297.846H323.65V295.036C323.258 294.898 322.919 294.642 322.679 294.303C322.438 293.965 322.308 293.56 322.307 293.145V293.145Z" fill="white"/>
<path d="M309.546 289.787H314.919V288.444C314.92 288.316 314.957 288.191 315.026 288.083C315.095 287.974 315.193 287.888 315.308 287.833L324.039 283.804C324.127 283.764 324.224 283.743 324.321 283.743C324.418 283.743 324.514 283.764 324.603 283.804L333.333 287.833C333.449 287.888 333.547 287.974 333.616 288.083C333.685 288.191 333.722 288.316 333.723 288.444V289.787H337.752C339.177 289.787 340.543 289.221 341.551 288.214C342.558 287.206 343.124 285.84 343.124 284.415C343.124 282.99 342.558 281.623 341.551 280.616C340.543 279.608 339.177 279.042 337.752 279.042C337.574 279.042 337.403 278.971 337.277 278.846C337.151 278.72 337.08 278.549 337.08 278.371C337.08 277.48 336.727 276.626 336.097 275.996C335.467 275.367 334.613 275.013 333.723 275.013C333.274 275.012 332.829 275.102 332.416 275.277C332.003 275.452 331.629 275.71 331.318 276.034C331.244 276.109 331.153 276.166 331.053 276.2C330.953 276.234 330.846 276.244 330.741 276.228C330.636 276.214 330.536 276.175 330.45 276.114C330.363 276.054 330.293 275.973 330.244 275.879C329.574 274.622 328.521 273.611 327.238 272.993C325.955 272.374 324.508 272.179 323.107 272.437C321.707 272.695 320.424 273.393 319.446 274.428C318.468 275.463 317.844 276.783 317.666 278.196C317.65 278.318 317.601 278.434 317.524 278.531C317.448 278.627 317.346 278.7 317.23 278.743C317.114 278.785 316.989 278.795 316.868 278.771C316.747 278.746 316.635 278.689 316.544 278.606C316.066 278.158 315.468 277.859 314.822 277.747C314.177 277.635 313.513 277.714 312.912 277.974C312.311 278.235 311.799 278.666 311.44 279.213C311.081 279.761 310.889 280.402 310.89 281.057C310.889 281.158 310.868 281.257 310.828 281.35C310.787 281.442 310.728 281.525 310.655 281.594C310.583 281.66 310.498 281.711 310.405 281.742C310.313 281.773 310.215 281.785 310.117 281.775C309.929 281.744 309.738 281.728 309.546 281.728C308.478 281.728 307.453 282.153 306.697 282.909C305.942 283.664 305.517 284.689 305.517 285.758C305.517 286.826 305.942 287.851 306.697 288.607C307.453 289.363 308.478 289.787 309.546 289.787V289.787ZM337.752 287.101C338.464 287.101 339.148 286.818 339.651 286.314C340.155 285.81 340.438 285.127 340.438 284.415H341.781C341.78 285.483 341.355 286.507 340.6 287.263C339.845 288.018 338.82 288.443 337.752 288.444V287.101ZM334.394 277.699H335.737V279.042H334.394V277.699ZM331.708 277.699H333.051V279.042H331.708V277.699Z" fill="white"/>
<path d="M327.081 302.312C328.684 301.451 330.024 300.171 330.957 298.609C331.89 297.047 332.382 295.26 332.38 293.441V288.874L324.321 285.154L316.262 288.874V293.441C316.26 295.26 316.752 297.047 317.685 298.609C318.618 300.171 319.958 301.451 321.561 302.312L324.321 303.796L327.081 302.312ZM322.096 301.405C320.736 300.649 319.602 299.543 318.812 298.202C318.023 296.86 317.606 295.332 317.605 293.776V289.787C317.605 289.657 317.643 289.53 317.714 289.421C317.785 289.312 317.885 289.226 318.004 289.174L324.048 286.487C324.134 286.449 324.227 286.429 324.321 286.429C324.415 286.429 324.508 286.449 324.594 286.487L330.638 289.174C330.756 289.226 330.857 289.312 330.928 289.421C330.999 289.53 331.037 289.657 331.037 289.787V293.776C331.036 295.332 330.619 296.86 329.829 298.202C329.04 299.543 327.906 300.649 326.546 301.405L324.647 302.46C324.547 302.516 324.435 302.545 324.321 302.545C324.207 302.545 324.095 302.516 323.995 302.46L322.096 301.405Z" fill="white"/>
<path d="M324.321 293.817C324.692 293.817 324.993 293.516 324.993 293.145C324.993 292.774 324.692 292.473 324.321 292.473C323.951 292.473 323.65 292.774 323.65 293.145C323.65 293.516 323.951 293.817 324.321 293.817Z" fill="white"/>
<path d="M337.949 302.35L336.131 300.532H331.561V299.189H336.409C336.587 299.189 336.758 299.26 336.884 299.386L338.899 301.401L337.949 302.35Z" fill="white"/>
<path d="M339.096 293.817H333.723V295.16H339.096V293.817Z" fill="white"/>
<path d="M310.693 302.35L309.744 301.401L311.758 299.386C311.884 299.26 312.055 299.189 312.233 299.189H317.082V300.532H312.511L310.693 302.35Z" fill="white"/>
<path d="M314.919 293.817H309.547V295.16H314.919V293.817Z" fill="white"/>
<path d="M328.547 307.723L326.532 305.708C326.406 305.582 326.335 305.411 326.335 305.233V303.346H327.679V304.958L329.496 306.776L328.547 307.723Z" fill="white"/>
<path d="M320.095 307.723L319.145 306.773L320.963 304.955V303.343H322.306V305.233C322.306 305.411 322.235 305.582 322.109 305.708L320.095 307.723Z" fill="white"/>
</g>
<defs>
<filter id="filter0_b_136_404" x="-1405.03" y="-1405.21" width="3137.13" height="3387.96" filterUnits="userSpaceOnUse" color-interpolation-filters="sRGB">
<feFlood flood-opacity="0" result="BackgroundImageFix"/>
<feGaussianBlur in="BackgroundImage" stdDeviation="702.605"/>
<feComposite in2="SourceAlpha" operator="in" result="effect1_backgroundBlur_136_404"/>
<feBlend mode="normal" in="SourceGraphic" in2="effect1_backgroundBlur_136_404" result="shape"/>
</filter>
<filter id="filter1_b_136_404" x="271.492" y="238.301" width="105.659" height="105.659" filterUnits="userSpaceOnUse" color-interpolation-filters="sRGB">
<feFlood flood-opacity="0" result="BackgroundImageFix"/>
<feGaussianBlur in="BackgroundImage" stdDeviation="9.84954"/>
<feComposite in2="SourceAlpha" operator="in" result="effect1_backgroundBlur_136_404"/>
<feBlend mode="normal" in="SourceGraphic" in2="effect1_backgroundBlur_136_404" result="shape"/>
</filter>
<linearGradient id="paint0_linear_136_404" x1="0.181152" y1="0" x2="484.072" y2="374.389" gradientUnits="userSpaceOnUse">
<stop stop-color="#525353"/>
<stop offset="1" stop-color="#534F4A"/>
</linearGradient>
<linearGradient id="paint1_linear_136_404" x1="291.191" y1="258" x2="345.843" y2="332.748" gradientUnits="userSpaceOnUse">
<stop stop-color="#525353"/>
<stop offset="1" stop-color="#534F4A"/>
</linearGradient>
<clipPath id="clip0_136_404">
<rect width="66.2605" height="66.2605" fill="white" transform="translate(291.191 258)"/>
</clipPath>
</defs>
</svg>
