<svg width="402" height="711" viewBox="0 0 402 711" fill="none" xmlns="http://www.w3.org/2000/svg">
<g opacity="0.22" filter="url(#filter0_b_135_381)">
<ellipse cx="201.084" cy="355.266" rx="200.839" ry="355.031" fill="url(#paint0_linear_135_381)"/>
<path d="M400.822 355.266C400.822 453.151 378.376 541.715 342.141 605.769C305.887 669.856 255.973 709.196 201.084 709.196C146.195 709.196 96.2819 669.856 60.0281 605.769C23.7931 541.715 1.34648 453.151 1.34648 355.266C1.34648 257.381 23.7931 168.817 60.0281 104.763C96.2819 40.6757 146.195 1.33573 201.084 1.33573C255.973 1.33573 305.887 40.6757 342.141 104.763C378.376 168.817 400.822 257.381 400.822 355.266Z" stroke="#FE9549" stroke-width="2.20174"/>
</g>
<g filter="url(#filter1_b_135_381)">
<ellipse cx="201.208" cy="345.864" rx="176.779" ry="312.499" fill="url(#paint1_linear_135_381)"/>
<path d="M377.017 345.864C377.017 432.022 357.26 509.977 325.366 566.357C293.455 622.767 249.521 657.394 201.208 657.394C152.895 657.394 108.961 622.767 77.0499 566.357C45.1557 509.977 25.3982 432.022 25.3982 345.864C25.3982 259.706 45.1557 181.752 77.0499 125.371C108.961 68.9611 152.895 34.334 201.208 34.334C249.521 34.334 293.455 68.9611 325.366 125.371C357.26 181.752 377.017 259.706 377.017 345.864Z" stroke="#FE9549" stroke-width="1.93798"/>
</g>
<path d="M328.547 286.542V285.894L316.271 280.116H316.235V282.33L318.467 283.338V289.098L316.235 290.088V292.302H316.289L328.547 286.542ZM325.145 286.218C324.353 286.488 323.723 286.758 323.075 287.046L320.123 288.378V284.04L323.075 285.372C323.741 285.66 324.353 285.93 325.145 286.218ZM321.113 300.156C321.617 301.92 322.949 303 324.677 303C326.837 303 328.475 301.272 328.475 298.842V294.036H316.235V296.142H320.897V298.014L316.235 300.912V303.306H316.289L321.113 300.156ZM322.643 296.142H326.657V298.68C326.657 299.994 325.793 300.894 324.623 300.894C323.417 300.894 322.643 300.048 322.643 298.644V296.142ZM316.001 310.885C316.001 312.973 316.847 314.629 318.287 315.817L319.637 314.485C318.593 313.675 317.909 312.487 317.909 310.921C317.909 308.437 319.853 306.745 322.373 306.745C324.947 306.745 326.801 308.473 326.801 310.993C326.801 312.487 326.297 313.567 325.469 314.449L326.909 315.547C328.151 314.197 328.709 312.793 328.709 310.939C328.709 307.231 326.045 304.585 322.373 304.585C318.845 304.585 316.001 307.105 316.001 310.885ZM316.235 317.854V319.96H321.437V325.954H316.235V328.06H328.475V325.954H323.363V319.96H328.475V317.854H316.235ZM316.235 331.196V333.302H328.475V331.196H316.235ZM328.475 344.354V335.3H326.531V338.774H316.235V340.88H326.531V344.354H328.475ZM318.089 348.437H321.563V353.351H323.363V348.437H326.621V354.035H328.475V346.331H316.235V354.197H318.089V348.437ZM316.001 362.213C316.001 364.301 316.847 365.957 318.287 367.145L319.637 365.813C318.593 365.003 317.909 363.815 317.909 362.249C317.909 359.765 319.853 358.073 322.373 358.073C324.947 358.073 326.801 359.801 326.801 362.321C326.801 363.815 326.297 364.895 325.469 365.777L326.909 366.875C328.151 365.525 328.709 364.121 328.709 362.267C328.709 358.559 326.045 355.913 322.373 355.913C318.845 355.913 316.001 358.433 316.001 362.213ZM328.475 377.084V368.03H326.531V371.504H316.235V373.61H326.531V377.084H328.475ZM316.001 383.759C316.001 386.585 317.639 388.655 320.573 388.655H328.475V386.549H320.717C318.827 386.549 317.909 385.433 317.909 383.759C317.909 382.085 318.827 380.951 320.717 380.951H328.475V378.845H320.573C317.639 378.845 316.001 380.915 316.001 383.759ZM321.113 397.697C321.617 399.461 322.949 400.541 324.677 400.541C326.837 400.541 328.475 398.813 328.475 396.383V391.577H316.235V393.683H320.897V395.555L316.235 398.453V400.847H316.289L321.113 397.697ZM322.643 393.683H326.657V396.221C326.657 397.535 325.793 398.435 324.623 398.435C323.417 398.435 322.643 397.589 322.643 396.185V393.683ZM318.089 405.003H321.563V409.917H323.363V405.003H326.621V410.601H328.475V402.897H316.235V410.763H318.089V405.003Z" fill="white"/>
<defs>
<filter id="filter0_b_135_381" x="-1727.4" y="-1727.41" width="3856.97" height="4165.35" filterUnits="userSpaceOnUse" color-interpolation-filters="sRGB">
<feFlood flood-opacity="0" result="BackgroundImageFix"/>
<feGaussianBlur in="BackgroundImage" stdDeviation="863.823"/>
<feComposite in2="SourceAlpha" operator="in" result="effect1_backgroundBlur_135_381"/>
<feBlend mode="normal" in="SourceGraphic" in2="effect1_backgroundBlur_135_381" result="shape"/>
</filter>
<filter id="filter1_b_135_381" x="-1496.25" y="-1487.31" width="3394.91" height="3666.35" filterUnits="userSpaceOnUse" color-interpolation-filters="sRGB">
<feFlood flood-opacity="0" result="BackgroundImageFix"/>
<feGaussianBlur in="BackgroundImage" stdDeviation="760.338"/>
<feComposite in2="SourceAlpha" operator="in" result="effect1_backgroundBlur_135_381"/>
<feBlend mode="normal" in="SourceGraphic" in2="effect1_backgroundBlur_135_381" result="shape"/>
</filter>
<linearGradient id="paint0_linear_135_381" x1="0.245607" y1="71.2411" x2="577.622" y2="365.197" gradientUnits="userSpaceOnUse">
<stop stop-color="#EF4D08" stop-opacity="0"/>
<stop offset="1" stop-color="#EF9714" stop-opacity="0.46"/>
</linearGradient>
<linearGradient id="paint1_linear_135_381" x1="24.4292" y1="95.8648" x2="532.637" y2="354.606" gradientUnits="userSpaceOnUse">
<stop stop-color="#2F2C26"/>
<stop offset="1" stop-color="#6F5225"/>
</linearGradient>
</defs>
</svg>
