<svg width="402" height="711" viewBox="0 0 402 711" fill="none" xmlns="http://www.w3.org/2000/svg">
<g opacity="0.22" filter="url(#filter0_b_454_16763)">
<ellipse cx="201.084" cy="355.35" rx="200.839" ry="355.031" fill="url(#paint0_linear_454_16763)"/>
<path d="M400.822 355.35C400.822 453.235 378.376 541.799 342.141 605.853C305.887 669.94 255.973 709.28 201.084 709.28C146.195 709.28 96.2819 669.94 60.0281 605.853C23.7931 541.799 1.34648 453.235 1.34648 355.35C1.34648 257.465 23.7931 168.901 60.0281 104.847C96.2819 40.7596 146.195 1.41966 201.084 1.41966C255.973 1.41966 305.887 40.7596 342.141 104.847C378.376 168.901 400.822 257.465 400.822 355.35Z" stroke="#42FFFF" stroke-width="2.20174"/>
</g>
<g filter="url(#filter1_b_454_16763)">
<ellipse cx="201.209" cy="345.948" rx="176.779" ry="312.499" fill="url(#paint1_linear_454_16763)"/>
<path d="M377.018 345.948C377.018 432.106 357.261 510.06 325.367 566.441C293.456 622.851 249.522 657.478 201.209 657.478C152.895 657.478 108.961 622.851 77.0506 566.441C45.1565 510.06 25.3989 432.106 25.3989 345.948C25.3989 259.789 45.1565 181.835 77.0506 125.455C108.961 69.045 152.895 34.4179 201.209 34.4179C249.522 34.4179 293.456 69.045 325.367 125.455C357.261 181.835 377.018 259.789 377.018 345.948Z" stroke="#42FFFF" stroke-opacity="0.62" stroke-width="1.93798"/>
</g>
<path d="M328.259 292.918V292.337L317.267 287.164H317.235V289.146L319.233 290.049V295.206L317.235 296.093V298.075H317.283L328.259 292.918ZM325.213 292.628C324.504 292.869 323.939 293.111 323.359 293.369L320.716 294.562V290.677L323.359 291.87C323.956 292.128 324.504 292.37 325.213 292.628ZM321.602 305.107C322.054 306.687 323.246 307.654 324.794 307.654C326.728 307.654 328.194 306.107 328.194 303.931V299.628H317.235V301.513H321.409V303.189L317.235 305.784V307.928H317.283L321.602 305.107ZM322.972 301.513H326.567V303.786C326.567 304.962 325.793 305.768 324.745 305.768C323.665 305.768 322.972 305.011 322.972 303.754V301.513ZM317.025 314.714C317.025 316.584 317.783 318.067 319.072 319.13L320.281 317.938C319.346 317.212 318.734 316.149 318.734 314.746C318.734 312.522 320.474 311.007 322.731 311.007C325.035 311.007 326.696 312.554 326.696 314.811C326.696 316.149 326.244 317.116 325.503 317.905L326.792 318.889C327.904 317.68 328.404 316.423 328.404 314.763C328.404 311.442 326.019 309.073 322.731 309.073C319.572 309.073 317.025 311.33 317.025 314.714ZM317.235 320.955V322.841H321.893V328.208H317.235V330.093H328.194V328.208H323.617V322.841H328.194V320.955H317.235ZM317.235 332.901V334.787H328.194V332.901H317.235ZM328.194 344.683V336.576H326.454V339.687H317.235V341.572H326.454V344.683H328.194ZM318.895 348.339H322.005V352.739H323.617V348.339H326.534V353.351H328.194V346.453H317.235V353.496H318.895V348.339ZM317.025 360.674C317.025 362.544 317.783 364.026 319.072 365.09L320.281 363.898C319.346 363.172 318.734 362.108 318.734 360.706C318.734 358.482 320.474 356.967 322.731 356.967C325.035 356.967 326.696 358.514 326.696 360.771C326.696 362.108 326.244 363.076 325.503 363.865L326.792 364.848C327.904 363.64 328.404 362.382 328.404 360.722C328.404 357.402 326.019 355.033 322.731 355.033C319.572 355.033 317.025 357.289 317.025 360.674ZM328.194 373.99V365.883H326.454V368.994H317.235V370.88H326.454V373.99H328.194ZM317.025 379.967C317.025 382.497 318.492 384.351 321.119 384.351H328.194V382.465H321.248C319.556 382.465 318.734 381.466 318.734 379.967C318.734 378.468 319.556 377.453 321.248 377.453H328.194V375.567H321.119C318.492 375.567 317.025 377.42 317.025 379.967ZM321.602 392.447C322.054 394.026 323.246 394.993 324.794 394.993C326.728 394.993 328.194 393.446 328.194 391.27V386.967H317.235V388.853H321.409V390.529L317.235 393.124V395.267H317.283L321.602 392.447ZM322.972 388.853H326.567V391.125C326.567 392.302 325.793 393.108 324.745 393.108C323.665 393.108 322.972 392.35 322.972 391.093V388.853ZM318.895 398.989H322.005V403.389H323.617V398.989H326.534V404.002H328.194V397.103H317.235V404.147H318.895V398.989Z" fill="white"/>
<defs>
<filter id="filter0_b_454_16763" x="-1727.4" y="-1727.33" width="3856.97" height="4165.35" filterUnits="userSpaceOnUse" color-interpolation-filters="sRGB">
<feFlood flood-opacity="0" result="BackgroundImageFix"/>
<feGaussianBlur in="BackgroundImage" stdDeviation="863.823"/>
<feComposite in2="SourceAlpha" operator="in" result="effect1_backgroundBlur_454_16763"/>
<feBlend mode="normal" in="SourceGraphic" in2="effect1_backgroundBlur_454_16763" result="shape"/>
</filter>
<filter id="filter1_b_454_16763" x="-1496.25" y="-1487.23" width="3394.91" height="3666.35" filterUnits="userSpaceOnUse" color-interpolation-filters="sRGB">
<feFlood flood-opacity="0" result="BackgroundImageFix"/>
<feGaussianBlur in="BackgroundImage" stdDeviation="760.338"/>
<feComposite in2="SourceAlpha" operator="in" result="effect1_backgroundBlur_454_16763"/>
<feBlend mode="normal" in="SourceGraphic" in2="effect1_backgroundBlur_454_16763" result="shape"/>
</filter>
<linearGradient id="paint0_linear_454_16763" x1="0.245607" y1="71.325" x2="577.622" y2="365.281" gradientUnits="userSpaceOnUse">
<stop stop-color="#3F79A9" stop-opacity="0"/>
<stop offset="1" stop-color="#42FFFF"/>
</linearGradient>
<linearGradient id="paint1_linear_454_16763" x1="24.4299" y1="95.9487" x2="532.637" y2="354.689" gradientUnits="userSpaceOnUse">
<stop stop-color="#3F79A9" stop-opacity="0"/>
<stop offset="1" stop-color="#42FFFF" stop-opacity="0.53"/>
</linearGradient>
</defs>
</svg>
