<svg width="550" height="755" viewBox="0 0 550 755" fill="none" xmlns="http://www.w3.org/2000/svg">
<g filter="url(#filter0_b_135_382)">
<mask id="path-1-inside-1_135_382" fill="white">
<path d="M159.362 591.671C217.254 650.276 295.772 683.2 377.644 683.2C423.24 683.2 466.968 650.276 499.209 591.671C531.45 533.066 549.563 453.581 549.563 370.701C549.563 287.821 531.45 208.336 499.209 149.731C466.968 91.1258 423.02 58.2019 377.424 58.2019C295.553 58.2019 217.254 91.1258 159.362 149.731C101.47 208.336 68.9468 287.821 68.9468 370.701C68.9468 453.581 101.47 533.066 159.362 591.671Z"/>
</mask>
<path d="M159.362 591.671C217.254 650.276 295.772 683.2 377.644 683.2C423.24 683.2 466.968 650.276 499.209 591.671C531.45 533.066 549.563 453.581 549.563 370.701C549.563 287.821 531.45 208.336 499.209 149.731C466.968 91.1258 423.02 58.2019 377.424 58.2019C295.553 58.2019 217.254 91.1258 159.362 149.731C101.47 208.336 68.9468 287.821 68.9468 370.701C68.9468 453.581 101.47 533.066 159.362 591.671Z" fill="url(#paint0_linear_135_382)"/>
<path d="M159.362 591.671L158.088 592.93L158.088 592.93L159.362 591.671ZM68.9468 370.701L67.156 370.701L68.9468 370.701ZM159.362 149.731L160.636 150.989L160.636 150.989L159.362 149.731ZM377.424 58.2019L377.424 56.4111L377.424 56.4111L377.424 58.2019ZM499.209 591.671L500.778 592.534L500.778 592.534L499.209 591.671ZM499.209 149.731L500.778 148.868L500.778 148.868L499.209 149.731ZM377.644 681.409C296.255 681.409 218.194 648.679 160.636 590.413L158.088 592.93C216.314 651.873 295.29 684.991 377.644 684.991V681.409ZM160.636 590.413C103.078 532.145 70.7376 453.113 70.7376 370.701L67.156 370.701C67.156 454.049 99.8628 533.987 158.088 592.93L160.636 590.413ZM70.7376 370.701C70.7376 288.289 103.078 209.257 160.636 150.989L158.088 148.472C99.8627 207.415 67.1559 287.353 67.156 370.701L70.7376 370.701ZM160.636 150.989C218.195 92.7215 296.036 59.9927 377.424 59.9927L377.424 56.4111C295.069 56.4111 216.313 89.53 158.088 148.472L160.636 150.989ZM377.644 684.991C424.172 684.991 468.385 651.416 500.778 592.534L497.64 590.808C465.551 649.136 422.308 681.409 377.644 681.409V684.991ZM500.778 592.534C533.196 533.609 551.354 453.811 551.354 370.701H547.772C547.772 453.35 529.705 532.524 497.64 590.808L500.778 592.534ZM551.354 370.701C551.354 287.59 533.196 207.793 500.778 148.868L497.64 150.594C529.705 208.878 547.772 288.052 547.772 370.701H551.354ZM500.778 148.868C468.383 89.9826 423.95 56.4111 377.424 56.4111L377.424 59.9927C422.09 59.9927 465.553 92.2691 497.64 150.594L500.778 148.868Z" fill="url(#paint1_linear_135_382)" mask="url(#path-1-inside-1_135_382)"/>
</g>
<g opacity="0.1" filter="url(#filter1_b_135_382)">
<path d="M237.284 6.72027e-05C292.176 7.44009e-05 336.675 43.8975 336.675 98.0478C336.675 152.198 292.176 196.095 237.284 196.095C182.392 196.095 137.893 152.198 137.893 98.0478C137.893 43.8975 182.392 6.00045e-05 237.284 6.72027e-05Z" fill="#56CCF2" fill-opacity="0.44"/>
<path d="M237.284 1.32504C291.461 1.32505 335.35 44.6462 335.35 98.0478C335.35 151.449 291.461 194.771 237.284 194.771C183.107 194.77 139.218 151.449 139.218 98.0478C139.218 44.6462 183.107 1.32503 237.284 1.32504Z" stroke="url(#paint2_linear_135_382)" stroke-width="2.64994"/>
</g>
<g filter="url(#filter2_b_135_382)">
<ellipse cx="237.027" cy="97.5068" rx="76.0274" ry="75.5068" fill="url(#paint3_linear_135_382)"/>
<path d="M312.061 97.5068C312.061 138.653 278.474 172.02 237.027 172.02C195.581 172.02 161.994 138.653 161.994 97.5068C161.994 56.3606 195.581 22.9935 237.027 22.9935C278.474 22.9935 312.061 56.3606 312.061 97.5068Z" stroke="#3F79A9" stroke-width="1.98702"/>
</g>
<g clip-path="url(#clip0_135_382)">
<path d="M217.686 70.2812H248.311C248.959 70.2812 249.483 69.757 249.483 69.1094V64.4219C249.483 63.7743 248.959 63.25 248.311 63.25H217.686C217.038 63.25 216.514 63.7743 216.514 64.4219V69.1094C216.514 69.757 217.038 70.2812 217.686 70.2812ZM227.061 65.5937C227.708 65.5937 228.233 66.1183 228.233 66.7656C228.233 67.4129 227.708 67.9375 227.061 67.9375C226.414 67.9375 225.889 67.4129 225.889 66.7656C225.889 66.1183 226.414 65.5937 227.061 65.5937ZM222.374 65.5937C223.021 65.5937 223.545 66.1183 223.545 66.7656C223.545 67.4129 223.021 67.9375 222.374 67.9375C221.726 67.9375 221.202 67.4129 221.202 66.7656C221.202 66.1183 221.726 65.5937 222.374 65.5937Z" fill="white"/>
<path d="M217.686 93.7185H240.434C240.241 92.835 240.108 91.9311 240.108 90.9948V84.3435H221.202V86.6873H217.686C217.038 86.6873 216.514 87.2115 216.514 87.8591V92.5466C216.514 93.1942 217.038 93.7185 217.686 93.7185ZM227.061 89.031C227.708 89.031 228.233 89.5556 228.233 90.2029C228.233 90.8502 227.708 91.3748 227.061 91.3748C226.414 91.3748 225.889 90.8502 225.889 90.2029C225.889 89.5556 226.414 89.031 227.061 89.031ZM222.374 89.031C223.021 89.031 223.545 89.5556 223.545 90.2029C223.545 90.8502 223.021 91.3748 222.374 91.3748C221.726 91.3748 221.202 90.8502 221.202 90.2029C221.202 89.5556 221.726 89.031 222.374 89.031Z" fill="white"/>
<path d="M217.686 82H242.231C243.078 81.6286 246.165 80.6511 248.371 79.9001C248.73 79.7811 249.104 79.7203 249.483 79.7203V76.1406C249.483 75.493 248.959 74.9688 248.311 74.9688H244.795V72.625H221.202V74.9688H217.686C217.038 74.9688 216.514 75.493 216.514 76.1406V80.8281C216.514 81.4757 217.038 82 217.686 82ZM227.061 79.6563C226.414 79.6563 225.889 79.1317 225.889 78.4844C225.889 77.8371 226.414 77.3125 227.061 77.3125C227.708 77.3125 228.233 77.8371 228.233 78.4844C228.233 79.1317 227.708 79.6563 227.061 79.6563ZM222.374 77.3125C223.021 77.3125 223.545 77.8371 223.545 78.4844C223.545 79.1317 223.021 79.6563 222.374 79.6563C221.726 79.6563 221.202 79.1317 221.202 78.4844C221.202 77.8371 221.726 77.3125 222.374 77.3125Z" fill="white"/>
<path d="M255.712 84.077L250.654 82.3906V100.75C254.229 99.0499 256.513 95.0161 256.513 90.9951V85.1885C256.513 84.6837 256.19 84.236 255.712 84.077V84.077Z" fill="white"/>
<path d="M242.451 85.1885V90.9951C242.451 95.0161 244.735 99.0499 248.311 100.75V82.3906L243.252 84.077C242.774 84.236 242.451 84.6837 242.451 85.1885Z" fill="white"/>
</g>
<path d="M203.629 127.397C207.409 127.397 210.001 124.607 210.001 121.025C210.001 117.353 207.409 114.689 203.629 114.689C199.885 114.689 197.257 117.353 197.257 121.025C197.257 124.607 199.885 127.397 203.629 127.397ZM203.629 125.489C201.073 125.489 199.417 123.491 199.417 121.025C199.417 118.469 201.073 116.597 203.629 116.597C206.203 116.597 207.841 118.469 207.841 121.025C207.841 123.491 206.203 125.489 203.629 125.489ZM220.884 114.923V121.601C220.884 122.105 220.884 122.663 220.92 123.239C220.506 122.771 220.11 122.339 219.714 121.925L213.27 114.851H212.46V127.163H214.548V120.197C214.548 119.765 214.53 119.315 214.476 118.865C214.836 119.261 215.196 119.657 215.502 119.981L222.144 127.235H222.954V114.923H220.884ZM230.284 127.163H232.39V122.699H234.946C237.664 122.699 239.086 120.863 239.086 118.865C239.086 116.849 237.628 114.923 235 114.923H230.284V127.163ZM232.39 120.881V116.759H234.766C236.134 116.759 236.98 117.695 236.98 118.847C236.98 119.891 236.278 120.881 234.73 120.881H232.39ZM247.32 122.285C249.084 121.781 250.164 120.449 250.164 118.721C250.164 116.561 248.436 114.923 246.006 114.923H241.2V127.163H243.306V122.501H245.178L248.076 127.163H250.47V127.109L247.32 122.285ZM243.306 120.755V116.741H245.844C247.158 116.741 248.058 117.605 248.058 118.775C248.058 119.981 247.212 120.755 245.808 120.755H243.306ZM254.627 125.309V121.835H259.541V120.035H254.627V116.777H260.225V114.923H252.521V127.163H260.387V125.309H254.627ZM274.055 114.833H273.425L269.717 120.503C269.447 120.917 269.177 121.349 268.943 121.781C268.691 121.349 268.421 120.917 268.151 120.503L264.443 114.833H263.813L262.013 127.163H264.083L265.037 120.521C265.091 120.089 265.163 119.693 265.199 119.243C265.433 119.657 265.685 120.035 265.937 120.413L268.709 124.661H269.159L271.949 120.413C272.219 120.035 272.471 119.639 272.687 119.261C272.705 119.657 272.759 120.071 272.831 120.503L273.785 127.163H275.855L274.055 114.833Z" fill="white"/>
<g opacity="0.1" filter="url(#filter3_b_135_382)">
<path d="M101.181 154.011C156.073 154.011 200.572 197.908 200.572 252.059C200.572 306.209 156.073 350.106 101.181 350.106C46.2893 350.106 1.79053 306.209 1.79054 252.058C1.79055 197.908 46.2893 154.011 101.181 154.011Z" fill="#56CCF2" fill-opacity="0.44"/>
<path d="M101.181 155.336C155.359 155.336 199.247 198.657 199.247 252.059C199.247 305.46 155.359 348.781 101.181 348.781C47.004 348.781 3.1155 305.46 3.11551 252.059C3.11552 198.657 47.004 155.336 101.181 155.336Z" stroke="url(#paint4_linear_135_382)" stroke-width="2.64994"/>
</g>
<g filter="url(#filter4_b_135_382)">
<ellipse cx="101.027" cy="251.507" rx="76.0274" ry="75.5068" fill="url(#paint5_linear_135_382)"/>
<path d="M176.061 251.507C176.061 292.653 142.474 326.02 101.027 326.02C59.5809 326.02 25.9935 292.653 25.9935 251.507C25.9935 210.361 59.5809 176.994 101.027 176.994C142.474 176.994 176.061 210.361 176.061 251.507Z" stroke="#3F79A9" stroke-width="1.98702"/>
</g>
<path d="M104.578 238.5C104.578 236.301 102.944 234.48 100.828 234.175V231.594C100.621 231.611 100.414 231.625 100.203 231.625C99.9914 231.625 99.7845 231.611 99.5776 231.594V234.175C97.4614 234.48 95.8276 236.301 95.8276 238.5V241.625H97.0776V238.5C97.0776 236.777 98.4795 235.375 100.203 235.375C101.926 235.375 103.328 236.777 103.328 238.5V241.625H104.578V238.5Z" fill="white"/>
<path d="M112.702 236.588V241.216C113.213 241.869 113.638 242.598 113.952 243.394V236.588C113.747 236.612 113.538 236.625 113.327 236.625C113.116 236.625 112.908 236.612 112.702 236.588Z" fill="white"/>
<path d="M86.8506 245.483C86.9181 245.281 86.995 245.084 87.0781 244.891V235.375H85.8281V245.375C86.1706 245.375 86.5125 245.411 86.8506 245.483Z" fill="white"/>
<path d="M113.953 245.375C113.919 245.375 113.886 245.378 113.853 245.38L113.24 245.409L113.121 244.905C112.321 241.501 109.322 239.125 105.828 239.125V243.5V244.125V251C105.828 252.034 104.986 252.875 103.953 252.875H96.4526C95.4189 252.875 94.5776 252.034 94.5776 251V244.125V243.5V241.667C94.3708 241.646 94.1633 241.625 93.9526 241.625C91.0626 241.625 88.5676 243.588 87.8858 246.399L87.7226 247.07L87.0708 246.841C86.6633 246.698 86.2451 246.625 85.8276 246.625C83.7595 246.625 82.0776 248.307 82.0776 250.375C82.0776 252.443 83.7595 254.125 85.8276 254.125H113.953C116.365 254.125 118.328 252.163 118.328 249.75C118.328 247.338 116.365 245.375 113.953 245.375ZM108.953 252.875H107.703V251.625H108.953V252.875ZM111.453 252.875H110.203V251.625H111.453V252.875ZM113.953 252.875H112.703V251.625H113.953C114.986 251.625 115.828 250.784 115.828 249.75H117.078C117.078 251.473 115.676 252.875 113.953 252.875Z" fill="white"/>
<path d="M96.4526 242.875C96.1076 242.875 95.8276 243.156 95.8276 243.5V251C95.8276 251.345 96.1076 251.625 96.4526 251.625H103.953C104.298 251.625 104.578 251.345 104.578 251V243.5C104.578 243.156 104.298 242.875 103.953 242.875H96.4526ZM100.828 247.077V250.375H99.5776V247.077C99.2058 246.861 98.9526 246.462 98.9526 246C98.9526 245.31 99.512 244.75 100.203 244.75C100.893 244.75 101.453 245.31 101.453 246C101.453 246.462 101.2 246.86 100.828 247.077Z" fill="white"/>
<path d="M113.328 231.625C114.018 231.625 114.578 231.066 114.578 230.375C114.578 229.685 114.018 229.125 113.328 229.125C112.637 229.125 112.078 229.685 112.078 230.375C112.078 231.066 112.637 231.625 113.328 231.625Z" fill="white"/>
<path d="M113.327 232.875C112.197 232.875 111.18 233.476 110.626 234.435C111.371 235.022 112.308 235.375 113.327 235.375C114.347 235.375 115.283 235.022 116.028 234.435C115.475 233.476 114.457 232.875 113.327 232.875Z" fill="white"/>
<path d="M111.474 232.037C111.077 231.595 110.828 231.016 110.828 230.375C110.828 228.996 111.949 227.875 113.328 227.875C114.707 227.875 115.828 228.996 115.828 230.375C115.828 231.016 115.579 231.595 115.182 232.037C115.874 232.36 116.466 232.868 116.909 233.506C117.408 232.796 117.703 231.933 117.703 231C117.703 228.588 115.74 226.625 113.328 226.625C110.916 226.625 108.953 228.588 108.953 231C108.953 231.933 109.249 232.796 109.748 233.506C110.191 232.868 110.783 232.361 111.474 232.037Z" fill="white"/>
<path d="M83.1345 231.521L82.7845 232.27L83.9333 233.418L84.6839 233.066L85.3208 233.331L85.4533 233.61L85.6408 234.125H87.2645L87.5476 233.346L88.2208 233.067L88.9714 233.418L90.1201 232.27L89.7701 231.521L90.0358 230.877L90.3126 230.75L90.8276 230.562V228.938L90.0489 228.655L89.7708 227.979L90.1208 227.23L88.972 226.082L88.2214 226.433L87.5845 226.169L87.452 225.89L87.2645 225.375H85.6408L85.3576 226.154L84.6845 226.433L83.9339 226.082L82.7851 227.23L83.1351 227.979L82.8695 228.623L82.5926 228.751L82.0776 228.938V230.563L82.8564 230.846L83.1345 231.521ZM86.4526 227.25C87.8333 227.25 88.9526 228.37 88.9526 229.75C88.9526 231.131 87.8333 232.25 86.4526 232.25C85.072 232.25 83.9526 231.131 83.9526 229.75C83.9526 228.37 85.072 227.25 86.4526 227.25Z" fill="white"/>
<path d="M95.2026 223.5H97.7026V220.375H99.5776V219.125H100.828V220.375H102.078V219.125H103.328V220.375H105.191C104.049 218.861 102.241 217.875 100.203 217.875C96.7564 217.875 93.9526 220.679 93.9526 224.125C93.9526 225.526 94.4214 226.816 95.2026 227.859V223.5Z" fill="white"/>
<path d="M105.203 220.391V227.859C105.984 226.816 106.453 225.526 106.453 224.126C106.453 222.725 105.984 221.434 105.203 220.391V220.391Z" fill="white"/>
<path d="M103.953 229.113V221.625H98.9526V223.5H101.453V230.249C102.378 230.061 103.225 229.662 103.953 229.113Z" fill="white"/>
<path d="M96.4526 229.113C97.4989 229.901 98.7951 230.375 100.203 230.375V224.75H96.4526V229.113ZM97.7026 226H98.9526V227.25H97.7026V226ZM97.7026 228.5H98.9526V229.75H97.7026V228.5Z" fill="white"/>
<path d="M68.6871 281.163H70.7931V275.961H76.7871V281.163H78.8931V268.923H76.7871V274.035H70.7931V268.923H68.6871V281.163ZM89.4629 268.923L87.2489 272.397C86.9069 272.937 86.6189 273.459 86.3309 274.089C86.0429 273.477 85.7549 272.973 85.3949 272.397L83.1989 268.923H80.8049V268.977L85.2689 275.853V281.163H87.3749V275.853L91.8389 268.977V268.923H89.4629ZM100.882 274.755C101.764 274.197 102.322 273.297 102.322 272.127C102.322 270.219 100.792 268.923 98.6495 268.923H93.7535V281.163H98.9915C101.224 281.163 102.826 279.813 102.826 277.779C102.826 276.375 102.052 275.277 100.882 274.755ZM95.8595 270.651H98.2895C99.4415 270.651 100.216 271.263 100.216 272.289C100.216 273.369 99.5495 273.999 98.3255 273.999H95.8595V270.651ZM98.6495 279.435H95.8595V275.727H98.7215C99.9095 275.727 100.702 276.447 100.702 277.563C100.702 278.715 99.8735 279.435 98.6495 279.435ZM111.317 276.285C113.081 275.781 114.161 274.449 114.161 272.721C114.161 270.561 112.433 268.923 110.003 268.923H105.197V281.163H107.303V276.501H109.175L112.073 281.163H114.467V281.109L111.317 276.285ZM107.303 274.755V270.741H109.841C111.155 270.741 112.055 271.605 112.055 272.775C112.055 273.981 111.209 274.755 109.805 274.755H107.303ZM116.517 281.163H118.623V268.923H116.517V281.163ZM121.773 281.163H126.165C129.927 281.163 132.393 278.607 132.393 275.061C132.393 271.497 129.855 268.923 126.147 268.923H121.773V281.163ZM123.879 279.345V270.741H126.057C128.631 270.741 130.251 272.577 130.251 275.061C130.251 277.545 128.667 279.345 126.075 279.345H123.879Z" fill="white"/>
<g opacity="0.1" filter="url(#filter5_b_135_382)">
<path d="M99.3908 380.551C154.283 380.551 198.782 424.448 198.782 478.598C198.782 532.749 154.283 576.646 99.3908 576.646C44.4988 576.646 5.75646e-06 532.749 1.28574e-05 478.598C1.99584e-05 424.448 44.4988 380.551 99.3908 380.551Z" fill="#56CCF2" fill-opacity="0.44"/>
<path d="M99.3908 381.876C153.568 381.876 197.457 425.197 197.457 478.598C197.457 532 153.568 575.321 99.3908 575.321C45.2135 575.321 1.32497 532 1.32498 478.598C1.32499 425.197 45.2135 381.876 99.3908 381.876Z" stroke="url(#paint6_linear_135_382)" stroke-width="2.64994"/>
</g>
<g filter="url(#filter6_b_135_382)">
<ellipse cx="99.0274" cy="478.507" rx="76.0274" ry="75.5068" fill="url(#paint7_linear_135_382)"/>
<path d="M174.061 478.507C174.061 519.653 140.474 553.02 99.0274 553.02C57.5809 553.02 23.9935 519.653 23.9935 478.507C23.9935 437.361 57.5809 403.994 99.0274 403.994C140.474 403.994 174.061 437.361 174.061 478.507Z" stroke="#3F79A9" stroke-width="1.98702"/>
</g>
<g clip-path="url(#clip1_135_382)">
<path d="M117.667 463.172H116.015C115.368 463.172 114.843 462.647 114.843 462C114.843 461.353 115.368 460.828 116.015 460.828H117.667C118.314 460.828 118.839 461.353 118.839 462C118.839 462.647 118.314 463.172 117.667 463.172Z" fill="white"/>
<path d="M111.417 463.172H109.766C109.118 463.172 108.594 462.647 108.594 462C108.594 461.353 109.118 460.828 109.766 460.828H111.417C112.065 460.828 112.589 461.353 112.589 462C112.589 462.647 112.065 463.172 111.417 463.172Z" fill="white"/>
<path d="M105.167 463.172H103.516C102.868 463.172 102.344 462.647 102.344 462C102.344 461.353 102.868 460.828 103.516 460.828H105.167C105.815 460.828 106.339 461.353 106.339 462C106.339 462.647 105.815 463.172 105.167 463.172Z" fill="white"/>
<path d="M81.7299 463.172H80.0781C79.4309 463.172 78.9062 462.647 78.9062 462C78.9062 461.353 79.4309 460.828 80.0781 460.828H81.7299C82.3771 460.828 82.9018 461.353 82.9018 462C82.9018 462.647 82.3772 463.172 81.7299 463.172Z" fill="white"/>
<path d="M87.9799 463.172H86.3281C85.6809 463.172 85.1562 462.647 85.1562 462C85.1562 461.353 85.6809 460.828 86.3281 460.828H87.9799C88.6271 460.828 89.1518 461.353 89.1518 462C89.1518 462.647 88.6272 463.172 87.9799 463.172V463.172Z" fill="white"/>
<path d="M94.2294 463.172H92.5776C91.9304 463.172 91.4058 462.647 91.4058 462C91.4058 461.353 91.9304 460.828 92.5776 460.828H94.2294C94.8766 460.828 95.4013 461.353 95.4013 462C95.4013 462.647 94.8767 463.172 94.2294 463.172Z" fill="white"/>
<path d="M100.112 466.087V457.913C100.523 458.075 100.99 457.998 101.329 457.693C101.809 457.259 101.845 456.518 101.411 456.038L99.7505 454.202C99.5284 453.957 99.2127 453.817 98.8816 453.817C98.5505 453.817 98.2348 453.957 98.0126 454.202L96.3518 456.038C95.9175 456.518 95.9545 457.259 96.4345 457.693C96.8101 458.033 97.3452 458.083 97.7684 457.859V466.141C97.3452 465.918 96.8102 465.967 96.4345 466.307C95.9546 466.741 95.9176 467.482 96.3518 467.962L98.0126 469.798C98.2348 470.043 98.5504 470.184 98.8816 470.184C99.2127 470.184 99.5284 470.043 99.7505 469.798L101.411 467.962C101.846 467.482 101.809 466.741 101.329 466.307C100.987 465.998 100.514 465.929 100.112 466.087Z" fill="white"/>
<path d="M117.71 451.474H80.0542C79.407 451.474 78.8823 450.949 78.8823 450.302V443.172C78.8823 442.525 79.407 442 80.0542 442H117.71C118.358 442 118.882 442.525 118.882 443.172V450.302C118.882 450.949 118.358 451.474 117.71 451.474Z" fill="white"/>
<path d="M117.71 482H80.0542C79.407 482 78.8823 481.476 78.8823 480.828V473.698C78.8823 473.051 79.407 472.526 80.0542 472.526H117.71C118.358 472.526 118.882 473.051 118.882 473.698V480.828C118.882 481.476 118.358 482 117.71 482Z" fill="white"/>
</g>
<path d="M53.5006 494.851H52.8526L47.0746 507.127V507.163H49.2886L50.2966 504.931H56.0566L57.0466 507.163H59.2606V507.109L53.5006 494.851ZM53.1766 498.253C53.4466 499.045 53.7166 499.675 54.0046 500.323L55.3366 503.275H50.9986L52.3306 500.323C52.6186 499.657 52.8886 499.045 53.1766 498.253ZM60.9942 507.163H63.1002V494.923H60.9942V507.163ZM72.3701 502.285C74.1341 501.781 75.2141 500.449 75.2141 498.721C75.2141 496.561 73.4861 494.923 71.0561 494.923H66.2501V507.163H68.3561V502.501H70.2281L73.1261 507.163H75.5201V507.109L72.3701 502.285ZM68.3561 500.755V496.741H70.8941C72.2081 496.741 73.1081 497.605 73.1081 498.775C73.1081 499.981 72.2621 500.755 70.8581 500.755H68.3561ZM87.0883 500.323V502.069H90.3823V504.337C89.6083 505.111 88.5643 505.525 87.3583 505.525C84.7483 505.525 82.9663 503.725 82.9663 501.043C82.9663 498.433 84.6403 496.579 87.2863 496.579C88.7083 496.579 89.7883 497.065 90.7783 498.037L91.9483 496.651C90.7423 495.445 89.1943 494.689 87.2143 494.689C83.3083 494.689 80.8243 497.479 80.8243 501.025C80.8243 504.661 83.4163 507.397 87.1783 507.397C89.3023 507.397 91.0303 506.605 92.2543 505.147V500.323H87.0883ZM99.7662 494.851H99.1182L93.3402 507.127V507.163H95.5542L96.5622 504.931H102.322L103.312 507.163H105.526V507.109L99.7662 494.851ZM99.4422 498.253C99.7122 499.045 99.9822 499.675 100.27 500.323L101.602 503.275H97.2642L98.5962 500.323C98.8842 499.657 99.1542 499.045 99.4422 498.253ZM107.26 507.163H109.366V502.699H111.922C114.64 502.699 116.062 500.863 116.062 498.865C116.062 496.849 114.604 494.923 111.976 494.923H107.26V507.163ZM109.366 500.881V496.759H111.742C113.11 496.759 113.956 497.695 113.956 498.847C113.956 499.891 113.254 500.881 111.706 500.881H109.366ZM118.176 507.163H120.282V502.699H122.838C125.556 502.699 126.978 500.863 126.978 498.865C126.978 496.849 125.52 494.923 122.892 494.923H118.176V507.163ZM120.282 500.881V496.759H122.658C124.026 496.759 124.872 497.695 124.872 498.847C124.872 499.891 124.17 500.881 122.622 500.881H120.282ZM131.198 505.309V501.835H136.112V500.035H131.198V496.777H136.796V494.923H129.092V507.163H136.958V505.309H131.198ZM139.34 507.163H143.732C147.494 507.163 149.96 504.607 149.96 501.061C149.96 497.497 147.422 494.923 143.714 494.923H139.34V507.163ZM141.446 505.345V496.741H143.624C146.198 496.741 147.818 498.577 147.818 501.061C147.818 503.545 146.234 505.345 143.642 505.345H141.446Z" fill="white"/>
<g opacity="0.1" filter="url(#filter7_b_135_382)">
<path d="M260.565 558.738C315.457 558.738 359.956 602.635 359.956 656.785C359.956 710.936 315.457 754.833 260.565 754.833C205.673 754.833 161.174 710.936 161.174 656.785C161.174 602.635 205.673 558.738 260.565 558.738Z" fill="#56CCF2" fill-opacity="0.44"/>
<path d="M260.565 560.063C314.742 560.063 358.631 603.384 358.631 656.785C358.631 710.187 314.742 753.508 260.565 753.508C206.388 753.508 162.499 710.187 162.499 656.785C162.499 603.384 206.388 560.063 260.565 560.063Z" stroke="url(#paint8_linear_135_382)" stroke-width="2.64994"/>
</g>
<g filter="url(#filter8_b_135_382)">
<ellipse cx="260.027" cy="656.507" rx="76.0274" ry="75.5068" fill="url(#paint9_linear_135_382)"/>
<path d="M335.061 656.507C335.061 697.653 301.474 731.02 260.027 731.02C218.581 731.02 184.994 697.653 184.994 656.507C184.994 615.361 218.581 581.994 260.027 581.994C301.474 581.994 335.061 615.361 335.061 656.507Z" stroke="#3F79A9" stroke-width="1.98702"/>
</g>
<g clip-path="url(#clip2_135_382)">
<path d="M275.811 648.966V642.069H264.777V638.621H263.397V643.449H274.432V648.966H275.811Z" fill="white"/>
<path d="M244.777 637.242H275.122C277.784 637.242 279.949 635.076 279.949 632.414C279.949 629.752 277.784 627.587 275.122 627.587H273.053V626.897C273.053 623.094 269.959 620.001 266.156 620.001C263.917 620.001 261.809 621.099 260.515 622.938L259.951 623.741L259.387 622.938C258.094 621.099 255.984 620.001 253.743 620.001C249.94 620.001 246.846 623.094 246.846 626.897L246.822 627.962L245.982 627.745C245.571 627.639 245.169 627.587 244.775 627.587C244.255 627.587 243.746 627.679 243.238 627.865C241.211 628.606 239.921 630.42 239.95 632.485C239.988 635.108 242.153 637.242 244.777 637.242V637.242ZM262.018 630.345H263.398V631.725H262.018V630.345ZM259.26 630.345H260.639V631.725H259.26V630.345ZM256.501 630.345H257.881V631.725H256.501V630.345ZM264.777 633.104V630.345H266.156V634.483H250.984V633.104H264.777ZM253.743 621.38V622.759C251.461 622.759 249.605 624.615 249.605 626.897H248.225C248.225 623.855 250.701 621.38 253.743 621.38Z" fill="white"/>
<path d="M244.087 642.069V648.966H245.466V643.449H256.501V638.621H255.121V642.069H244.087Z" fill="white"/>
<path d="M255.122 660H264.777V655.862H255.122V660ZM261.329 657.242H262.708V658.621H261.329V657.242ZM257.191 657.242H258.57V658.621H257.191V657.242Z" fill="white"/>
<path d="M255.122 654.483H264.777V650.345H255.122V654.483ZM261.329 651.725H262.708V653.104H261.329V651.725ZM257.191 651.725H258.57V653.104H257.191V651.725Z" fill="white"/>
<path d="M239.95 660H249.605V655.862H239.95V660ZM246.157 657.242H247.536V658.621H246.157V657.242ZM242.019 657.242H243.398V658.621H242.019V657.242Z" fill="white"/>
<path d="M239.95 654.483H249.605V650.345H239.95V654.483ZM246.157 651.725H247.536V653.104H246.157V651.725ZM242.019 651.725H243.398V653.104H242.019V651.725Z" fill="white"/>
<path d="M259.26 638.621H260.639V648.966H259.26V638.621Z" fill="white"/>
<path d="M270.294 654.483H279.949V650.345H270.294V654.483ZM276.501 651.725H277.88V653.104H276.501V651.725ZM272.363 651.725H273.742V653.104H272.363V651.725Z" fill="white"/>
<path d="M270.294 660H279.949V655.862H270.294V660ZM276.501 657.242H277.88V658.621H276.501V657.242ZM272.363 657.242H273.742V658.621H272.363V657.242Z" fill="white"/>
</g>
<path d="M236.344 685.397C238.432 685.397 240.088 684.551 241.276 683.111L239.944 681.761C239.134 682.805 237.946 683.489 236.38 683.489C233.896 683.489 232.204 681.545 232.204 679.025C232.204 676.451 233.932 674.597 236.452 674.597C237.946 674.597 239.026 675.101 239.908 675.929L241.006 674.489C239.656 673.247 238.252 672.689 236.398 672.689C232.69 672.689 230.044 675.353 230.044 679.025C230.044 682.553 232.564 685.397 236.344 685.397ZM243.313 685.163H250.765V683.219H245.419V672.923H243.313V685.163ZM257.896 685.397C261.676 685.397 264.268 682.607 264.268 679.025C264.268 675.353 261.676 672.689 257.896 672.689C254.152 672.689 251.524 675.353 251.524 679.025C251.524 682.607 254.152 685.397 257.896 685.397ZM257.896 683.489C255.34 683.489 253.684 681.491 253.684 679.025C253.684 676.469 255.34 674.597 257.896 674.597C260.47 674.597 262.108 676.469 262.108 679.025C262.108 681.491 260.47 683.489 257.896 683.489ZM271.425 685.397C274.251 685.397 276.321 683.759 276.321 680.825V672.923H274.215V680.681C274.215 682.571 273.099 683.489 271.425 683.489C269.751 683.489 268.617 682.571 268.617 680.681V672.923H266.511V680.825C266.511 683.759 268.581 685.397 271.425 685.397ZM279.243 685.163H283.635C287.397 685.163 289.863 682.607 289.863 679.061C289.863 675.497 287.325 672.923 283.617 672.923H279.243V685.163ZM281.349 683.345V674.741H283.527C286.101 674.741 287.721 676.577 287.721 679.061C287.721 681.545 286.137 683.345 283.545 683.345H281.349Z" fill="white"/>
<path d="M249.898 376H254.29C258.052 376 260.518 373.444 260.518 369.898C260.518 366.334 257.98 363.76 254.272 363.76H249.898V376ZM252.004 374.182V365.578H254.182C256.756 365.578 258.376 367.414 258.376 369.898C258.376 372.382 256.792 374.182 254.2 374.182H252.004ZM265.082 374.146V370.672H269.996V368.872H265.082V365.614H270.68V363.76H262.976V376H270.842V374.146H265.082ZM273.224 376H275.33V371.536H277.886C280.604 371.536 282.026 369.7 282.026 367.702C282.026 365.686 280.568 363.76 277.94 363.76H273.224V376ZM275.33 369.718V365.596H277.706C279.074 365.596 279.92 366.532 279.92 367.684C279.92 368.728 279.218 369.718 277.67 369.718H275.33ZM284.14 376H291.592V374.056H286.246V363.76H284.14V376ZM298.723 376.234C302.503 376.234 305.095 373.444 305.095 369.862C305.095 366.19 302.503 363.526 298.723 363.526C294.979 363.526 292.351 366.19 292.351 369.862C292.351 373.444 294.979 376.234 298.723 376.234ZM298.723 374.326C296.167 374.326 294.511 372.328 294.511 369.862C294.511 367.306 296.167 365.434 298.723 365.434C301.297 365.434 302.935 367.306 302.935 369.862C302.935 372.328 301.297 374.326 298.723 374.326ZM314.074 363.76L311.86 367.234C311.518 367.774 311.23 368.296 310.942 368.926C310.654 368.314 310.366 367.81 310.006 367.234L307.81 363.76H305.416V363.814L309.88 370.69V376H311.986V370.69L316.45 363.814V363.76H314.074ZM328.895 363.67H328.265L324.557 369.34C324.287 369.754 324.017 370.186 323.783 370.618C323.531 370.186 323.261 369.754 322.991 369.34L319.283 363.67H318.653L316.853 376H318.923L319.877 369.358C319.931 368.926 320.003 368.53 320.039 368.08C320.273 368.494 320.525 368.872 320.777 369.25L323.549 373.498H323.999L326.789 369.25C327.059 368.872 327.311 368.476 327.527 368.098C327.545 368.494 327.599 368.908 327.671 369.34L328.625 376H330.695L328.895 363.67ZM335.184 374.146V370.672H340.098V368.872H335.184V365.614H340.782V363.76H333.078V376H340.944V374.146H335.184ZM351.75 363.76V370.438C351.75 370.942 351.75 371.5 351.786 372.076C351.372 371.608 350.976 371.176 350.58 370.762L344.136 363.688H343.326V376H345.414V369.034C345.414 368.602 345.396 368.152 345.342 367.702C345.702 368.098 346.062 368.494 346.368 368.818L353.01 376.072H353.82V363.76H351.75ZM364.868 363.76H355.814V365.704H359.288V376H361.394V365.704H364.868V363.76ZM375.874 376.234C379.654 376.234 382.246 373.444 382.246 369.862C382.246 366.19 379.654 363.526 375.874 363.526C372.13 363.526 369.502 366.19 369.502 369.862C369.502 373.444 372.13 376.234 375.874 376.234ZM375.874 374.326C373.318 374.326 371.662 372.328 371.662 369.862C371.662 367.306 373.318 365.434 375.874 365.434C378.448 365.434 380.086 367.306 380.086 369.862C380.086 372.328 378.448 374.326 375.874 374.326ZM384.705 376H386.811V371.536H389.367C392.085 371.536 393.507 369.7 393.507 367.702C393.507 365.686 392.049 363.76 389.421 363.76H384.705V376ZM386.811 369.718V365.596H389.187C390.555 365.596 391.401 366.532 391.401 367.684C391.401 368.728 390.699 369.718 389.151 369.718H386.811ZM403.47 363.76H394.416V365.704H397.89V376H399.996V365.704H403.47V363.76ZM405.447 376H407.553V363.76H405.447V376ZM416.409 376.234C420.189 376.234 422.781 373.444 422.781 369.862C422.781 366.19 420.189 363.526 416.409 363.526C412.665 363.526 410.037 366.19 410.037 369.862C410.037 373.444 412.665 376.234 416.409 376.234ZM416.409 374.326C413.853 374.326 412.197 372.328 412.197 369.862C412.197 367.306 413.853 365.434 416.409 365.434C418.983 365.434 420.621 367.306 420.621 369.862C420.621 372.328 418.983 374.326 416.409 374.326ZM433.664 363.76V370.438C433.664 370.942 433.664 371.5 433.7 372.076C433.286 371.608 432.89 371.176 432.494 370.762L426.05 363.688H425.24V376H427.328V369.034C427.328 368.602 427.31 368.152 427.256 367.702C427.616 368.098 427.976 368.494 428.282 368.818L434.924 376.072H435.734V363.76H433.664ZM442.606 376.234C445.036 376.234 446.944 374.884 446.944 372.598C446.944 370.51 445.288 369.484 443.182 368.782C441.904 368.35 440.662 367.882 440.662 366.784C440.662 365.848 441.616 365.38 442.714 365.38C443.722 365.38 444.622 365.668 445.666 366.334L446.566 364.768C445.234 363.868 444.028 363.526 442.606 363.526C440.392 363.526 438.52 364.732 438.52 366.874C438.52 368.818 440.122 369.934 442.174 370.6C443.56 371.05 444.82 371.536 444.82 372.706C444.82 373.786 443.758 374.362 442.534 374.362C441.256 374.362 440.032 373.894 439.114 373.102L438.124 374.74C439.33 375.694 440.932 376.234 442.606 376.234Z" fill="white"/>
<defs>
<filter id="filter0_b_135_382" x="-7.08705" y="-17.8319" width="632.684" height="777.066" filterUnits="userSpaceOnUse" color-interpolation-filters="sRGB">
<feFlood flood-opacity="0" result="BackgroundImageFix"/>
<feGaussianBlur in="BackgroundImage" stdDeviation="38.0169"/>
<feComposite in2="SourceAlpha" operator="in" result="effect1_backgroundBlur_135_382"/>
<feBlend mode="normal" in="SourceGraphic" in2="effect1_backgroundBlur_135_382" result="shape"/>
</filter>
<filter id="filter1_b_135_382" x="124.643" y="-13.2497" width="225.281" height="222.595" filterUnits="userSpaceOnUse" color-interpolation-filters="sRGB">
<feFlood flood-opacity="0" result="BackgroundImageFix"/>
<feGaussianBlur in="BackgroundImage" stdDeviation="6.62484"/>
<feComposite in2="SourceAlpha" operator="in" result="effect1_backgroundBlur_135_382"/>
<feBlend mode="normal" in="SourceGraphic" in2="effect1_backgroundBlur_135_382" result="shape"/>
</filter>
<filter id="filter2_b_135_382" x="141.301" y="2.30092" width="191.453" height="190.412" filterUnits="userSpaceOnUse" color-interpolation-filters="sRGB">
<feFlood flood-opacity="0" result="BackgroundImageFix"/>
<feGaussianBlur in="BackgroundImage" stdDeviation="9.84954"/>
<feComposite in2="SourceAlpha" operator="in" result="effect1_backgroundBlur_135_382"/>
<feBlend mode="normal" in="SourceGraphic" in2="effect1_backgroundBlur_135_382" result="shape"/>
</filter>
<filter id="filter3_b_135_382" x="-11.4592" y="140.761" width="225.281" height="222.595" filterUnits="userSpaceOnUse" color-interpolation-filters="sRGB">
<feFlood flood-opacity="0" result="BackgroundImageFix"/>
<feGaussianBlur in="BackgroundImage" stdDeviation="6.62484"/>
<feComposite in2="SourceAlpha" operator="in" result="effect1_backgroundBlur_135_382"/>
<feBlend mode="normal" in="SourceGraphic" in2="effect1_backgroundBlur_135_382" result="shape"/>
</filter>
<filter id="filter4_b_135_382" x="5.30092" y="156.301" width="191.453" height="190.412" filterUnits="userSpaceOnUse" color-interpolation-filters="sRGB">
<feFlood flood-opacity="0" result="BackgroundImageFix"/>
<feGaussianBlur in="BackgroundImage" stdDeviation="9.84954"/>
<feComposite in2="SourceAlpha" operator="in" result="effect1_backgroundBlur_135_382"/>
<feBlend mode="normal" in="SourceGraphic" in2="effect1_backgroundBlur_135_382" result="shape"/>
</filter>
<filter id="filter5_b_135_382" x="-13.2497" y="367.301" width="225.281" height="222.595" filterUnits="userSpaceOnUse" color-interpolation-filters="sRGB">
<feFlood flood-opacity="0" result="BackgroundImageFix"/>
<feGaussianBlur in="BackgroundImage" stdDeviation="6.62484"/>
<feComposite in2="SourceAlpha" operator="in" result="effect1_backgroundBlur_135_382"/>
<feBlend mode="normal" in="SourceGraphic" in2="effect1_backgroundBlur_135_382" result="shape"/>
</filter>
<filter id="filter6_b_135_382" x="3.30092" y="383.301" width="191.453" height="190.412" filterUnits="userSpaceOnUse" color-interpolation-filters="sRGB">
<feFlood flood-opacity="0" result="BackgroundImageFix"/>
<feGaussianBlur in="BackgroundImage" stdDeviation="9.84954"/>
<feComposite in2="SourceAlpha" operator="in" result="effect1_backgroundBlur_135_382"/>
<feBlend mode="normal" in="SourceGraphic" in2="effect1_backgroundBlur_135_382" result="shape"/>
</filter>
<filter id="filter7_b_135_382" x="147.925" y="545.488" width="225.281" height="222.595" filterUnits="userSpaceOnUse" color-interpolation-filters="sRGB">
<feFlood flood-opacity="0" result="BackgroundImageFix"/>
<feGaussianBlur in="BackgroundImage" stdDeviation="6.62484"/>
<feComposite in2="SourceAlpha" operator="in" result="effect1_backgroundBlur_135_382"/>
<feBlend mode="normal" in="SourceGraphic" in2="effect1_backgroundBlur_135_382" result="shape"/>
</filter>
<filter id="filter8_b_135_382" x="164.301" y="561.301" width="191.453" height="190.412" filterUnits="userSpaceOnUse" color-interpolation-filters="sRGB">
<feFlood flood-opacity="0" result="BackgroundImageFix"/>
<feGaussianBlur in="BackgroundImage" stdDeviation="9.84954"/>
<feComposite in2="SourceAlpha" operator="in" result="effect1_backgroundBlur_135_382"/>
<feBlend mode="normal" in="SourceGraphic" in2="effect1_backgroundBlur_135_382" result="shape"/>
</filter>
<linearGradient id="paint0_linear_135_382" x1="68.9468" y1="120.702" x2="657.13" y2="527.777" gradientUnits="userSpaceOnUse">
<stop stop-color="#254356"/>
<stop offset="1" stop-color="#192F34"/>
</linearGradient>
<linearGradient id="paint1_linear_135_382" x1="309.255" y1="58.2019" x2="309.255" y2="683.2" gradientUnits="userSpaceOnUse">
<stop stop-color="#4CD4FF"/>
<stop offset="1" stop-color="#42FFFF"/>
</linearGradient>
<linearGradient id="paint2_linear_135_382" x1="238.148" y1="-15.3466" x2="238.148" y2="196.095" gradientUnits="userSpaceOnUse">
<stop stop-color="#42DDFF"/>
<stop offset="1" stop-color="#4CD4FF" stop-opacity="0.24"/>
</linearGradient>
<linearGradient id="paint3_linear_135_382" x1="161" y1="37.1014" x2="312.119" y2="174.046" gradientUnits="userSpaceOnUse">
<stop stop-color="#2C556F"/>
<stop offset="1" stop-color="#1C323A"/>
</linearGradient>
<linearGradient id="paint4_linear_135_382" x1="102.046" y1="138.664" x2="102.046" y2="350.106" gradientUnits="userSpaceOnUse">
<stop stop-color="#42DDFF"/>
<stop offset="1" stop-color="#4CD4FF" stop-opacity="0.24"/>
</linearGradient>
<linearGradient id="paint5_linear_135_382" x1="25" y1="191.101" x2="176.119" y2="328.046" gradientUnits="userSpaceOnUse">
<stop stop-color="#2C556F"/>
<stop offset="1" stop-color="#1C323A"/>
</linearGradient>
<linearGradient id="paint6_linear_135_382" x1="100.255" y1="365.204" x2="100.255" y2="576.646" gradientUnits="userSpaceOnUse">
<stop stop-color="#42DDFF"/>
<stop offset="1" stop-color="#4CD4FF" stop-opacity="0.24"/>
</linearGradient>
<linearGradient id="paint7_linear_135_382" x1="23" y1="418.101" x2="174.119" y2="555.046" gradientUnits="userSpaceOnUse">
<stop stop-color="#2C556F"/>
<stop offset="1" stop-color="#1C323A"/>
</linearGradient>
<linearGradient id="paint8_linear_135_382" x1="261.429" y1="543.391" x2="261.429" y2="754.833" gradientUnits="userSpaceOnUse">
<stop stop-color="#42DDFF"/>
<stop offset="1" stop-color="#4CD4FF" stop-opacity="0.24"/>
</linearGradient>
<linearGradient id="paint9_linear_135_382" x1="184" y1="596.101" x2="335.119" y2="733.046" gradientUnits="userSpaceOnUse">
<stop stop-color="#2C556F"/>
<stop offset="1" stop-color="#1C323A"/>
</linearGradient>
<clipPath id="clip0_135_382">
<rect width="40" height="40" fill="white" transform="translate(216.514 62)"/>
</clipPath>
<clipPath id="clip1_135_382">
<rect width="40" height="40" fill="white" transform="translate(78.8823 442)"/>
</clipPath>
<clipPath id="clip2_135_382">
<rect width="40" height="40" fill="white" transform="translate(239.949 620)"/>
</clipPath>
</defs>
</svg>
