<svg width="74" height="74" viewBox="0 0 74 74" fill="none" xmlns="http://www.w3.org/2000/svg">
<g filter="url(#filter0_b_95_7848)">
<circle cx="37" cy="37" r="37" fill="url(#paint0_linear_95_7848)"/>
<circle cx="37" cy="37" r="36" stroke="white" stroke-width="2"/>
</g>
<path d="M57.25 42.25C58.0784 42.25 58.75 41.5784 58.75 40.75C58.75 39.9216 58.0784 39.25 57.25 39.25C56.4216 39.25 55.75 39.9216 55.75 40.75C55.75 41.5784 56.4216 42.25 57.25 42.25Z" fill="white"/>
<path d="M55 52.75C55.8284 52.75 56.5 52.0784 56.5 51.25C56.5 50.4216 55.8284 49.75 55 49.75C54.1716 49.75 53.5 50.4216 53.5 51.25C53.5 52.0784 54.1716 52.75 55 52.75Z" fill="white"/>
<path d="M44.5 58.75C45.3284 58.75 46 58.0784 46 57.25C46 56.4216 45.3284 55.75 44.5 55.75C43.6716 55.75 43 56.4216 43 57.25C43 58.0784 43.6716 58.75 44.5 58.75Z" fill="white"/>
<path d="M29.5 58.75C30.3284 58.75 31 58.0784 31 57.25C31 56.4216 30.3284 55.75 29.5 55.75C28.6716 55.75 28 56.4216 28 57.25C28 58.0784 28.6716 58.75 29.5 58.75Z" fill="white"/>
<path d="M19 52.75C19.8284 52.75 20.5 52.0784 20.5 51.25C20.5 50.4216 19.8284 49.75 19 49.75C18.1716 49.75 17.5 50.4216 17.5 51.25C17.5 52.0784 18.1716 52.75 19 52.75Z" fill="white"/>
<path d="M16.75 42.25C17.5784 42.25 18.25 41.5784 18.25 40.75C18.25 39.9216 17.5784 39.25 16.75 39.25C15.9216 39.25 15.25 39.9216 15.25 40.75C15.25 41.5784 15.9216 42.25 16.75 42.25Z" fill="white"/>
<path d="M38.7572 47.166C40.0429 46.4509 41.1141 45.4053 41.8601 44.1373C42.606 42.8694 42.9996 41.4251 43 39.954V35.9865L37 33.3247L31 35.9902V39.9577C31.0004 41.4288 31.394 42.8731 32.1399 44.1411C32.8859 45.4091 33.9571 46.4547 35.2427 47.1697L37 48.1417L38.7572 47.166ZM34.75 39.2497C34.7483 38.8368 34.8602 38.4314 35.0736 38.0779C35.2869 37.7244 35.5934 37.4364 35.9595 37.2455C36.3255 37.0545 36.7371 36.968 37.1491 36.9953C37.5611 37.0227 37.9576 37.1629 38.2952 37.4006C38.6328 37.6383 38.8985 37.9643 39.0632 38.3429C39.2279 38.7215 39.2853 39.1382 39.229 39.5472C39.1727 39.9562 39.0049 40.3419 38.744 40.6619C38.4832 40.982 38.1393 41.2241 37.75 41.3617V44.4997H36.25V41.3617C35.8128 41.2071 35.4341 40.9213 35.1656 40.5432C34.8971 40.1652 34.7519 39.7134 34.75 39.2497Z" fill="white"/>
<path d="M20.5 35.4998H26.5V33.9998C26.5011 33.8566 26.5425 33.7167 26.6194 33.596C26.6963 33.4753 26.8057 33.3787 26.935 33.3173L36.685 28.8173C36.7841 28.7728 36.8914 28.7498 37 28.7498C37.1086 28.7498 37.2159 28.7728 37.315 28.8173L47.065 33.3173C47.1943 33.3787 47.3037 33.4753 47.3806 33.596C47.4575 33.7167 47.4989 33.8566 47.5 33.9998V35.4998H52C53.5913 35.4998 55.1174 34.8676 56.2426 33.7424C57.3679 32.6172 58 31.0911 58 29.4998C58 27.9085 57.3679 26.3823 56.2426 25.2571C55.1174 24.1319 53.5913 23.4998 52 23.4998C51.8011 23.4998 51.6103 23.4207 51.4697 23.2801C51.329 23.1394 51.25 22.9487 51.25 22.7498C51.25 21.7552 50.8549 20.8014 50.1516 20.0981C49.4484 19.3949 48.4946 18.9998 47.5 18.9998C46.9986 18.9985 46.5022 19.0988 46.0407 19.2948C45.5793 19.4907 45.1623 19.7782 44.815 20.1398C44.7323 20.2243 44.6307 20.2881 44.5186 20.3259C44.4065 20.3637 44.287 20.3744 44.17 20.3573C44.053 20.3415 43.9415 20.2978 43.8449 20.23C43.7483 20.1621 43.6695 20.072 43.615 19.9673C42.8665 18.5636 41.6907 17.4345 40.2578 16.7435C38.825 16.0525 37.2094 15.8353 35.6449 16.1235C34.0805 16.4117 32.6483 17.1902 31.5557 18.3464C30.4631 19.5026 29.7668 20.9765 29.5675 22.5548C29.5503 22.6914 29.4957 22.8207 29.4098 22.9284C29.324 23.0361 29.2101 23.1181 29.0807 23.1654C28.9513 23.2126 28.8114 23.2233 28.6764 23.1963C28.5413 23.1693 28.4163 23.1056 28.315 23.0123C27.7813 22.5119 27.1129 22.1785 26.3922 22.0532C25.6714 21.9279 24.9297 22.0162 24.2585 22.3072C23.5873 22.5982 23.0158 23.0791 22.6145 23.6908C22.2132 24.3025 21.9996 25.0182 22 25.7498C21.9995 25.8624 21.976 25.9737 21.9308 26.0769C21.8857 26.1801 21.8199 26.273 21.7375 26.3498C21.6574 26.4238 21.5625 26.4802 21.4591 26.515C21.3557 26.5499 21.2461 26.5626 21.1375 26.5523C20.9269 26.5168 20.7136 26.4992 20.5 26.4998C19.3065 26.4998 18.1619 26.9739 17.318 27.8178C16.4741 28.6617 16 29.8063 16 30.9998C16 32.1932 16.4741 33.3378 17.318 34.1817C18.1619 35.0257 19.3065 35.4998 20.5 35.4998ZM52 32.4998C52.7957 32.4998 53.5587 32.1837 54.1213 31.6211C54.6839 31.0585 55 30.2954 55 29.4998H56.5C56.4988 30.6929 56.0243 31.8368 55.1807 32.6804C54.337 33.5241 53.1931 33.9986 52 33.9998V32.4998ZM48.25 21.9998H49.75V23.4998H48.25V21.9998ZM45.25 21.9998H46.75V23.4998H45.25V21.9998Z" fill="white"/>
<path d="M40.0825 49.4872C41.873 48.5257 43.369 47.0964 44.4111 45.3516C45.4532 43.6068 46.0023 41.612 46 39.5797V34.4797L37 30.3247L28 34.4797V39.5797C27.9977 41.612 28.5469 43.6068 29.589 45.3516C30.6311 47.0964 32.1271 48.5257 33.9175 49.4872L37 51.1447L40.0825 49.4872ZM34.5153 48.4747C32.9959 47.6301 31.7298 46.3949 30.8481 44.8968C29.9663 43.3988 29.5009 41.6923 29.5 39.954V35.4997C29.5 35.3546 29.5421 35.2126 29.6211 35.0909C29.7002 34.9692 29.8129 34.8731 29.9455 34.8142L36.6955 31.8142C36.7914 31.7716 36.8951 31.7496 37 31.7496C37.1049 31.7496 37.2086 31.7716 37.3045 31.8142L44.0545 34.8142C44.1871 34.8731 44.2998 34.9692 44.3789 35.0909C44.458 35.2126 44.5 35.3546 44.5 35.4997V39.954C44.4991 41.6923 44.0337 43.3988 43.1519 44.8968C42.2702 46.3949 41.0041 47.6301 39.4848 48.4747L37.3638 49.653C37.2525 49.7147 37.1273 49.7471 37 49.7471C36.8727 49.7471 36.7476 49.7147 36.6363 49.653L34.5153 48.4747Z" fill="white"/>
<path d="M37 40C37.4142 40 37.75 39.6642 37.75 39.25C37.75 38.8358 37.4142 38.5 37 38.5C36.5858 38.5 36.25 38.8358 36.25 39.25C36.25 39.6642 36.5858 40 37 40Z" fill="white"/>
<path d="M52.2197 49.5303L50.1895 47.5H45.085V46H50.5C50.6989 46 50.8896 46.0791 51.0302 46.2197L53.2802 48.4697L52.2197 49.5303Z" fill="white"/>
<path d="M53.5 40H47.5V41.5H53.5V40Z" fill="white"/>
<path d="M21.7802 49.5303L20.7197 48.4697L22.9697 46.2197C23.1103 46.0791 23.3011 46 23.5 46H28.915V47.5H23.8105L21.7802 49.5303Z" fill="white"/>
<path d="M26.5 40H20.5V41.5H26.5V40Z" fill="white"/>
<path d="M41.7197 55.5298L39.4697 53.2798C39.3291 53.1392 39.25 52.9485 39.25 52.7496V50.6421H40.75V52.4421L42.7803 54.4723L41.7197 55.5298Z" fill="white"/>
<path d="M32.2802 55.5299L31.2197 54.4694L33.25 52.4392V50.6392H34.75V52.7497C34.7499 52.9486 34.6709 53.1393 34.5302 53.2799L32.2802 55.5299Z" fill="white"/>
<defs>
<filter id="filter0_b_95_7848" x="-22" y="-22" width="118" height="118" filterUnits="userSpaceOnUse" color-interpolation-filters="sRGB">
<feFlood flood-opacity="0" result="BackgroundImageFix"/>
<feGaussianBlur in="BackgroundImage" stdDeviation="11"/>
<feComposite in2="SourceAlpha" operator="in" result="effect1_backgroundBlur_95_7848"/>
<feBlend mode="normal" in="SourceGraphic" in2="effect1_backgroundBlur_95_7848" result="shape"/>
</filter>
<linearGradient id="paint0_linear_95_7848" x1="0" y1="0" x2="61.0355" y2="83.4789" gradientUnits="userSpaceOnUse">
<stop stop-color="white" stop-opacity="0.14"/>
<stop offset="1" stop-color="white" stop-opacity="0.06"/>
</linearGradient>
</defs>
</svg>
