<svg width="74" height="75" viewBox="0 0 74 75" fill="none" xmlns="http://www.w3.org/2000/svg">
<g clip-path="url(#clip0_95_7757)">
<g filter="url(#filter0_b_95_7757)">
<circle cx="37" cy="37.5" r="37" fill="url(#paint0_linear_95_7757)"/>
<circle cx="37" cy="37.5" r="36" stroke="white" stroke-width="2"/>
</g>
<path d="M46 27.75C47.2426 27.75 48.25 26.7426 48.25 25.5C48.25 24.2574 47.2426 23.25 46 23.25C44.7574 23.25 43.75 24.2574 43.75 25.5C43.75 26.7426 44.7574 27.75 46 27.75Z" fill="white"/>
<path d="M44.5 51.645L43.3 52.845C43.218 52.9272 43.1178 52.9889 43.0075 53.025L41.2525 53.61C41.0975 53.6605 40.9355 53.6858 40.7725 53.685C40.5383 53.6861 40.3071 53.6318 40.0978 53.5266C39.8886 53.4214 39.7071 53.2683 39.5682 53.0797C39.4293 52.8911 39.3369 52.6723 39.2986 52.4413C39.2602 52.2102 39.277 51.9734 39.3475 51.75H28V50.25H39.8425L39.94 49.9575C39.976 49.8449 40.0376 49.7423 40.12 49.6575L44.5 45.285V35.8575C44.2805 35.7534 44.089 35.5984 43.9416 35.4053C43.7942 35.2122 43.6951 34.9867 43.6525 34.7475L43.555 34.155C42.8744 33.9657 42.2195 33.6936 41.605 33.345L41.1175 33.6975C40.8296 33.905 40.4768 34.0024 40.1232 33.9722C39.7696 33.9419 39.4385 33.7859 39.19 33.5325L37.9675 32.31C37.7141 32.0615 37.5581 31.7304 37.5278 31.3768C37.4976 31.0232 37.595 30.6704 37.8025 30.3825L38.155 29.895C37.8071 29.2792 37.5327 28.6248 37.3375 27.945L36.7525 27.8475C36.5133 27.8049 36.2878 27.7058 36.0947 27.5584C35.9016 27.411 35.7466 27.2195 35.6425 27H29.5C29.5012 27.3975 29.6596 27.7783 29.9407 28.0593C30.2217 28.3404 30.6025 28.4988 31 28.5V30C30.2044 30 29.4413 29.6839 28.8787 29.1213C28.3161 28.5587 28 27.7956 28 27H22C22.0012 27.3975 22.1596 27.7783 22.4407 28.0593C22.7217 28.3404 23.1025 28.4988 23.5 28.5V30C22.7044 30 21.9413 29.6839 21.3787 29.1213C20.8161 28.5587 20.5 27.7956 20.5 27H19V58.5H44.5V51.645ZM28 32.25H37V33.75H28V32.25ZM28 35.25H40V36.75H28V35.25ZM28 39.75H37V41.25H28V39.75ZM28 42.75H40V44.25H28V42.75ZM28 47.25H37V48.75H28V47.25ZM20.5 33C20.5 32.6022 20.658 32.2206 20.9393 31.9393C21.2206 31.658 21.6022 31.5 22 31.5H23.464V33H22V36H25V34.5H26.5V36C26.5 36.3978 26.342 36.7794 26.0607 37.0607C25.7794 37.342 25.3978 37.5 25 37.5H22C21.6022 37.5 21.2206 37.342 20.9393 37.0607C20.658 36.7794 20.5 36.3978 20.5 36V33ZM20.5 40.5C20.5 40.1022 20.658 39.7206 20.9393 39.4393C21.2206 39.158 21.6022 39 22 39H23.464V40.5H22V43.5H25V42H26.5V43.5C26.5 43.8978 26.342 44.2794 26.0607 44.5607C25.7794 44.842 25.3978 45 25 45H22C21.6022 45 21.2206 44.842 20.9393 44.5607C20.658 44.2794 20.5 43.8978 20.5 43.5V40.5ZM26.5 51C26.5 51.3978 26.342 51.7794 26.0607 52.0607C25.7794 52.342 25.3978 52.5 25 52.5H22C21.6022 52.5 21.2206 52.342 20.9393 52.0607C20.658 51.7794 20.5 51.3978 20.5 51V48C20.5 47.6022 20.658 47.2206 20.9393 46.9393C21.2206 46.658 21.6022 46.5 22 46.5H23.464V48H22V51H25V49.5H26.5V51ZM24.0302 50.0303L22.9698 48.9697L26.7197 45.2197L27.7803 46.2803L24.0302 50.0303ZM24.0302 42.5303L22.9698 41.4697L26.7197 37.7197L27.7803 38.7803L24.0302 42.5303ZM24.0302 35.0303L22.9698 33.9697L26.7197 30.2197L27.7803 31.2803L24.0302 35.0303ZM40 57H38.0605C37.8634 57.0005 37.6682 56.962 37.4862 56.8865C37.3042 56.8111 37.1389 56.7003 37 56.5605L36.25 55.8105L35.266 56.7945C35.1266 56.934 34.961 57.0446 34.7788 57.12C34.5965 57.1954 34.4012 57.2342 34.204 57.234C34.1243 57.2342 34.0448 57.2277 33.9662 57.2145C33.7314 57.1766 33.509 57.0833 33.3173 56.9425C33.1256 56.8017 32.9701 56.6173 32.8638 56.4045C32.8459 56.369 32.8309 56.3321 32.8187 56.2942L32.2277 54.4103L30.0527 56.76L28.9532 55.74L31.234 53.2793C31.2648 53.2463 31.2984 53.2162 31.3345 53.1892C31.5102 53.0575 31.7127 52.966 31.9277 52.9211C32.1427 52.8763 32.3649 52.8791 32.5786 52.9296C32.7924 52.98 32.9925 53.0768 33.1647 53.213C33.337 53.3492 33.4772 53.5216 33.5755 53.718C33.5933 53.7535 33.6084 53.7904 33.6205 53.8283L34.216 55.7265L35.191 54.7515C35.4723 54.4703 35.8538 54.3123 36.2515 54.3123C36.6492 54.3123 37.0307 54.4703 37.312 54.7515L38.062 55.5015H40V57ZM43 57H41.5V55.5H43V57Z" fill="white"/>
<path d="M56.56 37.4625L58.15 35.8725C58.2199 35.8026 58.2751 35.7196 58.3124 35.6281C58.3498 35.5367 58.3685 35.4387 58.3675 35.34C58.3685 35.2423 58.3497 35.1455 58.3123 35.0553C58.2749 34.9651 58.2197 34.8833 58.15 34.815C58.0082 34.6778 57.8186 34.6011 57.6213 34.6011C57.4239 34.6011 57.2343 34.6778 57.0925 34.815L55.5025 36.405L56.56 37.4625Z" fill="white"/>
<path d="M55.5024 38.5274L54.4374 37.4624L53.3799 38.5274L54.4374 39.5849L55.5024 38.5274Z" fill="white"/>
<path d="M52.315 39.585L49.525 42.375L41.305 50.595L40.7725 52.185L42.37 51.66L44.5 49.5225V49.5H44.5225L53.38 40.6425L52.315 39.585Z" fill="white"/>
<path d="M54.9925 24.6375L53.4325 24.3675L53.3275 23.88C53.1293 23.027 52.7896 22.2133 52.3225 21.4725L52.045 21.045L52.975 19.7475L51.7525 18.525L50.455 19.455L50.0275 19.1775C49.2867 18.7104 48.473 18.3707 47.62 18.1725L47.1325 18.0675L46.8625 16.5L45.1375 16.5075L44.8675 18.0675L44.38 18.1725C43.527 18.3707 42.7133 18.7104 41.9725 19.1775L41.545 19.455L40.2475 18.525L39.025 19.7475L39.955 21.045L39.6775 21.4725C39.2104 22.2133 38.8707 23.027 38.6725 23.88L38.5675 24.3675L37 24.6375V26.25L37.0075 26.3625L38.5675 26.6325L38.6725 27.12C38.8707 27.973 39.2104 28.7868 39.6775 29.5275L39.955 29.955L39.025 31.2525L40.2475 32.475L41.545 31.545L41.9725 31.8225C42.7133 32.2896 43.527 32.6293 44.38 32.8275L44.8675 32.9325L45.1375 34.5H46.8625V34.4925L47.1325 32.9325L47.62 32.8275C48.473 32.6293 49.2867 32.2896 50.0275 31.8225L50.455 31.545L51.7525 32.475L52.975 31.2525L52.045 29.955L52.3225 29.5275C52.7896 28.7868 53.1293 27.973 53.3275 27.12L53.4325 26.6325L55 26.3625L54.9925 24.6375ZM46 29.25C45.2583 29.25 44.5333 29.0301 43.9166 28.618C43.2999 28.206 42.8193 27.6203 42.5355 26.9351C42.2516 26.2498 42.1774 25.4958 42.3221 24.7684C42.4667 24.041 42.8239 23.3728 43.3483 22.8483C43.8728 22.3239 44.541 21.9667 45.2684 21.8221C45.9958 21.6774 46.7498 21.7516 47.4351 22.0355C48.1203 22.3193 48.706 22.7999 49.118 23.4166C49.5301 24.0333 49.75 24.7583 49.75 25.5C49.75 26.4946 49.3549 27.4484 48.6517 28.1517C47.9484 28.8549 46.9946 29.25 46 29.25Z" fill="white"/>
<path d="M23.5 22.5C22.7044 22.5 21.9413 22.8161 21.3787 23.3787C20.8161 23.9413 20.5 24.7044 20.5 25.5H22C22 25.1022 22.158 24.7206 22.4393 24.4393C22.7206 24.158 23.1022 24 23.5 24C23.8978 24 24.2794 24.158 24.5607 24.4393C24.842 24.7206 25 25.1022 25 25.5H26.5C26.5 24.7044 26.1839 23.9413 25.6213 23.3787C25.0587 22.8161 24.2956 22.5 23.5 22.5ZM31 22.5C30.2044 22.5 29.4413 22.8161 28.8787 23.3787C28.3161 23.9413 28 24.7044 28 25.5H29.5C29.5 25.1022 29.658 24.7206 29.9393 24.4393C30.2206 24.158 30.6022 24 31 24C31.3978 24 31.7794 24.158 32.0607 24.4393C32.342 24.7206 32.5 25.1022 32.5 25.5H34C34 24.7044 33.6839 23.9413 33.1213 23.3787C32.5587 22.8161 31.7956 22.5 31 22.5Z" fill="white"/>
</g>
<defs>
<filter id="filter0_b_95_7757" x="-22" y="-21.5" width="118" height="118" filterUnits="userSpaceOnUse" color-interpolation-filters="sRGB">
<feFlood flood-opacity="0" result="BackgroundImageFix"/>
<feGaussianBlur in="BackgroundImage" stdDeviation="11"/>
<feComposite in2="SourceAlpha" operator="in" result="effect1_backgroundBlur_95_7757"/>
<feBlend mode="normal" in="SourceGraphic" in2="effect1_backgroundBlur_95_7757" result="shape"/>
</filter>
<linearGradient id="paint0_linear_95_7757" x1="0" y1="0.5" x2="61.0355" y2="83.9789" gradientUnits="userSpaceOnUse">
<stop stop-color="white" stop-opacity="0.14"/>
<stop offset="1" stop-color="white" stop-opacity="0.06"/>
</linearGradient>
<clipPath id="clip0_95_7757">
<rect width="74" height="74" fill="white" transform="translate(0 0.5)"/>
</clipPath>
</defs>
</svg>
