<svg width="74" height="74" viewBox="0 0 74 74" fill="none" xmlns="http://www.w3.org/2000/svg">
<g filter="url(#filter0_b_95_7829)">
<circle cx="37" cy="37" r="37" fill="url(#paint0_linear_95_7829)"/>
<circle cx="37" cy="37" r="36" stroke="white" stroke-width="2"/>
</g>
<path d="M39.3226 30.8064C39.3226 29.5259 38.2806 28.4839 37.0001 28.4839C35.7195 28.4839 34.6775 29.5259 34.6775 30.8064V31.5806H39.3226V30.8064Z" fill="white"/>
<path d="M40.8709 33.1289H33.129V40.8709H40.8717L40.8709 33.1289ZM39.3225 36.2257H37.7742V39.3224H36.2258V36.2257H34.6774V34.6773H39.3225V36.2257Z" fill="white"/>
<path d="M25.3872 56.3551C25.3872 58.0629 26.7761 59.4518 28.484 59.4518H45.5162C47.224 59.4518 48.6129 58.0629 48.6129 56.3551V51.71H25.3872V56.3551ZM33.9034 54.8066C33.9034 54.3793 34.2502 54.0324 34.6776 54.0324H39.3227C39.75 54.0324 40.0969 54.3793 40.0969 54.8066V56.355C40.0969 56.7823 39.75 57.1292 39.3227 57.1292H34.6776C34.2502 57.1292 33.9034 56.7823 33.9034 56.355V54.8066Z" fill="white"/>
<path d="M43.9678 42.715V28.188L37 24.7041L30.0322 28.1879V42.7149L37 46.1988L43.9678 42.715ZM31.5807 40.8708V33.1289C31.5807 32.275 32.2751 31.5806 33.1291 31.5806V30.8064C33.1291 28.672 34.8656 26.9354 37 26.9354C39.1344 26.9354 40.8709 28.672 40.8709 30.8064V31.5806C41.7249 31.5806 42.4193 32.275 42.4193 33.1289V40.8709C42.4193 41.7249 41.7248 42.4193 40.8709 42.4193H33.1291C32.2751 42.4192 31.5807 41.7248 31.5807 40.8708Z" fill="white"/>
<path d="M45.5163 14.5483H28.484C26.7761 14.5483 25.3872 15.9372 25.3872 17.6451V19.1935H48.613V17.6451C48.613 15.9372 47.2241 14.5483 45.5163 14.5483ZM36.2259 17.6451H31.5808V16.0967H36.2259V17.6451ZM39.3227 17.6451H37.7743V16.0967H39.3227V17.6451ZM42.4194 17.6451H40.8711V16.0967H42.4194V17.6451Z" fill="white"/>
<path d="M25.3872 50.1615H48.613V20.7422H25.3872V50.1615ZM28.484 27.2315L37.0001 22.9733L45.5163 27.2314V43.6721L37.0001 47.9303L28.484 43.6722V27.2315Z" fill="white"/>
<path d="M59.4516 17.645H56.3548C55.5009 17.645 54.8065 18.3394 54.8065 19.1934V22.2901C54.8065 23.1441 55.5009 23.8385 56.3548 23.8385V28.4836H50.1613V30.032H56.3548C57.2088 30.032 57.9032 29.3376 57.9032 28.4836V23.8385H59.4516C60.3056 23.8385 61 23.1441 61 22.2901V19.1935C61 18.3395 60.3055 17.645 59.4516 17.645Z" fill="white"/>
<path d="M59.4516 33.1289H56.3549C55.5009 33.1289 54.8065 33.8233 54.8065 34.6773V36.2257H50.1614V37.774H54.8065C54.8065 38.628 55.5009 39.3224 56.3549 39.3224H59.4516C60.3056 39.3224 61 38.628 61 37.774V34.6773C61 33.8233 60.3055 33.1289 59.4516 33.1289Z" fill="white"/>
<path d="M59.4516 50.1613H57.9032V45.5161C57.9032 44.6622 57.2088 43.9678 56.3548 43.9678H50.1613V45.5161H56.3548V50.1613C55.5009 50.1613 54.8065 50.8557 54.8065 51.7097V54.8064C54.8065 55.6604 55.5009 56.3548 56.3548 56.3548H59.4516C60.3056 56.3548 61 55.6604 61 54.8064V51.7097C61 50.8558 60.3055 50.1613 59.4516 50.1613Z" fill="white"/>
<path d="M19.1936 34.6773C19.1936 33.8233 18.4992 33.1289 17.6452 33.1289H14.5484C13.6944 33.1289 13 33.8233 13 34.6773V37.774C13 38.628 13.6944 39.3224 14.5484 39.3224H17.6451C18.4991 39.3224 19.1935 38.628 19.1935 37.774H23.8386V36.2257H19.1936V34.6773Z" fill="white"/>
<path d="M17.6451 23.8385C18.4991 23.8385 19.1935 23.1441 19.1935 22.2901V19.1934C19.1935 18.3394 18.4991 17.645 17.6451 17.645H14.5484C13.6944 17.6449 13 18.3394 13 19.1934V22.2901C13 23.1441 13.6944 23.8385 14.5484 23.8385H16.0968V28.4836C16.0968 29.3376 16.7912 30.032 17.6451 30.032H23.8387V28.4836H17.6451V23.8385Z" fill="white"/>
<path d="M16.0968 45.5161V50.1613H14.5484C13.6944 50.1613 13 50.8558 13 51.7097V54.8064C13 55.6604 13.6944 56.3548 14.5484 56.3548H17.6451C18.4991 56.3548 19.1935 55.6604 19.1935 54.8064V51.7097C19.1935 50.8557 18.4991 50.1613 17.6451 50.1613V45.5161H23.8387V43.9678H17.6451C16.7912 43.9678 16.0968 44.6622 16.0968 45.5161Z" fill="white"/>
<defs>
<filter id="filter0_b_95_7829" x="-22" y="-22" width="118" height="118" filterUnits="userSpaceOnUse" color-interpolation-filters="sRGB">
<feFlood flood-opacity="0" result="BackgroundImageFix"/>
<feGaussianBlur in="BackgroundImage" stdDeviation="11"/>
<feComposite in2="SourceAlpha" operator="in" result="effect1_backgroundBlur_95_7829"/>
<feBlend mode="normal" in="SourceGraphic" in2="effect1_backgroundBlur_95_7829" result="shape"/>
</filter>
<linearGradient id="paint0_linear_95_7829" x1="0" y1="0" x2="61.0355" y2="83.4789" gradientUnits="userSpaceOnUse">
<stop stop-color="white" stop-opacity="0.14"/>
<stop offset="1" stop-color="white" stop-opacity="0.06"/>
</linearGradient>
</defs>
</svg>
