<svg width="74" height="74" viewBox="0 0 74 74" fill="none" xmlns="http://www.w3.org/2000/svg">
<g filter="url(#filter0_b_95_7810)">
<circle cx="37" cy="37" r="37" fill="url(#paint0_linear_95_7810)"/>
<circle cx="37" cy="37" r="36" stroke="white" stroke-width="2"/>
</g>
<path d="M52.7241 33.6895H54.3793V40.3102H52.7241V33.6895Z" fill="white"/>
<path d="M56.0643 27.1714C55.0083 26.0607 53.5228 25.4136 51.976 25.4136C49.3865 25.4136 47.1388 27.1681 46.5107 29.6806L46.3352 30.3791H51.4191C52.4428 28.6701 54.1269 27.5082 56.0643 27.1714Z" fill="white"/>
<path d="M37.8276 49.2615V57.6897C37.8276 58.6025 37.0852 59.3448 36.1724 59.3448H16.3103C15.3975 59.3448 14.6552 58.6025 14.6552 57.6897V16.3103C14.6552 15.3975 15.3975 14.6552 16.3103 14.6552H36.1724C37.0852 14.6552 37.8276 15.3975 37.8276 16.3103V24.6897C38.3961 24.7691 38.9506 24.8924 39.4828 25.067V15.4828C39.4828 14.1139 38.3688 13 37 13H15.4828C14.1139 13 13 14.1139 13 15.4828V58.5172C13 59.8861 14.1139 61 15.4828 61H37C38.3688 61 39.4828 59.8861 39.4828 58.5172V46.931C39.4828 48.0086 38.7884 48.9189 37.8276 49.2615Z" fill="white"/>
<path d="M24.5862 21.2759H26.2414V22.9311H24.5862V21.2759Z" fill="white"/>
<path d="M21.2759 21.2759H22.9311V22.9311H21.2759V21.2759Z" fill="white"/>
<path d="M21.2759 41.1377H22.9311V42.7929H21.2759V41.1377Z" fill="white"/>
<path d="M24.5862 51.0688H26.2414V52.724H24.5862V51.0688Z" fill="white"/>
<path d="M21.2759 51.0688H22.9311V52.724H21.2759V51.0688Z" fill="white"/>
<path d="M36.1724 24.5864V16.3105H16.3103V57.6899H36.1724V49.414H33.6896V55.2071H18.7931V48.5864H28.542C28.1448 48.1461 27.8965 47.5693 27.8965 46.9312V46.0201C27.2932 45.8968 26.7453 45.6311 26.2678 45.2761H18.7931V38.6554H22.374C21.8344 37.6292 21.491 36.5111 21.352 35.345H18.7931V28.7243H22.9939C23.9953 27.2843 25.379 26.1332 26.9977 25.414H18.7931V18.7933H33.6896V24.5864H36.1724Z" fill="white"/>
<path d="M57.6896 35.3447C56.7768 35.3447 56.0344 36.0871 56.0344 36.9999C56.0344 37.9127 56.7768 38.6551 57.6896 38.6551C58.9268 38.6551 60.9999 37.6189 60.9999 36.9999C60.9999 36.3809 58.9268 35.3447 57.6896 35.3447Z" fill="white"/>
<path d="M36.4986 26.2412H30.8818C26.4981 26.2412 22.9312 29.8081 22.9312 34.191C22.9312 36.3146 23.7579 38.3116 25.2592 39.8128L26.2415 40.7952V41.9654C26.2415 43.3342 27.3554 44.4481 28.7243 44.4481H29.5518V46.9309C29.5518 47.3877 29.9226 47.7585 30.3794 47.7585H31.207V44.4481H32.8622V47.7585H34.5174V44.4481H36.1725V47.7585H37.0001C37.457 47.7585 37.8277 47.3877 37.8277 46.9309V44.4481H38.6553C40.0241 44.4481 41.1381 43.3342 41.1381 41.9654V40.7952L42.1204 39.8128C43.6216 38.3116 44.4484 36.3154 44.4484 34.191C44.4484 29.8081 40.8815 26.2412 36.4986 26.2412ZM30.3794 36.9998H28.7243C26.8961 36.9998 25.4139 35.5176 25.4139 33.6895C25.4139 31.8614 26.8961 30.3791 28.7243 30.3791C30.5524 30.3791 32.0346 31.8614 32.0346 33.6895V35.3447C32.0346 36.2591 31.2939 36.9998 30.3794 36.9998ZM34.5604 43.0545L33.9943 41.3563C33.9058 41.0947 33.4738 41.0939 33.3852 41.3571L32.8192 43.0545L31.2501 42.5306L31.8161 40.8324C32.0859 40.0247 32.839 39.4826 33.6898 39.4826C34.5405 39.4826 35.2936 40.0247 35.5643 40.8324L36.1303 42.5314L34.5604 43.0545ZM38.6553 36.9998H37.0001C36.0856 36.9998 35.345 36.2591 35.345 35.3447V33.6895C35.345 31.8614 36.8272 30.3791 38.6553 30.3791C40.4834 30.3791 41.9656 31.8614 41.9656 33.6895C41.9656 35.5176 40.4834 36.9998 38.6553 36.9998Z" fill="white"/>
<path d="M51.4199 43.6206H46.3352L46.5098 44.3191C47.1388 46.8316 49.3865 48.5861 51.976 48.5861C53.5228 48.5861 55.0083 47.939 56.0643 46.8283C54.1269 46.4915 52.4428 45.3296 51.4199 43.6206Z" fill="white"/>
<path d="M51.0691 32.0347H45.8503C46.0109 32.729 46.1036 33.449 46.1036 34.1914C46.1036 36.7577 45.1047 39.1693 43.2906 40.9834L42.7932 41.4807V41.9657H51.0691V32.0347Z" fill="white"/>
<defs>
<filter id="filter0_b_95_7810" x="-22" y="-22" width="118" height="118" filterUnits="userSpaceOnUse" color-interpolation-filters="sRGB">
<feFlood flood-opacity="0" result="BackgroundImageFix"/>
<feGaussianBlur in="BackgroundImage" stdDeviation="11"/>
<feComposite in2="SourceAlpha" operator="in" result="effect1_backgroundBlur_95_7810"/>
<feBlend mode="normal" in="SourceGraphic" in2="effect1_backgroundBlur_95_7810" result="shape"/>
</filter>
<linearGradient id="paint0_linear_95_7810" x1="0" y1="0" x2="61.0355" y2="83.4789" gradientUnits="userSpaceOnUse">
<stop stop-color="white" stop-opacity="0.14"/>
<stop offset="1" stop-color="white" stop-opacity="0.06"/>
</linearGradient>
</defs>
</svg>
