<svg width="74" height="75" viewBox="0 0 74 75" fill="none" xmlns="http://www.w3.org/2000/svg">
<g clip-path="url(#clip0_95_7770)">
<g filter="url(#filter0_b_95_7770)">
<circle cx="37" cy="37.5" r="37" fill="url(#paint0_linear_95_7770)"/>
<circle cx="37" cy="37.5" r="36" stroke="white" stroke-width="2"/>
</g>
<path d="M37.75 42H40C40.255 42 40.504 41.9752 40.75 41.94V39H37.75V42Z" fill="white"/>
<path d="M28.75 30H31.75V33H28.75V30Z" fill="white"/>
<path d="M40.75 27.3669C39.688 27.0901 38.68 26.6656 37.75 26.1099V28.5001H40.75V27.3669Z" fill="white"/>
<path d="M37.75 34.5H40.75V37.5H37.75V34.5Z" fill="white"/>
<path d="M31.75 25.5757C30.283 25.8749 29.125 27.0329 28.8257 28.4999H31.75V25.5757Z" fill="white"/>
<path d="M31.75 34.5H28.75V36.75C28.75 37.005 28.7747 37.254 28.81 37.5H31.75V34.5Z" fill="white"/>
<path d="M42.25 30H45.25V33H42.25V30Z" fill="white"/>
<path d="M43.708 27.7499C43.2145 27.7499 42.7292 27.7101 42.25 27.6509V28.4999H45.0243C44.7543 28.0529 44.2682 27.7499 43.708 27.7499Z" fill="white"/>
<path d="M42.25 41.4862C43.3375 40.9672 44.2172 40.0875 44.7362 39H42.25V41.4862Z" fill="white"/>
<path d="M42.25 37.5H45.19C45.2252 37.254 45.25 37.005 45.25 36.75V34.5H42.25V37.5Z" fill="white"/>
<path d="M31.75 41.4862V39H29.2637C29.7827 40.0875 30.6625 40.9672 31.75 41.4862Z" fill="white"/>
<path d="M33.25 30H36.25V33H33.25V30Z" fill="white"/>
<path d="M43.306 46.1987C41.8735 48.2417 39.5163 49.5002 37 49.5002C34.4838 49.5002 32.1265 48.2425 30.694 46.1987C25.6427 47.5525 22 52.156 22 57.5117V59.2502H26.5V53.2502H28V59.2502H46V53.2502H47.5V59.2502H52V57.5117C52 52.156 48.3565 47.5517 43.306 46.1987Z" fill="white"/>
<path d="M33.25 25.499H36.25V28.4998H33.25V25.499Z" fill="white"/>
<path d="M28.4357 45.3975C29.5742 44.8987 30.7967 44.5508 32.0837 44.3895C32.4047 44.349 32.6628 44.1097 32.7257 43.7932L32.8068 43.3883C29.653 42.822 27.25 40.0643 27.25 36.75V29.25C27.25 26.3558 29.605 24 32.4993 24H35.1565C34.4395 23.2155 33.8222 22.3222 33.3287 21.336L34.6705 20.6648C36.3932 24.1095 39.8568 26.25 43.708 26.25C45.3857 26.25 46.75 27.6143 46.75 29.292V36.75C46.75 40.0643 44.347 42.822 41.1925 43.3883L41.2735 43.7932C41.3373 44.1097 41.596 44.3498 41.9163 44.3903C43.2033 44.5508 44.425 44.8995 45.5642 45.3982C48.4817 44.4517 50.5 41.7 50.5 38.6123C50.5 37.5098 50.239 36.4058 49.7463 35.4202L49.5962 35.1195C48.7157 33.3585 48.25 31.3867 48.25 29.4172V27C48.25 20.7968 43.2033 15.75 37 15.75C30.7968 15.75 25.75 20.7968 25.75 27V29.4172C25.75 31.3867 25.2843 33.3585 24.4037 35.1195L24.2538 35.4195C23.761 36.4058 23.5 37.5098 23.5 38.6123C23.5 41.6993 25.519 44.451 28.4357 45.3975Z" fill="white"/>
<path d="M37.75 30H40.75V33H37.75V30Z" fill="white"/>
<path d="M33.25 34.5H36.25V37.5H33.25V34.5Z" fill="white"/>
<path d="M37 48C38.8007 48 40.5002 47.1975 41.668 45.8655C40.735 45.7215 39.9887 45.0173 39.8027 44.0873L39.6857 43.5H34.315L34.1972 44.0873C34.0127 45.0165 33.2665 45.7222 32.332 45.8655C33.4997 47.1975 35.1992 48 37 48Z" fill="white"/>
<path d="M33.25 41.94C33.496 41.9752 33.745 42 34 42H36.25V39H33.25V41.94Z" fill="white"/>
<path d="M58.75 51.75H54.25V53.25H60.25V47.25H58.75V51.75Z" fill="white"/>
<path d="M15.25 47.25H13.75V53.25H19.75V51.75H15.25V47.25Z" fill="white"/>
<path d="M15.25 15.75H19.75V14.25H13.75V20.25H15.25V15.75Z" fill="white"/>
<path d="M54.25 14.25V15.75H58.75V20.25H60.25V14.25H54.25Z" fill="white"/>
<path d="M18.25 27.75H19.75V29.25H18.25V27.75Z" fill="white"/>
<path d="M21.25 27.75H22.75V29.25H21.25V27.75Z" fill="white"/>
<path d="M15.25 27.75H16.75V29.25H15.25V27.75Z" fill="white"/>
<path d="M15.25 30.75H22.75V32.25H15.25V30.75Z" fill="white"/>
<path d="M15.25 24.75H22.75V26.25H15.25V24.75Z" fill="white"/>
<path d="M15.25 21.75H22.75V23.25H15.25V21.75Z" fill="white"/>
<path d="M57.25 30.75H58.75V32.25H57.25V30.75Z" fill="white"/>
<path d="M51.25 30.75H52.75V32.25H51.25V30.75Z" fill="white"/>
<path d="M54.25 30.75H55.75V32.25H54.25V30.75Z" fill="white"/>
<path d="M51.25 27.75H58.75V29.25H51.25V27.75Z" fill="white"/>
<path d="M51.25 24.75H58.75V26.25H51.25V24.75Z" fill="white"/>
</g>
<defs>
<filter id="filter0_b_95_7770" x="-22" y="-21.5" width="118" height="118" filterUnits="userSpaceOnUse" color-interpolation-filters="sRGB">
<feFlood flood-opacity="0" result="BackgroundImageFix"/>
<feGaussianBlur in="BackgroundImage" stdDeviation="11"/>
<feComposite in2="SourceAlpha" operator="in" result="effect1_backgroundBlur_95_7770"/>
<feBlend mode="normal" in="SourceGraphic" in2="effect1_backgroundBlur_95_7770" result="shape"/>
</filter>
<linearGradient id="paint0_linear_95_7770" x1="0" y1="0.5" x2="61.0355" y2="83.9789" gradientUnits="userSpaceOnUse">
<stop stop-color="white" stop-opacity="0.14"/>
<stop offset="1" stop-color="white" stop-opacity="0.06"/>
</linearGradient>
<clipPath id="clip0_95_7770">
<rect width="74" height="74" fill="white" transform="translate(0 0.5)"/>
</clipPath>
</defs>
</svg>
