<svg width="619" height="626" viewBox="0 0 619 626" fill="none" xmlns="http://www.w3.org/2000/svg">
<g filter="url(#filter0_b_135_77)">
<mask id="path-1-inside-1_135_77" fill="white">
<path d="M309.532 625.363C391.404 625.363 469.922 592.439 527.814 533.834C585.706 475.229 618.23 395.744 618.23 312.864C618.23 229.984 585.706 150.499 527.814 91.8939C469.922 33.2889 391.404 0.365006 309.532 0.36499L309.532 312.864L309.532 625.363Z"/>
</mask>
<path d="M309.532 625.363C391.404 625.363 469.922 592.439 527.814 533.834C585.706 475.229 618.23 395.744 618.23 312.864C618.23 229.984 585.706 150.499 527.814 91.8939C469.922 33.2889 391.404 0.365006 309.532 0.36499L309.532 312.864L309.532 625.363Z" fill="url(#paint0_linear_135_77)"/>
<path d="M309.532 625.363C391.404 625.363 469.922 592.439 527.814 533.834C585.706 475.229 618.23 395.744 618.23 312.864C618.23 229.984 585.706 150.499 527.814 91.8939C469.922 33.2889 391.404 0.365006 309.532 0.36499L309.532 312.864L309.532 625.363Z" stroke="url(#paint1_linear_135_77)" stroke-width="3.58165" mask="url(#path-1-inside-1_135_77)"/>
</g>
<path d="M529.932 193.044V195.15H534.396V197.706C534.396 200.424 536.232 201.846 538.23 201.846C540.246 201.846 542.172 200.388 542.172 197.76V193.044H529.932ZM536.214 195.15H540.336V197.526C540.336 198.894 539.4 199.74 538.248 199.74C537.204 199.74 536.214 199.038 536.214 197.49V195.15ZM534.81 210.08C535.314 211.844 536.646 212.924 538.374 212.924C540.534 212.924 542.172 211.196 542.172 208.766V203.96H529.932V206.066H534.594V207.938L529.932 210.836V213.23H529.986L534.81 210.08ZM536.34 206.066H540.354V208.604C540.354 209.918 539.49 210.818 538.32 210.818C537.114 210.818 536.34 209.972 536.34 208.568V206.066ZM529.698 220.881C529.698 224.661 532.488 227.253 536.07 227.253C539.742 227.253 542.406 224.661 542.406 220.881C542.406 217.137 539.742 214.509 536.07 214.509C532.488 214.509 529.698 217.137 529.698 220.881ZM531.606 220.881C531.606 218.325 533.604 216.669 536.07 216.669C538.626 216.669 540.498 218.325 540.498 220.881C540.498 223.455 538.626 225.093 536.07 225.093C533.604 225.093 531.606 223.455 531.606 220.881ZM529.698 235.346C529.698 237.434 530.544 239.09 531.984 240.278L533.334 238.946C532.29 238.136 531.606 236.948 531.606 235.382C531.606 232.898 533.55 231.206 536.07 231.206C538.644 231.206 540.498 232.934 540.498 235.454C540.498 236.948 539.994 238.028 539.166 238.91L540.606 240.008C541.848 238.658 542.406 237.254 542.406 235.4C542.406 231.692 539.742 229.046 536.07 229.046C532.542 229.046 529.698 231.566 529.698 235.346ZM531.786 244.422H535.26V249.336H537.06V244.422H540.318V250.02H542.172V242.316H529.932V250.182H531.786V244.422ZM529.932 252.564V256.956C529.932 260.718 532.488 263.184 536.034 263.184C539.598 263.184 542.172 260.646 542.172 256.938V252.564H529.932ZM531.75 254.67H540.354V256.848C540.354 259.422 538.518 261.042 536.034 261.042C533.55 261.042 531.75 259.458 531.75 256.866V254.67ZM529.698 270.34C529.698 273.166 531.336 275.236 534.27 275.236H542.172V273.13H534.414C532.524 273.13 531.606 272.014 531.606 270.34C531.606 268.666 532.524 267.532 534.414 267.532H542.172V265.426H534.27C531.336 265.426 529.698 267.496 529.698 270.34ZM534.81 284.277C535.314 286.041 536.646 287.121 538.374 287.121C540.534 287.121 542.172 285.393 542.172 282.963V278.157H529.932V280.263H534.594V282.135L529.932 285.033V287.427H529.986L534.81 284.277ZM536.34 280.263H540.354V282.801C540.354 284.115 539.49 285.015 538.32 285.015C537.114 285.015 536.34 284.169 536.34 282.765V280.263ZM531.786 291.584H535.26V296.498H537.06V291.584H540.318V297.182H542.172V289.478H529.932V297.344H531.786V291.584ZM529.698 303.364C529.698 305.794 531.048 307.702 533.334 307.702C535.422 307.702 536.448 306.046 537.15 303.94C537.582 302.662 538.05 301.42 539.148 301.42C540.084 301.42 540.552 302.374 540.552 303.472C540.552 304.48 540.264 305.38 539.598 306.424L541.164 307.324C542.064 305.992 542.406 304.786 542.406 303.364C542.406 301.15 541.2 299.278 539.058 299.278C537.114 299.278 535.998 300.88 535.332 302.932C534.882 304.318 534.396 305.578 533.226 305.578C532.146 305.578 531.57 304.516 531.57 303.292C531.57 302.014 532.038 300.79 532.83 299.872L531.192 298.882C530.238 300.088 529.698 301.69 529.698 303.364ZM542.244 319.074V318.426L529.968 312.648H529.932V314.862L532.164 315.87V321.63L529.932 322.62V324.834H529.986L542.244 319.074ZM538.842 318.75C538.05 319.02 537.42 319.29 536.772 319.578L533.82 320.91V316.572L536.772 317.904C537.438 318.192 538.05 318.462 538.842 318.75ZM542.172 334.992H535.494C534.99 334.992 534.432 334.992 533.856 335.028C534.324 334.614 534.756 334.218 535.17 333.822L542.244 327.378V326.568H529.932V328.656H536.898C537.33 328.656 537.78 328.638 538.23 328.584C537.834 328.944 537.438 329.304 537.114 329.61L529.86 336.252V337.062H542.172V334.992ZM529.932 340.208V344.6C529.932 348.362 532.488 350.828 536.034 350.828C539.598 350.828 542.172 348.29 542.172 344.582V340.208H529.932ZM531.75 342.314H540.354V344.492C540.354 347.066 538.518 348.686 536.034 348.686C533.55 348.686 531.75 347.102 531.75 344.51V342.314ZM529.932 357.206V359.312H534.396V361.868C534.396 364.586 536.232 366.008 538.23 366.008C540.246 366.008 542.172 364.55 542.172 361.922V357.206H529.932ZM536.214 359.312H540.336V361.688C540.336 363.056 539.4 363.902 538.248 363.902C537.204 363.902 536.214 363.2 536.214 361.652V359.312ZM529.698 373.828C529.698 377.608 532.488 380.2 536.07 380.2C539.742 380.2 542.406 377.608 542.406 373.828C542.406 370.084 539.742 367.456 536.07 367.456C532.488 367.456 529.698 370.084 529.698 373.828ZM531.606 373.828C531.606 371.272 533.604 369.616 536.07 369.616C538.626 369.616 540.498 371.272 540.498 373.828C540.498 376.402 538.626 378.04 536.07 378.04C533.604 378.04 531.606 376.402 531.606 373.828ZM529.932 382.659V390.111H531.876V384.765H542.172V382.659H529.932ZM529.932 392.187V394.293H542.172V392.187H529.932ZM529.698 403.077C529.698 405.165 530.544 406.821 531.984 408.009L533.334 406.677C532.29 405.867 531.606 404.679 531.606 403.113C531.606 400.629 533.55 398.937 536.07 398.937C538.644 398.937 540.498 400.665 540.498 403.185C540.498 404.679 539.994 405.759 539.166 406.641L540.606 407.739C541.848 406.389 542.406 404.985 542.406 403.131C542.406 399.423 539.742 396.777 536.07 396.777C532.542 396.777 529.698 399.297 529.698 403.077ZM529.932 410.046V412.152H542.172V410.046H529.932ZM531.786 417.408H535.26V422.322H537.06V417.408H540.318V423.006H542.172V415.302H529.932V423.168H531.786V417.408ZM529.698 429.188C529.698 431.618 531.048 433.526 533.334 433.526C535.422 433.526 536.448 431.87 537.15 429.764C537.582 428.486 538.05 427.244 539.148 427.244C540.084 427.244 540.552 428.198 540.552 429.296C540.552 430.304 540.264 431.204 539.598 432.248L541.164 433.148C542.064 431.816 542.406 430.61 542.406 429.188C542.406 426.974 541.2 425.102 539.058 425.102C537.114 425.102 535.998 426.704 535.332 428.756C534.882 430.142 534.396 431.402 533.226 431.402C532.146 431.402 531.57 430.34 531.57 429.116C531.57 427.838 532.038 426.614 532.83 425.696L531.192 424.706C530.238 425.912 529.698 427.514 529.698 429.188Z" fill="white"/>
<g filter="url(#filter1_b_135_77)">
<ellipse cx="309.912" cy="312.864" rx="176.779" ry="312.499" fill="url(#paint2_linear_135_77)"/>
<path d="M485.796 312.864C485.796 399.033 466.036 477 434.134 533.393C402.218 589.814 358.264 624.468 309.912 624.468C261.561 624.468 217.607 589.814 185.69 533.393C153.789 477 134.029 399.033 134.029 312.864C134.029 226.695 153.789 148.728 185.69 92.3347C217.607 35.9141 261.561 1.2604 309.912 1.2604C358.264 1.2604 402.218 35.9141 434.134 92.3347C466.036 148.728 485.796 226.695 485.796 312.864Z" stroke="url(#paint3_linear_135_77)" stroke-width="1.79083"/>
</g>
<defs>
<filter id="filter0_b_135_77" x="233.498" y="-75.6688" width="460.765" height="777.066" filterUnits="userSpaceOnUse" color-interpolation-filters="sRGB">
<feFlood flood-opacity="0" result="BackgroundImageFix"/>
<feGaussianBlur in="BackgroundImage" stdDeviation="38.0169"/>
<feComposite in2="SourceAlpha" operator="in" result="effect1_backgroundBlur_135_77"/>
<feBlend mode="normal" in="SourceGraphic" in2="effect1_backgroundBlur_135_77" result="shape"/>
</filter>
<filter id="filter1_b_135_77" x="-1387.54" y="-1520.31" width="3394.91" height="3666.35" filterUnits="userSpaceOnUse" color-interpolation-filters="sRGB">
<feFlood flood-opacity="0" result="BackgroundImageFix"/>
<feGaussianBlur in="BackgroundImage" stdDeviation="760.338"/>
<feComposite in2="SourceAlpha" operator="in" result="effect1_backgroundBlur_135_77"/>
<feBlend mode="normal" in="SourceGraphic" in2="effect1_backgroundBlur_135_77" result="shape"/>
</filter>
<linearGradient id="paint0_linear_135_77" x1="0.834963" y1="62.8648" x2="624.984" y2="617.765" gradientUnits="userSpaceOnUse">
<stop stop-color="#3F79A9" stop-opacity="0.46"/>
<stop offset="1" stop-color="#3F79A9" stop-opacity="0"/>
</linearGradient>
<linearGradient id="paint1_linear_135_77" x1="309.532" y1="0.36499" x2="309.532" y2="625.363" gradientUnits="userSpaceOnUse">
<stop stop-color="#49D3FE"/>
<stop offset="1" stop-color="#55FFFF"/>
</linearGradient>
<linearGradient id="paint2_linear_135_77" x1="486.416" y1="370.472" x2="145.844" y2="392.521" gradientUnits="userSpaceOnUse">
<stop stop-color="#1A3337"/>
<stop offset="1" stop-color="#1B3137"/>
</linearGradient>
<linearGradient id="paint3_linear_135_77" x1="309.912" y1="0.36499" x2="309.912" y2="625.363" gradientUnits="userSpaceOnUse">
<stop stop-color="#49D3FE"/>
<stop offset="1" stop-color="#55FFFF"/>
</linearGradient>
</defs>
</svg>
