<svg width="627" height="605" viewBox="0 0 627 605" fill="none" xmlns="http://www.w3.org/2000/svg">
<g opacity="0.1" filter="url(#filter0_b_134_250)">
<path d="M313.388 -3.66014e-05C362.564 -3.01528e-05 402.429 39.5973 402.429 88.4431C402.429 137.289 362.564 176.886 313.388 176.886C264.213 176.886 224.348 137.289 224.348 88.4431C224.348 39.5973 264.213 -4.30501e-05 313.388 -3.66014e-05Z" fill="#56CCF2" fill-opacity="0.44"/>
<path d="M313.388 1.19514C361.912 1.19515 401.234 40.265 401.234 88.4431C401.234 136.621 361.912 175.691 313.388 175.691C264.865 175.691 225.543 136.621 225.543 88.4431C225.543 40.265 264.865 1.19513 313.388 1.19514Z" stroke="url(#paint0_linear_134_250)" stroke-width="2.39035"/>
</g>
<g filter="url(#filter1_b_134_250)">
<circle cx="312.952" cy="88.1881" r="68.1103" fill="url(#paint1_linear_134_250)"/>
<circle cx="312.952" cy="88.1881" r="67.2141" stroke="#3F79A9" stroke-width="1.79238"/>
</g>
<path d="M287.649 81.688H287.001L281.223 93.964V94H283.437L284.445 91.768H290.205L291.195 94H293.409V93.946L287.649 81.688ZM287.325 85.09C287.595 85.882 287.865 86.512 288.153 87.16L289.485 90.112H285.147L286.479 87.16C286.767 86.494 287.037 85.882 287.325 85.09ZM298.657 94.234C301.087 94.234 302.995 92.884 302.995 90.598C302.995 88.51 301.339 87.484 299.233 86.782C297.955 86.35 296.713 85.882 296.713 84.784C296.713 83.848 297.667 83.38 298.765 83.38C299.773 83.38 300.673 83.668 301.717 84.334L302.617 82.768C301.285 81.868 300.079 81.526 298.657 81.526C296.443 81.526 294.571 82.732 294.571 84.874C294.571 86.818 296.173 87.934 298.225 88.6C299.611 89.05 300.871 89.536 300.871 90.706C300.871 91.786 299.809 92.362 298.585 92.362C297.307 92.362 296.083 91.894 295.165 91.102L294.175 92.74C295.381 93.694 296.983 94.234 298.657 94.234ZM309.011 94.234C311.441 94.234 313.349 92.884 313.349 90.598C313.349 88.51 311.693 87.484 309.587 86.782C308.309 86.35 307.067 85.882 307.067 84.784C307.067 83.848 308.021 83.38 309.119 83.38C310.127 83.38 311.027 83.668 312.071 84.334L312.971 82.768C311.639 81.868 310.433 81.526 309.011 81.526C306.797 81.526 304.925 82.732 304.925 84.874C304.925 86.818 306.527 87.934 308.579 88.6C309.965 89.05 311.225 89.536 311.225 90.706C311.225 91.786 310.163 92.362 308.939 92.362C307.661 92.362 306.437 91.894 305.519 91.102L304.529 92.74C305.735 93.694 307.337 94.234 309.011 94.234ZM317.744 92.146V88.672H322.658V86.872H317.744V83.614H323.342V81.76H315.638V94H323.504V92.146H317.744ZM329.524 94.234C331.954 94.234 333.862 92.884 333.862 90.598C333.862 88.51 332.206 87.484 330.1 86.782C328.822 86.35 327.58 85.882 327.58 84.784C327.58 83.848 328.534 83.38 329.632 83.38C330.64 83.38 331.54 83.668 332.584 84.334L333.484 82.768C332.152 81.868 330.946 81.526 329.524 81.526C327.31 81.526 325.438 82.732 325.438 84.874C325.438 86.818 327.04 87.934 329.092 88.6C330.478 89.05 331.738 89.536 331.738 90.706C331.738 91.786 330.676 92.362 329.452 92.362C328.174 92.362 326.95 91.894 326.032 91.102L325.042 92.74C326.248 93.694 327.85 94.234 329.524 94.234ZM339.878 94.234C342.308 94.234 344.216 92.884 344.216 90.598C344.216 88.51 342.56 87.484 340.454 86.782C339.176 86.35 337.934 85.882 337.934 84.784C337.934 83.848 338.888 83.38 339.986 83.38C340.994 83.38 341.894 83.668 342.938 84.334L343.838 82.768C342.506 81.868 341.3 81.526 339.878 81.526C337.664 81.526 335.792 82.732 335.792 84.874C335.792 86.818 337.394 87.934 339.446 88.6C340.832 89.05 342.092 89.536 342.092 90.706C342.092 91.786 341.03 92.362 339.806 92.362C338.528 92.362 337.304 91.894 336.386 91.102L335.396 92.74C336.602 93.694 338.204 94.234 339.878 94.234Z" fill="white"/>
<g opacity="0.1" filter="url(#filter2_b_134_250)">
<path d="M537.736 158.876C586.912 158.876 626.777 198.474 626.777 247.32C626.777 296.165 586.912 335.763 537.736 335.763C488.56 335.763 448.695 296.165 448.695 247.32C448.695 198.474 488.56 158.876 537.736 158.876Z" fill="#56CCF2" fill-opacity="0.44"/>
<path d="M537.736 160.072C586.259 160.072 625.582 199.141 625.582 247.32C625.582 295.498 586.259 334.568 537.736 334.568C489.213 334.568 449.89 295.498 449.891 247.32C449.891 199.141 489.213 160.072 537.736 160.072Z" stroke="url(#paint2_linear_134_250)" stroke-width="2.39035"/>
</g>
<g filter="url(#filter3_b_134_250)">
<circle cx="537.716" cy="247.112" r="68.1103" fill="url(#paint3_linear_134_250)"/>
<circle cx="537.716" cy="247.112" r="67.2141" stroke="#3F79A9" stroke-width="1.79238"/>
</g>
<path d="M506.677 253H511.069C514.831 253 517.297 250.444 517.297 246.898C517.297 243.334 514.759 240.76 511.051 240.76H506.677V253ZM508.783 251.182V242.578H510.961C513.535 242.578 515.155 244.414 515.155 246.898C515.155 249.382 513.571 251.182 510.979 251.182H508.783ZM521.861 251.146V247.672H526.775V245.872H521.861V242.614H527.459V240.76H519.755V253H527.621V251.146H521.861ZM533.642 253.234C536.072 253.234 537.98 251.884 537.98 249.598C537.98 247.51 536.324 246.484 534.218 245.782C532.94 245.35 531.698 244.882 531.698 243.784C531.698 242.848 532.652 242.38 533.75 242.38C534.758 242.38 535.658 242.668 536.702 243.334L537.602 241.768C536.27 240.868 535.064 240.526 533.642 240.526C531.428 240.526 529.556 241.732 529.556 243.874C529.556 245.818 531.158 246.934 533.21 247.6C534.596 248.05 535.856 248.536 535.856 249.706C535.856 250.786 534.794 251.362 533.57 251.362C532.292 251.362 531.068 250.894 530.15 250.102L529.16 251.74C530.366 252.694 531.968 253.234 533.642 253.234ZM540.269 253H542.375V240.76H540.269V253ZM551.123 246.16V247.906H554.417V250.174C553.643 250.948 552.599 251.362 551.393 251.362C548.783 251.362 547.001 249.562 547.001 246.88C547.001 244.27 548.675 242.416 551.321 242.416C552.743 242.416 553.823 242.902 554.813 243.874L555.983 242.488C554.777 241.282 553.229 240.526 551.249 240.526C547.343 240.526 544.859 243.316 544.859 246.862C544.859 250.498 547.451 253.234 551.213 253.234C553.337 253.234 555.065 252.442 556.289 250.984V246.16H551.123ZM567.238 240.76V247.438C567.238 247.942 567.238 248.5 567.274 249.076C566.86 248.608 566.464 248.176 566.068 247.762L559.624 240.688H558.814V253H560.902V246.034C560.902 245.602 560.884 245.152 560.83 244.702C561.19 245.098 561.55 245.494 561.856 245.818L568.498 253.072H569.308V240.76H567.238Z" fill="white"/>
<g opacity="0.1" filter="url(#filter4_b_134_250)">
<path d="M449.568 427.745C498.744 427.745 538.609 467.342 538.609 516.188C538.609 565.034 498.744 604.631 449.568 604.631C400.392 604.631 360.528 565.034 360.528 516.188C360.528 467.342 400.392 427.745 449.568 427.745Z" fill="#56CCF2" fill-opacity="0.44"/>
<path d="M449.568 428.94C498.092 428.94 537.414 468.01 537.414 516.188C537.414 564.366 498.092 603.436 449.568 603.436C401.045 603.436 361.723 564.366 361.723 516.188C361.723 468.01 401.045 428.94 449.568 428.94Z" stroke="url(#paint4_linear_134_250)" stroke-width="2.39035"/>
</g>
<g filter="url(#filter5_b_134_250)">
<circle cx="449.172" cy="515.769" r="68.1103" fill="url(#paint5_linear_134_250)"/>
<circle cx="449.172" cy="515.769" r="67.2141" stroke="#3F79A9" stroke-width="1.79238"/>
</g>
<path d="M400.74 522H402.846V509.76H400.74V522ZM417.282 509.67H416.652L412.944 515.34C412.674 515.754 412.404 516.186 412.17 516.618C411.918 516.186 411.648 515.754 411.378 515.34L407.67 509.67H407.04L405.24 522H407.31L408.264 515.358C408.318 514.926 408.39 514.53 408.426 514.08C408.66 514.494 408.912 514.872 409.164 515.25L411.936 519.498H412.386L415.176 515.25C415.446 514.872 415.698 514.476 415.914 514.098C415.932 514.494 415.986 514.908 416.058 515.34L417.012 522H419.082L417.282 509.67ZM421.464 522H423.57V517.536H426.126C428.844 517.536 430.266 515.7 430.266 513.702C430.266 511.686 428.808 509.76 426.18 509.76H421.464V522ZM423.57 515.718V511.596H425.946C427.314 511.596 428.16 512.532 428.16 513.684C428.16 514.728 427.458 515.718 425.91 515.718H423.57ZM432.38 522H439.832V520.056H434.486V509.76H432.38V522ZM444.014 520.146V516.672H448.928V514.872H444.014V511.614H449.612V509.76H441.908V522H449.774V520.146H444.014ZM463.442 509.67H462.812L459.104 515.34C458.834 515.754 458.564 516.186 458.33 516.618C458.078 516.186 457.808 515.754 457.538 515.34L453.83 509.67H453.2L451.4 522H453.47L454.424 515.358C454.478 514.926 454.55 514.53 454.586 514.08C454.82 514.494 455.072 514.872 455.324 515.25L458.096 519.498H458.546L461.336 515.25C461.606 514.872 461.858 514.476 462.074 514.098C462.092 514.494 462.146 514.908 462.218 515.34L463.172 522H465.242L463.442 509.67ZM469.73 520.146V516.672H474.644V514.872H469.73V511.614H475.328V509.76H467.624V522H475.49V520.146H469.73ZM486.297 509.76V516.438C486.297 516.942 486.297 517.5 486.333 518.076C485.919 517.608 485.523 517.176 485.127 516.762L478.683 509.688H477.873V522H479.961V515.034C479.961 514.602 479.943 514.152 479.889 513.702C480.249 514.098 480.609 514.494 480.915 514.818L487.557 522.072H488.367V509.76H486.297ZM499.415 509.76H490.361V511.704H493.835V522H495.941V511.704H499.415V509.76Z" fill="white"/>
<g opacity="0.1" filter="url(#filter6_b_134_250)">
<path d="M176.336 427.745C225.511 427.745 265.376 467.342 265.376 516.188C265.376 565.034 225.511 604.631 176.336 604.631C127.16 604.631 87.2948 565.034 87.2948 516.188C87.2948 467.342 127.16 427.745 176.336 427.745Z" fill="#56CCF2" fill-opacity="0.44"/>
<path d="M176.336 428.94C224.859 428.94 264.181 468.01 264.181 516.188C264.181 564.366 224.859 603.436 176.336 603.436C127.812 603.436 88.49 564.366 88.49 516.188C88.49 468.01 127.812 428.94 176.336 428.94Z" stroke="url(#paint6_linear_134_250)" stroke-width="2.39035"/>
</g>
<g filter="url(#filter7_b_134_250)">
<circle cx="176.731" cy="515.769" r="68.1103" fill="url(#paint7_linear_134_250)"/>
<circle cx="176.731" cy="515.769" r="67.2141" stroke="#3F79A9" stroke-width="1.79238"/>
</g>
<path d="M150.303 509.67H149.673L145.965 515.34C145.695 515.754 145.425 516.186 145.191 516.618C144.939 516.186 144.669 515.754 144.399 515.34L140.691 509.67H140.061L138.261 522H140.331L141.285 515.358C141.339 514.926 141.411 514.53 141.447 514.08C141.681 514.494 141.933 514.872 142.185 515.25L144.957 519.498H145.407L148.197 515.25C148.467 514.872 148.719 514.476 148.935 514.098C148.953 514.494 149.007 514.908 149.079 515.34L150.033 522H152.103L150.303 509.67ZM159.367 509.688H158.719L152.941 521.964V522H155.155L156.163 519.768H161.923L162.913 522H165.127V521.946L159.367 509.688ZM159.043 513.09C159.313 513.882 159.583 514.512 159.871 515.16L161.203 518.112H156.865L158.197 515.16C158.485 514.494 158.755 513.882 159.043 513.09ZM175.285 509.76V516.438C175.285 516.942 175.285 517.5 175.321 518.076C174.907 517.608 174.511 517.176 174.115 516.762L167.671 509.688H166.861V522H168.949V515.034C168.949 514.602 168.931 514.152 168.877 513.702C169.237 514.098 169.597 514.494 169.903 514.818L176.545 522.072H177.355V509.76H175.285ZM185.524 509.688H184.876L179.098 521.964V522H181.312L182.32 519.768H188.08L189.07 522H191.284V521.946L185.524 509.688ZM185.2 513.09C185.47 513.882 185.74 514.512 186.028 515.16L187.36 518.112H183.022L184.354 515.16C184.642 514.494 184.912 513.882 185.2 513.09ZM198.176 515.16V516.906H201.47V519.174C200.696 519.948 199.652 520.362 198.446 520.362C195.836 520.362 194.054 518.562 194.054 515.88C194.054 513.27 195.728 511.416 198.374 511.416C199.796 511.416 200.876 511.902 201.866 512.874L203.036 511.488C201.83 510.282 200.282 509.526 198.302 509.526C194.396 509.526 191.912 512.316 191.912 515.862C191.912 519.498 194.504 522.234 198.266 522.234C200.39 522.234 202.118 521.442 203.342 519.984V515.16H198.176ZM207.973 520.146V516.672H212.887V514.872H207.973V511.614H213.571V509.76H205.867V522H213.733V520.146H207.973Z" fill="white"/>
<g opacity="0.1" filter="url(#filter8_b_134_250)">
<path d="M89.0407 158.876C138.217 158.876 178.081 198.474 178.081 247.32C178.081 296.165 138.217 335.763 89.0407 335.763C39.8649 335.763 5.19256e-06 296.165 1.15979e-05 247.32C1.80033e-05 198.474 39.8649 158.876 89.0407 158.876Z" fill="#56CCF2" fill-opacity="0.44"/>
<path d="M89.0407 160.072C137.564 160.072 176.886 199.141 176.886 247.32C176.886 295.498 137.564 334.568 89.0407 334.568C40.5174 334.568 1.19518 295.498 1.19519 247.32C1.1952 199.141 40.5174 160.072 89.0407 160.072Z" stroke="url(#paint8_linear_134_250)" stroke-width="2.39035"/>
</g>
<g filter="url(#filter9_b_134_250)">
<circle cx="88.1881" cy="247.112" r="68.1103" fill="url(#paint9_linear_134_250)"/>
<circle cx="88.1881" cy="247.112" r="67.2141" stroke="#3F79A9" stroke-width="1.79238"/>
</g>
<path d="M67.7223 253H69.8283V248.536H72.3843C75.1023 248.536 76.5243 246.7 76.5243 244.702C76.5243 242.686 75.0663 240.76 72.4383 240.76H67.7223V253ZM69.8283 246.718V242.596H72.2043C73.5723 242.596 74.4183 243.532 74.4183 244.684C74.4183 245.728 73.7163 246.718 72.1683 246.718H69.8283ZM78.6383 253H86.0903V251.056H80.7443V240.76H78.6383V253ZM93.2755 240.688H92.6275L86.8495 252.964V253H89.0635L90.0715 250.768H95.8315L96.8215 253H99.0355V252.946L93.2755 240.688ZM92.9515 244.09C93.2215 244.882 93.4915 245.512 93.7795 246.16L95.1115 249.112H90.7735L92.1055 246.16C92.3935 245.494 92.6635 244.882 92.9515 244.09ZM109.193 240.76V247.438C109.193 247.942 109.193 248.5 109.229 249.076C108.815 248.608 108.419 248.176 108.023 247.762L101.579 240.688H100.769V253H102.857V246.034C102.857 245.602 102.839 245.152 102.785 244.702C103.145 245.098 103.505 245.494 103.811 245.818L110.453 253.072H111.263V240.76H109.193Z" fill="white"/>
<defs>
<filter id="filter0_b_134_250" x="212.396" y="-11.9518" width="201.985" height="200.79" filterUnits="userSpaceOnUse" color-interpolation-filters="sRGB">
<feFlood flood-opacity="0" result="BackgroundImageFix"/>
<feGaussianBlur in="BackgroundImage" stdDeviation="5.97589"/>
<feComposite in2="SourceAlpha" operator="in" result="effect1_backgroundBlur_134_250"/>
<feBlend mode="normal" in="SourceGraphic" in2="effect1_backgroundBlur_134_250" result="shape"/>
</filter>
<filter id="filter1_b_134_250" x="222.842" y="-1.92212" width="180.22" height="180.22" filterUnits="userSpaceOnUse" color-interpolation-filters="sRGB">
<feFlood flood-opacity="0" result="BackgroundImageFix"/>
<feGaussianBlur in="BackgroundImage" stdDeviation="11"/>
<feComposite in2="SourceAlpha" operator="in" result="effect1_backgroundBlur_134_250"/>
<feBlend mode="normal" in="SourceGraphic" in2="effect1_backgroundBlur_134_250" result="shape"/>
</filter>
<filter id="filter2_b_134_250" x="436.744" y="146.925" width="201.985" height="200.79" filterUnits="userSpaceOnUse" color-interpolation-filters="sRGB">
<feFlood flood-opacity="0" result="BackgroundImageFix"/>
<feGaussianBlur in="BackgroundImage" stdDeviation="5.97589"/>
<feComposite in2="SourceAlpha" operator="in" result="effect1_backgroundBlur_134_250"/>
<feBlend mode="normal" in="SourceGraphic" in2="effect1_backgroundBlur_134_250" result="shape"/>
</filter>
<filter id="filter3_b_134_250" x="447.606" y="157.001" width="180.22" height="180.22" filterUnits="userSpaceOnUse" color-interpolation-filters="sRGB">
<feFlood flood-opacity="0" result="BackgroundImageFix"/>
<feGaussianBlur in="BackgroundImage" stdDeviation="11"/>
<feComposite in2="SourceAlpha" operator="in" result="effect1_backgroundBlur_134_250"/>
<feBlend mode="normal" in="SourceGraphic" in2="effect1_backgroundBlur_134_250" result="shape"/>
</filter>
<filter id="filter4_b_134_250" x="348.576" y="415.793" width="201.985" height="200.79" filterUnits="userSpaceOnUse" color-interpolation-filters="sRGB">
<feFlood flood-opacity="0" result="BackgroundImageFix"/>
<feGaussianBlur in="BackgroundImage" stdDeviation="5.97589"/>
<feComposite in2="SourceAlpha" operator="in" result="effect1_backgroundBlur_134_250"/>
<feBlend mode="normal" in="SourceGraphic" in2="effect1_backgroundBlur_134_250" result="shape"/>
</filter>
<filter id="filter5_b_134_250" x="359.062" y="425.659" width="180.221" height="180.22" filterUnits="userSpaceOnUse" color-interpolation-filters="sRGB">
<feFlood flood-opacity="0" result="BackgroundImageFix"/>
<feGaussianBlur in="BackgroundImage" stdDeviation="11"/>
<feComposite in2="SourceAlpha" operator="in" result="effect1_backgroundBlur_134_250"/>
<feBlend mode="normal" in="SourceGraphic" in2="effect1_backgroundBlur_134_250" result="shape"/>
</filter>
<filter id="filter6_b_134_250" x="75.343" y="415.793" width="201.985" height="200.79" filterUnits="userSpaceOnUse" color-interpolation-filters="sRGB">
<feFlood flood-opacity="0" result="BackgroundImageFix"/>
<feGaussianBlur in="BackgroundImage" stdDeviation="5.97589"/>
<feComposite in2="SourceAlpha" operator="in" result="effect1_backgroundBlur_134_250"/>
<feBlend mode="normal" in="SourceGraphic" in2="effect1_backgroundBlur_134_250" result="shape"/>
</filter>
<filter id="filter7_b_134_250" x="86.6211" y="425.659" width="180.22" height="180.22" filterUnits="userSpaceOnUse" color-interpolation-filters="sRGB">
<feFlood flood-opacity="0" result="BackgroundImageFix"/>
<feGaussianBlur in="BackgroundImage" stdDeviation="11"/>
<feComposite in2="SourceAlpha" operator="in" result="effect1_backgroundBlur_134_250"/>
<feBlend mode="normal" in="SourceGraphic" in2="effect1_backgroundBlur_134_250" result="shape"/>
</filter>
<filter id="filter8_b_134_250" x="-11.9518" y="146.925" width="201.985" height="200.79" filterUnits="userSpaceOnUse" color-interpolation-filters="sRGB">
<feFlood flood-opacity="0" result="BackgroundImageFix"/>
<feGaussianBlur in="BackgroundImage" stdDeviation="5.97589"/>
<feComposite in2="SourceAlpha" operator="in" result="effect1_backgroundBlur_134_250"/>
<feBlend mode="normal" in="SourceGraphic" in2="effect1_backgroundBlur_134_250" result="shape"/>
</filter>
<filter id="filter9_b_134_250" x="-1.92212" y="157.002" width="180.22" height="180.22" filterUnits="userSpaceOnUse" color-interpolation-filters="sRGB">
<feFlood flood-opacity="0" result="BackgroundImageFix"/>
<feGaussianBlur in="BackgroundImage" stdDeviation="11"/>
<feComposite in2="SourceAlpha" operator="in" result="effect1_backgroundBlur_134_250"/>
<feBlend mode="normal" in="SourceGraphic" in2="effect1_backgroundBlur_134_250" result="shape"/>
</filter>
<linearGradient id="paint0_linear_134_250" x1="314.163" y1="-13.8433" x2="314.163" y2="176.886" gradientUnits="userSpaceOnUse">
<stop stop-color="#42DDFF"/>
<stop offset="1" stop-color="#4CD4FF" stop-opacity="0.24"/>
</linearGradient>
<linearGradient id="paint1_linear_134_250" x1="244.842" y1="33.6999" x2="381.062" y2="156.298" gradientUnits="userSpaceOnUse">
<stop stop-color="#3F79A9" stop-opacity="0.46"/>
<stop offset="1" stop-color="#3F79A9" stop-opacity="0"/>
</linearGradient>
<linearGradient id="paint2_linear_134_250" x1="538.51" y1="145.033" x2="538.51" y2="335.763" gradientUnits="userSpaceOnUse">
<stop stop-color="#42DDFF"/>
<stop offset="1" stop-color="#4CD4FF" stop-opacity="0.24"/>
</linearGradient>
<linearGradient id="paint3_linear_134_250" x1="469.606" y1="192.624" x2="605.826" y2="315.222" gradientUnits="userSpaceOnUse">
<stop stop-color="#3F79A9" stop-opacity="0.46"/>
<stop offset="1" stop-color="#3F79A9" stop-opacity="0"/>
</linearGradient>
<linearGradient id="paint4_linear_134_250" x1="450.343" y1="413.901" x2="450.343" y2="604.631" gradientUnits="userSpaceOnUse">
<stop stop-color="#42DDFF"/>
<stop offset="1" stop-color="#4CD4FF" stop-opacity="0.24"/>
</linearGradient>
<linearGradient id="paint5_linear_134_250" x1="381.062" y1="461.281" x2="517.283" y2="583.879" gradientUnits="userSpaceOnUse">
<stop stop-color="#3F79A9" stop-opacity="0.46"/>
<stop offset="1" stop-color="#3F79A9" stop-opacity="0"/>
</linearGradient>
<linearGradient id="paint6_linear_134_250" x1="177.11" y1="413.901" x2="177.11" y2="604.631" gradientUnits="userSpaceOnUse">
<stop stop-color="#42DDFF"/>
<stop offset="1" stop-color="#4CD4FF" stop-opacity="0.24"/>
</linearGradient>
<linearGradient id="paint7_linear_134_250" x1="108.621" y1="461.281" x2="244.842" y2="583.879" gradientUnits="userSpaceOnUse">
<stop stop-color="#3F79A9" stop-opacity="0.46"/>
<stop offset="1" stop-color="#3F79A9" stop-opacity="0"/>
</linearGradient>
<linearGradient id="paint8_linear_134_250" x1="89.815" y1="145.033" x2="89.815" y2="335.763" gradientUnits="userSpaceOnUse">
<stop stop-color="#42DDFF"/>
<stop offset="1" stop-color="#4CD4FF" stop-opacity="0.24"/>
</linearGradient>
<linearGradient id="paint9_linear_134_250" x1="20.0779" y1="192.624" x2="156.298" y2="315.222" gradientUnits="userSpaceOnUse">
<stop stop-color="#3F79A9" stop-opacity="0.46"/>
<stop offset="1" stop-color="#3F79A9" stop-opacity="0"/>
</linearGradient>
</defs>
</svg>
