<svg width="64" height="64" viewBox="0 0 64 64" fill="none" xmlns="http://www.w3.org/2000/svg">
<g clip-path="url(#clip0_134_138)">
<path d="M57.3792 46.3452V35.3109H39.7242V29.7937H37.5173V37.5177H55.1723V46.3452H57.3792Z" fill="white"/>
<path d="M7.72457 27.5868H56.2757C60.5354 27.5868 63.9998 24.1219 63.9998 19.8628C63.9998 15.6032 60.5354 12.1388 56.2757 12.1388H52.9654V11.0353C52.9654 4.95081 48.0156 0.000976562 41.9311 0.000976562C38.3487 0.000976562 34.9753 1.7585 32.9053 4.70135L32.0028 5.98582L31.0998 4.70135C29.0309 1.7585 25.6554 0.000976562 22.0692 0.000976562C15.9852 0.000976562 11.0349 4.95081 11.0349 11.0353L10.9966 12.739L9.65235 12.3925C8.99395 12.2223 8.35171 12.1388 7.72026 12.1388C6.88837 12.1388 6.07426 12.2864 5.26177 12.5833C2.01882 13.7697 -0.0458157 16.6716 0.000519896 19.9765C0.0614027 24.1726 3.52634 27.5868 7.72457 27.5868V27.5868ZM35.3105 16.5525H37.5173V18.7594H35.3105V16.5525ZM30.8967 16.5525H33.1036V18.7594H30.8967V16.5525ZM26.483 16.5525H28.6898V18.7594H26.483V16.5525ZM39.7242 20.9662V16.5525H41.9311V23.1731H17.6555V20.9662H39.7242ZM22.0692 2.20785V4.41472C18.4184 4.41472 15.4486 7.38397 15.4486 11.0353H13.2417C13.2417 6.16793 17.2024 2.20785 22.0692 2.20785Z" fill="white"/>
<path d="M6.62109 35.3109V46.3452H8.82796V37.5177H26.4829V29.7937H24.2761V35.3109H6.62109Z" fill="white"/>
<path d="M24.2761 64.0002H39.7242V57.3796H24.2761V64.0002ZM34.207 59.5865H36.4139V61.7934H34.207V59.5865ZM27.5864 59.5865H29.7933V61.7934H27.5864V59.5865Z" fill="white"/>
<path d="M24.2761 55.1726H39.7242V48.552H24.2761V55.1726ZM34.207 50.7589H36.4139V52.9657H34.207V50.7589ZM27.5864 50.7589H29.7933V52.9657H27.5864V50.7589Z" fill="white"/>
<path d="M0.000488281 64.0002H15.4486V57.3796H0.000488281V64.0002ZM9.9314 59.5865H12.1383V61.7934H9.9314V59.5865ZM3.31079 59.5865H5.51766V61.7934H3.31079V59.5865Z" fill="white"/>
<path d="M0.000488281 55.1726H15.4486V48.552H0.000488281V55.1726ZM9.9314 50.7589H12.1383V52.9657H9.9314V50.7589ZM3.31079 50.7589H5.51766V52.9657H3.31079V50.7589Z" fill="white"/>
<path d="M30.8967 29.7937H33.1036V46.3452H30.8967V29.7937Z" fill="white"/>
<path d="M48.5518 55.1726H63.9998V48.552H48.5518V55.1726ZM58.4827 50.7589H60.6895V52.9657H58.4827V50.7589ZM51.8621 50.7589H54.0689V52.9657H51.8621V50.7589Z" fill="white"/>
<path d="M48.5518 64.0002H63.9998V57.3796H48.5518V64.0002ZM58.4827 59.5865H60.6895V61.7934H58.4827V59.5865ZM51.8621 59.5865H54.0689V61.7934H51.8621V59.5865Z" fill="white"/>
</g>
<defs>
<clipPath id="clip0_134_138">
<rect width="64" height="64" fill="white"/>
</clipPath>
</defs>
</svg>
