<svg width="64" height="64" viewBox="0 0 64 64" fill="none" xmlns="http://www.w3.org/2000/svg">
<path d="M19.521 28.9999H22.895C23.263 27.7049 23.733 26.5779 24.286 25.6589C22.412 26.3339 20.768 27.4929 19.521 28.9999Z" fill="white"/>
<path d="M28 25C26.925 25 25.78 26.527 24.991 29H31.007C30.227 26.584 29.062 25 28 25V25Z" fill="white"/>
<path d="M17.051 35H22.022C22.068 33.581 22.206 32.237 22.431 31H18.214C17.588 32.221 17.18 33.57 17.051 35Z" fill="white"/>
<path d="M36.479 43H33.105C32.737 44.295 32.267 45.422 31.714 46.341C33.588 45.666 35.232 44.507 36.479 43Z" fill="white"/>
<path d="M24.286 46.341C23.733 45.422 23.263 44.295 22.895 43H19.521C20.768 44.507 22.412 45.666 24.286 46.341V46.341Z" fill="white"/>
<path d="M18.214 41H22.431C22.206 39.763 22.067 38.419 22.022 37H17.051C17.18 38.43 17.588 39.779 18.214 41Z" fill="white"/>
<path d="M38.949 37H33.978C33.932 38.419 33.794 39.763 33.569 41H37.786C38.412 39.779 38.82 38.43 38.949 37V37Z" fill="white"/>
<path d="M54.382 18L55.935 14.895C55.978 14.81 56 14.714 56 14.618C56 14.277 55.723 14 55.382 14H45.02L45.82 18H54.382Z" fill="white"/>
<path d="M55 22C55.5523 22 56 21.5523 56 21C56 20.4477 55.5523 20 55 20C54.4477 20 54 20.4477 54 21C54 21.5523 54.4477 22 55 22Z" fill="white"/>
<path d="M24.021 35H31.964C31.93 34.054 31.86 33.124 31.731 32.228C31.405 31.894 31.171 31.472 31.065 31H24.481C24.237 32.209 24.073 33.553 24.021 35V35Z" fill="white"/>
<path d="M45 22C45.5523 22 46 21.5523 46 21C46 20.4477 45.5523 20 45 20C44.4477 20 44 20.4477 44 21C44 21.5523 44.4477 22 45 22Z" fill="white"/>
<path d="M36.604 22.248L33.05 30.106C33.017 30.178 33 30.257 33 30.336V30.443C33 30.853 33.498 31.132 33.852 30.916L40.633 26.711L41.16 27.038C43.735 28.638 46.687 29.278 49.705 28.89C55.486 28.144 60.194 23.414 60.899 17.645C61.391 13.623 60.05 9.68198 57.22 6.83498C54.756 4.35598 51.457 3.00098 47.991 3.00098C47.476 3.00098 46.958 3.02998 46.438 3.09098C40.792 3.74798 36.169 8.12298 35.198 13.731C34.716 16.512 35.128 19.31 36.39 21.822L36.604 22.248ZM39 7.99998H43.82L44.62 12H55.382C56.826 12 58 13.175 58 14.618C58 15.022 57.904 15.428 57.724 15.789L56.429 18.379C57.36 18.888 58 19.866 58 21C58 22.654 56.654 24 55 24C53.346 24 52 22.654 52 21C52 20.648 52.072 20.314 52.184 20H47.815C47.928 20.314 48 20.648 48 21C48 22.654 46.654 24 45 24C43.346 24 42 22.654 42 21C42 19.761 42.755 18.696 43.828 18.239L42.18 9.99998H39V7.99998Z" fill="white"/>
<path d="M28 47C29.075 47 30.22 45.473 31.009 43H24.991C25.78 45.473 26.925 47 28 47Z" fill="white"/>
<path d="M31.979 37H24.021C24.073 38.447 24.238 39.791 24.481 41H31.519C31.763 39.791 31.927 38.447 31.979 37V37Z" fill="white"/>
<path d="M32.677 26.0769C32.368 25.9309 32.055 25.7989 31.735 25.6819C31.945 26.0369 32.142 26.4279 32.328 26.8479L32.677 26.0769Z" fill="white"/>
<path d="M14.279 45.9951L4.347 54.3351C3.491 55.0551 3 56.1071 3 57.2261C3 59.3071 4.693 61.0001 6.774 61.0001C7.892 61.0001 8.946 60.5091 9.665 59.6521L18.004 49.7211C16.578 48.6781 15.321 47.4221 14.279 45.9951V45.9951ZM7.707 57.7071L6.293 56.2931L7.636 54.9501L9.05 56.3641L7.707 57.7071ZM10.464 54.9491L9.05 53.5351L10.464 52.1211L11.878 53.5351L10.464 54.9491ZM13.293 52.1211L11.879 50.7071L13.293 49.2931L14.707 50.7071L13.293 52.1211Z" fill="white"/>
<path d="M43 36C43 33.731 42.481 31.546 41.486 29.492C41.203 29.354 40.92 29.215 40.643 29.058L39.424 29.814C40.456 31.712 41 33.831 41 36C41 43.168 35.168 49 28 49C20.832 49 15 43.168 15 36C15 28.832 20.832 23 28 23C29.901 23 31.775 23.447 33.5 24.257L34.325 22.434C32.325 21.496 30.203 21 28 21C19.729 21 13 27.729 13 36C13 44.271 19.729 51 28 51C36.271 51 43 44.271 43 36Z" fill="white"/>
<path d="M37.719 30.8711L34.9039 32.6161C34.5759 32.8191 34.204 32.9221 33.825 32.9621C33.895 33.6311 33.941 34.3091 33.964 34.9991H38.949C38.817 33.5551 38.4 32.1551 37.719 30.8711V30.8711Z" fill="white"/>
<path d="M24 9C24.5523 9 25 8.55228 25 8C25 7.44772 24.5523 7 24 7C23.4477 7 23 7.44772 23 8C23 8.55228 23.4477 9 24 9Z" fill="white"/>
<path d="M16 9C16.5523 9 17 8.55228 17 8C17 7.44772 16.5523 7 16 7C15.4477 7 15 7.44772 15 8C15 8.55228 15.4477 9 16 9Z" fill="white"/>
<path d="M8.586 15L13.879 20.294C14.329 20.742 14.951 21 15.586 21C16.917 21 18 19.917 18 18.586V15H28C29.654 15 31 13.654 31 12V4C31 2.346 29.654 1 28 1H4C2.346 1 1 2.346 1 4V12C1 13.654 2.346 15 4 15H8.586ZM24 5C25.654 5 27 6.346 27 8C27 9.654 25.654 11 24 11C22.346 11 21 9.654 21 8C21 6.346 22.346 5 24 5ZM16 5C17.654 5 19 6.346 19 8C19 9.654 17.654 11 16 11C14.346 11 13 9.654 13 8C13 6.346 14.346 5 16 5ZM8 5C9.654 5 11 6.346 11 8C11 9.654 9.654 11 8 11C6.346 11 5 9.654 5 8C5 6.346 6.346 5 8 5Z" fill="white"/>
<path d="M8 9C8.55228 9 9 8.55228 9 8C9 7.44772 8.55228 7 8 7C7.44772 7 7 7.44772 7 8C7 8.55228 7.44772 9 8 9Z" fill="white"/>
<path d="M55 35V61H53V45H45V61H43V53H35V63H63V35H55Z" fill="white"/>
</svg>
