<svg width="64" height="64" viewBox="0 0 64 64" fill="none" xmlns="http://www.w3.org/2000/svg">
<path d="M32 35.5C35.0376 35.5 37.5 33.0376 37.5 30C37.5 26.9624 35.0376 24.5 32 24.5C28.9624 24.5 26.5 26.9624 26.5 30C26.5 33.0376 28.9624 35.5 32 35.5Z" fill="white"/>
<path d="M32.0001 38.5C30.0081 38.503 28.058 39.0725 26.3773 40.1419C24.6967 41.2114 23.3548 42.7367 22.5083 44.5399L23.2013 45.7402C23.3329 45.9683 23.5222 46.1576 23.7502 46.2893C23.9782 46.421 24.2368 46.4903 24.5001 46.4902H39.5001C39.7634 46.4903 40.0221 46.421 40.2501 46.2893C40.4781 46.1576 40.6674 45.9683 40.799 45.7402L41.492 44.5399C40.6454 42.7367 39.3036 41.2114 37.6229 40.1419C35.9423 39.0725 33.9922 38.503 32.0001 38.5V38.5Z" fill="white"/>
<path d="M48.2988 31.25L40.7988 18.2598C40.6672 18.0317 40.4779 17.8424 40.2499 17.7107C40.0219 17.579 39.7633 17.5097 39.5 17.5098H24.5C24.2367 17.5097 23.9781 17.579 23.7501 17.7107C23.5221 17.8424 23.3328 18.0317 23.2012 18.2598L15.7012 31.25C15.5692 31.4779 15.4998 31.7366 15.4998 32C15.4998 32.2634 15.5692 32.5221 15.7012 32.75L20.7674 41.5248C22.2179 39.3521 24.2645 37.6439 26.6616 36.6052C25.2934 35.5009 24.3013 33.9996 23.822 32.308C23.3426 30.6163 23.3997 28.8177 23.9852 27.1599C24.5708 25.502 25.656 24.0665 27.0914 23.0512C28.5268 22.0359 30.2418 21.4907 32 21.4907C33.7582 21.4907 35.4732 22.0359 36.9086 23.0512C38.344 24.0665 39.4292 25.502 40.0148 27.1599C40.6003 28.8177 40.6573 30.6163 40.178 32.308C39.6987 33.9996 38.7066 35.5009 37.3384 36.6052C39.7355 37.6439 41.782 39.3521 43.2326 41.5248L48.2988 32.75C48.4308 32.5221 48.5002 32.2634 48.5002 32C48.5002 31.7366 48.4308 31.4779 48.2988 31.25V31.25Z" fill="white"/>
<path d="M32 0.500021C30.8068 0.496564 29.6518 0.921225 28.745 1.69687C27.8381 2.47251 27.2396 3.54768 27.058 4.72709C26.8765 5.9065 27.124 7.1119 27.7556 8.12435C28.3872 9.13681 29.361 9.88914 30.5 10.2447V13.0098C30.5 13.4076 30.6581 13.7891 30.9394 14.0704C31.2207 14.3518 31.6022 14.5098 32 14.5098C32.3979 14.5098 32.7794 14.3518 33.0607 14.0704C33.342 13.7891 33.5 13.4076 33.5 13.0098V10.2447C34.6391 9.88914 35.6129 9.13681 36.2445 8.12435C36.8761 7.1119 37.1236 5.9065 36.942 4.72709C36.7605 3.54768 36.1619 2.47251 35.2551 1.69687C34.3483 0.921225 33.1933 0.496564 32 0.500021V0.500021ZM32 7.50002C31.6045 7.50002 31.2178 7.38272 30.8889 7.16296C30.56 6.9432 30.3037 6.63084 30.1523 6.26539C30.0009 5.89994 29.9613 5.4978 30.0385 5.10984C30.1156 4.72188 30.3061 4.36551 30.5858 4.08581C30.8655 3.8061 31.2219 3.61562 31.6099 3.53845C31.9978 3.46128 32.4 3.50089 32.7654 3.65226C33.1309 3.80364 33.4432 4.05998 33.663 4.38888C33.8827 4.71778 34 5.10446 34 5.50002C33.9994 6.03024 33.7884 6.53855 33.4135 6.91347C33.0386 7.2884 32.5303 7.49933 32 7.50002V7.50002Z" fill="white"/>
<path d="M40.8106 8.60162C43.3657 9.56349 45.7453 10.9386 47.8546 12.6719C48.1621 12.9234 48.5568 13.0425 48.9521 13.0033C49.3474 12.9641 49.7111 12.7697 49.9632 12.4627C50.2153 12.1557 50.3354 11.7613 50.2971 11.3659C50.2588 10.9705 50.0652 10.6064 49.7589 10.3536C47.3967 8.41179 44.7312 6.87171 41.8692 5.79499C41.6849 5.72548 41.4887 5.69295 41.2919 5.69926C41.095 5.70556 40.9013 5.75058 40.7219 5.83174C40.5424 5.9129 40.3807 6.02862 40.246 6.17227C40.1112 6.31593 40.0061 6.48472 39.9366 6.66901C39.8671 6.8533 39.8346 7.04947 39.8409 7.24633C39.8472 7.44319 39.8922 7.63687 39.9733 7.81633C40.0545 7.99579 40.1702 8.15751 40.3139 8.29225C40.4575 8.42699 40.6263 8.53212 40.8106 8.60162V8.60162Z" fill="white"/>
<path d="M4.72011 16.25C4.12047 17.2817 3.91076 18.4943 4.12908 19.6674C4.34739 20.8406 4.97924 21.8965 5.90987 22.6434C6.84049 23.3904 8.00815 23.7787 9.20075 23.738C10.3934 23.6972 11.5318 23.2301 12.4093 22.4214L14.8039 23.8039C15.1484 24.0029 15.5579 24.0568 15.9421 23.9538C16.3264 23.8508 16.654 23.5994 16.8529 23.2549C17.0519 22.9104 17.1058 22.5009 17.0028 22.1167C16.8998 21.7324 16.6484 21.4048 16.3039 21.2059L13.9093 19.8233C14.1709 18.6591 14.0063 17.4396 13.4453 16.3863C12.8843 15.3331 11.9641 14.5161 10.8519 14.0836C9.73972 13.6511 8.5093 13.6319 7.38415 14.0294C6.259 14.4269 5.31375 15.2149 4.72011 16.25V16.25ZM10.7823 19.75C10.5845 20.0926 10.2896 20.3688 9.93481 20.5438C9.58003 20.7187 9.18135 20.7845 8.78917 20.7329C8.39699 20.6813 8.02893 20.5145 7.73154 20.2537C7.43414 19.9928 7.22077 19.6497 7.11839 19.2676C7.01602 18.8855 7.02925 18.4817 7.1564 18.1071C7.28356 17.7325 7.51894 17.4041 7.83276 17.1633C8.14659 16.9225 8.52477 16.7802 8.91949 16.7543C9.31421 16.7284 9.70773 16.8202 10.0503 17.018C10.5091 17.2837 10.8439 17.7205 10.9811 18.2327C11.1183 18.7448 11.0468 19.2905 10.7823 19.75Z" fill="white"/>
<path d="M16.1417 12.6705C18.2523 10.9387 20.633 9.56541 23.1887 8.60544C23.3731 8.53612 23.5421 8.43117 23.6859 8.29656C23.8298 8.16196 23.9457 8.00034 24.0271 7.82094C24.1084 7.64154 24.1537 7.44787 24.1602 7.25098C24.1667 7.05409 24.1344 6.85785 24.0651 6.67345C23.9958 6.48905 23.8908 6.32011 23.7562 6.17628C23.6216 6.03244 23.46 5.91652 23.2806 5.83515C23.1012 5.75377 22.9075 5.70852 22.7106 5.702C22.5138 5.69547 22.3175 5.72778 22.1331 5.7971C19.2704 6.87191 16.6039 8.41021 14.2404 10.3504C14.0879 10.4752 13.9615 10.6288 13.8684 10.8025C13.7753 10.9762 13.7173 11.1665 13.6978 11.3626C13.6783 11.5586 13.6976 11.7567 13.7546 11.9453C13.8117 12.1339 13.9053 12.3094 14.0302 12.4618C14.1551 12.6142 14.3088 12.7405 14.4826 12.8335C14.6563 12.9265 14.8466 12.9843 15.0427 13.0037C15.2388 13.0231 15.4368 13.0036 15.6254 12.9465C15.814 12.8893 15.9894 12.7955 16.1418 12.6705H16.1417Z" fill="white"/>
<path d="M4.72015 47.75C5.3138 48.7852 6.25904 49.573 7.38418 49.9706C8.50933 50.3681 9.73973 50.3488 10.8519 49.9164C11.9641 49.4839 12.8842 48.6668 13.4452 47.6136C14.0063 46.5604 14.1709 45.341 13.9093 44.1767L16.3039 42.7942C16.6485 42.5952 16.8999 42.2676 17.0028 41.8834C17.1058 41.4991 17.0519 41.0897 16.853 40.7451C16.6541 40.4006 16.3264 40.1492 15.9422 40.0462C15.5579 39.9433 15.1485 39.9972 14.8039 40.1961L12.4093 41.5786C11.5319 40.7699 10.3934 40.3027 9.2008 40.262C8.00818 40.2212 6.84051 40.6096 5.90987 41.3565C4.97924 42.1034 4.34738 43.1594 4.12907 44.3326C3.91076 45.5057 4.12049 46.7183 4.72015 47.75V47.75ZM10.7823 44.25C10.9801 44.5926 11.0719 44.9861 11.046 45.3808C11.0201 45.7755 10.8778 46.1537 10.637 46.4675C10.3962 46.7814 10.0677 47.0167 9.69317 47.1439C9.31859 47.271 8.91473 47.2843 8.53264 47.1819C8.15055 47.0795 7.80741 46.8661 7.5466 46.5687C7.28578 46.2713 7.11902 45.9032 7.06739 45.511C7.01577 45.1189 7.0816 44.7202 7.25656 44.3654C7.43152 44.0106 7.70775 43.7157 8.05032 43.518C8.50985 43.2535 9.05551 43.182 9.56765 43.3192C10.0798 43.4564 10.5166 43.7912 10.7823 44.25Z" fill="white"/>
<path d="M32 63.5C33.1933 63.5035 34.3483 63.0788 35.2551 62.3032C36.1619 61.5275 36.7605 60.4523 36.942 59.2729C37.1236 58.0935 36.8761 56.8881 36.2445 55.8757C35.6129 54.8632 34.6391 54.1109 33.5 53.7553V50.9902C33.5 50.5924 33.342 50.2109 33.0607 49.9296C32.7794 49.6483 32.3979 49.4902 32 49.4902C31.6022 49.4902 31.2207 49.6483 30.9394 49.9296C30.6581 50.2109 30.5 50.5924 30.5 50.9902V53.7553C29.361 54.1109 28.3872 54.8632 27.7556 55.8757C27.124 56.8881 26.8765 58.0935 27.058 59.2729C27.2396 60.4523 27.8381 61.5275 28.745 62.3032C29.6518 63.0788 30.8068 63.5035 32 63.5V63.5ZM32 56.5C32.3956 56.5 32.7823 56.6173 33.1112 56.8371C33.4401 57.0568 33.6964 57.3692 33.8478 57.7346C33.9992 58.1001 34.0388 58.5022 33.9616 58.8902C33.8844 59.2781 33.694 59.6345 33.4143 59.9142C33.1346 60.1939 32.7782 60.3844 32.3902 60.4616C32.0023 60.5387 31.6001 60.4991 31.2347 60.3478C30.8692 60.1964 30.5569 59.94 30.3371 59.6111C30.1173 59.2822 30 58.8956 30 58.5C30.0007 57.9698 30.2117 57.4615 30.5866 57.0866C30.9615 56.7116 31.4698 56.5007 32 56.5V56.5Z" fill="white"/>
<path d="M23.1896 55.3985C20.6345 54.4367 18.2548 53.0616 16.1456 51.3282C15.8381 51.0768 15.4433 50.9576 15.048 50.9968C14.6527 51.0361 14.2891 51.2305 14.037 51.5375C13.7848 51.8444 13.6647 52.2389 13.703 52.6343C13.7413 53.0297 13.9349 53.3937 14.2413 53.6466C16.6035 55.5884 19.2689 57.1285 22.131 58.2052C22.5031 58.3456 22.9159 58.3323 23.2783 58.1684C23.6407 58.0045 23.9232 57.7033 24.0636 57.3312C24.204 56.959 24.1907 56.5463 24.0268 56.1838C23.8629 55.8214 23.5617 55.5389 23.1896 55.3985V55.3985Z" fill="white"/>
<path d="M59.2798 47.75C59.8795 46.7183 60.0892 45.5058 59.8709 44.3326C59.6526 43.1594 59.0207 42.1035 58.0901 41.3566C57.1595 40.6096 55.9918 40.2213 54.7992 40.262C53.6066 40.3028 52.4682 40.7699 51.5907 41.5786L49.196 40.1961C49.0255 40.0976 48.8371 40.0337 48.6418 40.0079C48.4465 39.9822 48.2481 39.9952 48.0578 40.0462C47.8675 40.0972 47.6892 40.1852 47.5329 40.3051C47.3766 40.425 47.2455 40.5745 47.147 40.7451C47.0485 40.9157 46.9846 41.104 46.9589 41.2993C46.9332 41.4946 46.9462 41.6931 46.9972 41.8834C47.0481 42.0736 47.1361 42.252 47.256 42.4083C47.3759 42.5645 47.5255 42.6957 47.696 42.7942L50.0907 44.1767C49.829 45.341 49.9937 46.5605 50.5547 47.6137C51.1157 48.6669 52.0359 49.484 53.148 49.9165C54.2602 50.3489 55.4907 50.3682 56.6158 49.9706C57.741 49.5731 58.6862 48.7852 59.2798 47.75V47.75ZM53.2177 44.25C53.4154 43.9074 53.7104 43.6312 54.0651 43.4563C54.4199 43.2813 54.8186 43.2155 55.2108 43.2671C55.6029 43.3187 55.971 43.4855 56.2684 43.7463C56.5658 44.0071 56.7792 44.3503 56.8816 44.7324C56.9839 45.1144 56.9707 45.5183 56.8436 45.8929C56.7164 46.2674 56.4811 46.5959 56.1672 46.8367C55.8534 47.0775 55.4752 47.2198 55.0805 47.2457C54.6858 47.2716 54.2923 47.1798 53.9497 46.9821C53.4909 46.7163 53.1561 46.2795 53.0189 45.7674C52.8817 45.2552 52.9532 44.7095 53.2177 44.25V44.25Z" fill="white"/>
<path d="M47.8584 51.3295C45.7479 53.0613 43.3672 54.4346 40.8114 55.3946C40.627 55.4639 40.458 55.5688 40.3142 55.7034C40.1704 55.838 40.0545 55.9997 39.9731 56.1791C39.8917 56.3585 39.8465 56.5521 39.8399 56.749C39.8334 56.9459 39.8657 57.1421 39.935 57.3265C40.0043 57.5109 40.1093 57.6799 40.2439 57.8237C40.3785 57.9676 40.5401 58.0835 40.7195 58.1648C40.8989 58.2462 41.0926 58.2915 41.2895 58.298C41.4864 58.3045 41.6826 58.2722 41.867 58.2029C44.7298 57.1281 47.3962 55.5898 49.7597 53.6496C49.9122 53.5248 50.0386 53.3712 50.1317 53.1975C50.2248 53.0238 50.2828 52.8335 50.3023 52.6374C50.3219 52.4414 50.3025 52.2433 50.2455 52.0547C50.1885 51.8661 50.0948 51.6906 49.9699 51.5382C49.845 51.3858 49.6913 51.2595 49.5176 51.1665C49.3438 51.0735 49.1535 51.0157 48.9574 50.9963C48.7613 50.9769 48.5633 50.9964 48.3747 51.0535C48.1862 51.1107 48.0107 51.2045 47.8584 51.3295H47.8584Z" fill="white"/>
<path d="M59.2799 16.2499C58.6862 15.2148 57.741 14.4269 56.6158 14.0294C55.4907 13.6319 54.2603 13.6511 53.1481 14.0836C52.0359 14.5161 51.1158 15.3331 50.5547 16.3863C49.9937 17.4395 49.8291 18.659 50.0907 19.8233L47.6961 21.2058C47.3515 21.4047 47.1001 21.7323 46.9972 22.1166C46.8942 22.5009 46.9481 22.9103 47.147 23.2548C47.3459 23.5994 47.6736 23.8508 48.0578 23.9537C48.4421 24.0567 48.8515 24.0028 49.1961 23.8039L51.5907 22.4213C52.4681 23.2301 53.6066 23.6972 54.7992 23.738C55.9918 23.7787 57.1595 23.3904 58.0901 22.6434C59.0208 21.8965 59.6526 20.8406 59.8709 19.6674C60.0892 18.4942 59.8795 17.2816 59.2799 16.2499V16.2499ZM53.2177 19.7499C53.0199 19.4074 52.9281 19.0139 52.954 18.6191C52.9799 18.2244 53.1222 17.8462 53.363 17.5324C53.6038 17.2186 53.9323 16.9832 54.3068 16.8561C54.6814 16.7289 55.0853 16.7157 55.4674 16.8181C55.8494 16.9205 56.1926 17.1339 56.4534 17.4313C56.7142 17.7287 56.881 18.0967 56.9326 18.4889C56.9842 18.8811 56.9184 19.2798 56.7435 19.6345C56.5685 19.9893 56.2923 20.2842 55.9497 20.482C55.4902 20.7465 54.9445 20.818 54.4324 20.6808C53.9202 20.5435 53.4834 20.2088 53.2177 19.7499V19.7499Z" fill="white"/>
<path d="M56.6669 27.9308C57.1115 30.6245 57.1105 33.3729 56.6639 36.0662C56.599 36.4587 56.6926 36.861 56.9242 37.1845C57.1558 37.508 57.5064 37.7262 57.8989 37.7912C58.2914 37.8561 58.6936 37.7625 59.0171 37.5309C59.3406 37.2993 59.5589 36.9487 59.6238 36.5562C60.1244 33.5396 60.1254 30.4612 59.6268 27.4443C59.5949 27.2499 59.525 27.0638 59.4211 26.8965C59.3172 26.7291 59.1814 26.5839 59.0214 26.4691C58.8613 26.3542 58.6803 26.272 58.4885 26.2272C58.2967 26.1823 58.098 26.1757 57.9036 26.2076C57.7093 26.2396 57.5231 26.3095 57.3558 26.4134C57.1884 26.5172 57.0432 26.6531 56.9284 26.8131C56.8135 26.9731 56.7313 27.1542 56.6865 27.346C56.6416 27.5377 56.635 27.7365 56.6669 27.9308L56.6669 27.9308Z" fill="white"/>
<path d="M7.33306 27.9308C6.88853 30.6245 6.88955 33.3729 7.33606 36.0662C7.36823 36.2606 7.36181 36.4594 7.31716 36.6512C7.27251 36.8431 7.19051 37.0243 7.07583 37.1845C6.96116 37.3446 6.81606 37.4807 6.64881 37.5848C6.48157 37.6889 6.29546 37.759 6.10111 37.7912C5.90676 37.8233 5.70798 37.8169 5.51611 37.7723C5.32424 37.7276 5.14305 37.6456 4.98287 37.5309C4.82269 37.4163 4.68667 37.2712 4.58257 37.1039C4.47847 36.9367 4.40833 36.7506 4.37616 36.5562C3.87562 33.5396 3.87461 30.4612 4.37316 27.4443C4.40511 27.2499 4.47502 27.0638 4.57891 26.8965C4.6828 26.7291 4.81864 26.5839 4.97865 26.4691C5.13867 26.3542 5.31974 26.272 5.51152 26.2272C5.7033 26.1823 5.90204 26.1757 6.0964 26.2076C6.29075 26.2396 6.4769 26.3095 6.64423 26.4134C6.81156 26.5172 6.95679 26.6531 7.07163 26.8131C7.18647 26.9731 7.26866 27.1542 7.31352 27.346C7.35838 27.5377 7.36503 27.7365 7.33308 27.9308L7.33306 27.9308Z" fill="white"/>
</svg>
