<svg width="64" height="64" viewBox="0 0 64 64" fill="none" xmlns="http://www.w3.org/2000/svg">
<path d="M35.2 24.5332C35.2 22.7659 33.7674 21.3333 32 21.3333C30.2327 21.3333 28.8 22.7659 28.8 24.5332V26.6666H35.2V24.5332Z" fill="white"/>
<path d="M37.3333 28.8H26.6666C26.0775 28.8 25.6 29.2776 25.6 29.8667V39.4667C25.6 40.0558 26.0775 40.5334 26.6666 40.5334H37.3333C37.9224 40.5334 38.4 40.0558 38.4 39.4667V29.8667C38.4 29.2776 37.9224 28.8 37.3333 28.8ZM33.0666 37.1414V37.3334C33.0666 37.9225 32.5891 38.4 32 38.4C31.4109 38.4 30.9333 37.9225 30.9333 37.3334V37.1414C29.4639 36.6219 28.5825 35.1193 28.8461 33.5833C29.1096 32.0472 30.4415 30.9244 32 30.9244C33.5585 30.9244 34.8903 32.0472 35.1539 33.5833C35.4174 35.1193 34.536 36.6219 33.0666 37.1414Z" fill="white"/>
<path d="M32 16C23.1634 16 16 23.1634 16 32C16 40.8365 23.1634 48 32 48C40.8365 48 48 40.8365 48 32C47.9894 23.1678 40.8322 16.0106 32 16ZM40.5333 39.4667C40.5281 41.2318 39.0984 42.6614 37.3333 42.6667H26.6667C24.9015 42.6614 23.4719 41.2318 23.4667 39.4667V29.8667C23.4719 28.1015 24.9015 26.6719 26.6667 26.6667V24.5333C26.6667 21.5878 29.0545 19.2 32 19.2C34.9455 19.2 37.3333 21.5878 37.3333 24.5333V26.6667C39.0984 26.6719 40.5281 28.1015 40.5333 29.8667V39.4667Z" fill="white"/>
<path d="M32 35.2C32.5891 35.2 33.0667 34.7224 33.0667 34.1333C33.0667 33.5442 32.5891 33.0667 32 33.0667C31.4109 33.0667 30.9333 33.5442 30.9333 34.1333C30.9333 34.7224 31.4109 35.2 32 35.2Z" fill="white"/>
<path d="M10.6667 6.39997C11.4255 6.39769 12.1255 5.99117 12.5035 5.33331H22.4V12.4501C22.4 12.4928 22.4203 12.5344 22.4256 12.577C22.4368 12.6875 22.4652 12.7954 22.5099 12.897C22.5542 12.9921 22.6133 13.0796 22.6848 13.1562C22.7206 13.1949 22.7595 13.2306 22.8011 13.2629C22.8533 13.3057 22.9094 13.3435 22.9686 13.376C23.0179 13.4033 23.0693 13.4268 23.1222 13.4464C23.1984 13.4706 23.2771 13.4863 23.3568 13.4933C23.3919 13.5029 23.4275 13.5104 23.4635 13.5157C23.6163 13.5125 23.7667 13.4761 23.904 13.409C25.2035 12.8456 26.5584 12.4202 27.9467 12.1397C28.5243 12.0219 28.8971 11.4581 28.7792 10.8805C28.6614 10.3029 28.0977 9.93015 27.52 10.048C26.5063 10.2554 25.5083 10.5334 24.5334 10.88V5.33331C24.5334 4.1551 23.5783 3.19997 22.4 3.19997H12.5035C11.9852 2.30223 10.8965 1.90703 9.92299 2.26322C8.94947 2.61941 8.3729 3.62387 8.55633 4.64415C8.73976 5.66443 9.63008 6.40518 10.6667 6.39997V6.39997Z" fill="white"/>
<path d="M53.3333 57.6C52.5746 57.6022 51.8746 58.0088 51.4965 58.6666H41.6V52.2186C43.9849 51.096 46.1518 49.5593 48 47.68C48.2732 47.4091 48.3794 47.0121 48.278 46.641C48.1765 46.27 47.883 45.9823 47.51 45.8881C47.137 45.794 46.7422 45.9081 46.4768 46.1866C44.6657 48.0382 42.5158 49.5247 40.144 50.5653C40.0008 50.6222 39.8718 50.7099 39.7664 50.8224C39.7547 50.8352 39.7483 50.8522 39.7365 50.8672C39.6585 50.9539 39.5954 51.0531 39.5499 51.1605C39.529 51.2275 39.515 51.2965 39.5083 51.3664C39.4885 51.4267 39.4745 51.4889 39.4667 51.552V51.5712V58.6666C39.4667 59.8448 40.4218 60.8 41.6 60.8H51.4965C52.0149 61.6977 53.1035 62.0929 54.0771 61.7367C55.0506 61.3805 55.6271 60.3761 55.4437 59.3558C55.2603 58.3355 54.37 57.5948 53.3333 57.6V57.6Z" fill="white"/>
<path d="M4.26668 23.4667C5.02543 23.4644 5.72544 23.0579 6.10349 22.4H13.536H13.5648C13.6701 22.394 13.7739 22.3728 13.8731 22.3371C13.92 22.3221 13.9656 22.3036 14.0096 22.2816C14.0665 22.2517 14.1201 22.2159 14.1696 22.175C14.2596 22.1071 14.3375 22.0245 14.4 21.9307C14.4139 21.9104 14.432 21.8955 14.4448 21.8742C15.8126 19.5007 17.648 17.4297 19.84 15.7867C20.1449 15.5581 20.3046 15.1841 20.259 14.8058C20.2134 14.4274 19.9695 14.1021 19.619 13.9525C19.2686 13.8028 18.8649 13.8514 18.56 14.08C16.3153 15.771 14.4093 17.8698 12.9419 20.2667H6.10349C5.58515 19.369 4.49649 18.9738 3.52296 19.33C2.54944 19.6861 1.97288 20.6906 2.15631 21.7109C2.33974 22.7312 3.23006 23.4719 4.26668 23.4667V23.4667Z" fill="white"/>
<path d="M59.7333 40.5333C58.9746 40.5355 58.2746 40.9421 57.8965 41.5999H52.2432C53.0186 39.9692 53.5917 38.2498 53.9499 36.4799C54.0677 35.9023 53.695 35.3385 53.1173 35.2207C52.5397 35.1029 51.976 35.4756 51.8581 36.0533C51.4254 38.1916 50.6472 40.2452 49.5541 42.1333V42.1471C49.4904 42.2599 49.4484 42.3836 49.4304 42.5119C49.4304 42.5237 49.4304 42.5343 49.4229 42.5461C49.4123 42.5858 49.4037 42.626 49.3973 42.6666C49.4038 42.7504 49.4203 42.8331 49.4464 42.913C49.4464 42.9269 49.4464 42.9407 49.4549 42.9546C49.4881 43.0696 49.5411 43.1779 49.6117 43.2746C49.6224 43.2906 49.6309 43.3066 49.6427 43.3215C49.7149 43.4105 49.8014 43.4869 49.8987 43.5477C49.9157 43.5594 49.9264 43.5775 49.9445 43.5882C49.9627 43.5989 49.9701 43.5978 49.9819 43.6042C50.0292 43.6284 50.0785 43.6487 50.1291 43.665C50.2282 43.7007 50.3321 43.7216 50.4373 43.7269C50.4469 43.7269 50.4544 43.7322 50.464 43.7322H57.8965C58.4145 44.6304 59.5032 45.0262 60.4771 44.6702C61.4509 44.3142 62.0278 43.3096 61.8443 42.2891C61.6609 41.2686 60.7702 40.5278 59.7333 40.5333V40.5333Z" fill="white"/>
<path d="M39.4667 12.4287V12.4479C39.4731 12.5108 39.4856 12.573 39.504 12.6335C39.5108 12.7034 39.5247 12.7724 39.5456 12.8394C39.5912 12.9468 39.6543 13.0459 39.7323 13.1327C39.744 13.1466 39.7504 13.1647 39.7621 13.1775C39.8676 13.2899 39.9965 13.3777 40.1397 13.4346C42.5111 14.4736 44.661 15.9582 46.4725 17.8079C46.7354 18.0939 47.133 18.2143 47.5104 18.1224C47.8878 18.0304 48.1854 17.7405 48.2872 17.3656C48.389 16.9908 48.279 16.5902 48 16.3199C46.1518 14.4406 43.9849 12.9039 41.6 11.7813V5.33325H51.4965C51.9793 6.16945 52.9636 6.57713 53.8962 6.32723C54.8289 6.07732 55.4774 5.23214 55.4774 4.26658C55.4774 3.30102 54.8289 2.45585 53.8962 2.20594C52.9636 1.95604 51.9793 2.36372 51.4965 3.19992H41.6C40.4218 3.19992 39.4667 4.15504 39.4667 5.33325V12.4277V12.4287Z" fill="white"/>
<path d="M24.5333 51.5702V51.552C24.5265 51.4922 24.5147 51.4329 24.4981 51.375C24.4906 51.3026 24.4759 51.2312 24.4544 51.1616C24.4095 51.0559 24.3475 50.9582 24.2709 50.8726C24.257 50.8566 24.2506 50.8374 24.2368 50.8224C24.131 50.71 24.0017 50.6222 23.8581 50.5654C21.066 49.3331 18.5854 47.491 16.5984 45.1744C16.354 44.8736 15.9656 44.729 15.584 44.7967C15.2023 44.8645 14.8875 45.1339 14.7616 45.5005C14.6357 45.8671 14.7186 46.2732 14.9781 46.5611C17.0294 48.9488 19.5575 50.881 22.4 52.2336V58.6667H12.5034C12.0207 57.8305 11.0364 57.4228 10.1038 57.6727C9.17111 57.9226 8.52258 58.7678 8.52258 59.7334C8.52258 60.6989 9.17111 61.5441 10.1038 61.794C11.0364 62.0439 12.0207 61.6362 12.5034 60.8H22.4C23.5782 60.8 24.5333 59.8449 24.5333 58.6667V51.5702Z" fill="white"/>
<path d="M36.0533 51.8613C33.3778 52.3986 30.6222 52.3986 27.9467 51.8613C27.5693 51.7747 27.1746 51.8994 26.9155 52.1872C26.6564 52.4749 26.5736 52.8805 26.6991 53.2468C26.8247 53.6131 27.1389 53.8826 27.52 53.9509C28.646 54.1697 29.7871 54.302 30.9333 54.3466V62.9333C30.9333 63.5224 31.4109 63.9999 32 63.9999C32.5891 63.9999 33.0667 63.5224 33.0667 62.9333V54.3466C34.2129 54.302 35.354 54.1697 36.48 53.9509C37.0444 53.8214 37.4024 53.2652 37.2866 52.6978C37.1707 52.1304 36.6233 51.7591 36.0533 51.8613V51.8613Z" fill="white"/>
<path d="M32 11.7333C33.3613 11.7331 34.7191 11.8688 36.0533 12.1387C36.1235 12.1531 36.195 12.1603 36.2667 12.16C36.8127 12.1579 37.269 11.7438 37.3239 11.2006C37.3788 10.6574 37.0146 10.1604 36.48 10.0491C35.354 9.83021 34.2129 9.69791 33.0667 9.65334V1.06667C33.0667 0.477563 32.5891 0 32 0C31.4109 0 30.9333 0.477563 30.9333 1.06667V10.6667C30.9333 11.2558 31.4109 11.7333 32 11.7333V11.7333Z" fill="white"/>
<path d="M13.536 43.7333C13.5445 43.7333 13.552 43.728 13.5616 43.728C13.6677 43.7232 13.7724 43.702 13.872 43.665C13.9218 43.6487 13.9702 43.6287 14.0171 43.6053C14.0288 43.5989 14.0427 43.5968 14.0544 43.5893C14.0661 43.5818 14.0843 43.5594 14.1013 43.5477C14.1981 43.488 14.2839 43.4123 14.3552 43.3237C14.3678 43.3072 14.3795 43.2901 14.3904 43.2725C14.4595 43.1754 14.5114 43.0671 14.544 42.9525C14.544 42.9365 14.5504 42.9205 14.5536 42.9045C14.5794 42.8275 14.5959 42.7476 14.6027 42.6666C14.5972 42.6263 14.589 42.5864 14.5781 42.5472C14.5781 42.5333 14.5781 42.5205 14.5707 42.5056C14.5526 42.3804 14.5117 42.2597 14.4501 42.1493L14.4448 42.1322C13.3511 40.2442 12.5721 38.1907 12.1387 36.0522C12.0208 35.4749 11.4573 35.1024 10.88 35.2202C10.3027 35.3381 9.93018 35.9016 10.048 36.4789C10.4069 38.2485 10.98 39.9679 11.7547 41.5989H6.10134C5.61856 40.7627 4.63433 40.355 3.70167 40.6049C2.76901 40.8548 2.12048 41.7 2.12048 42.6656C2.12048 43.6311 2.76901 44.4763 3.70167 44.7262C4.63433 44.9761 5.61856 44.5684 6.10134 43.7322L13.536 43.7333Z" fill="white"/>
<path d="M62.9333 30.9332H54.3648C54.225 27.9757 53.4999 25.0753 52.2315 22.3999H57.8944C58.3772 23.2361 59.3614 23.6438 60.2941 23.3939C61.2267 23.144 61.8753 22.2988 61.8753 21.3332C61.8753 20.3677 61.2267 19.5225 60.2941 19.2726C59.3614 19.0227 58.3772 19.4304 57.8944 20.2666H50.464C50.4437 20.2666 50.4277 20.2772 50.4085 20.2772C50.3467 20.2839 50.2856 20.2964 50.2261 20.3146C50.1385 20.3319 50.0535 20.3606 49.9733 20.3999C49.9648 20.3999 49.9541 20.3999 49.9445 20.4106C49.9349 20.4212 49.9168 20.4394 49.8987 20.4511C49.8014 20.5118 49.7149 20.5882 49.6427 20.6772C49.6309 20.6922 49.6224 20.7082 49.6117 20.7242C49.5411 20.8208 49.4881 20.9291 49.4549 21.0442C49.4549 21.058 49.4549 21.0719 49.4464 21.0858C49.4202 21.166 49.4037 21.2491 49.3973 21.3332C49.403 21.3742 49.4108 21.4147 49.4208 21.4548C49.4208 21.4666 49.4261 21.4772 49.4283 21.489C49.4463 21.6172 49.4883 21.741 49.552 21.8538V21.8676C51.331 24.9481 52.2673 28.4427 52.2667 31.9999C52.2667 32.589 52.7442 33.0666 53.3333 33.0666H62.9333C63.5224 33.0666 64 32.589 64 31.9999C64 31.4108 63.5224 30.9332 62.9333 30.9332V30.9332Z" fill="white"/>
<path d="M11.7333 32C11.7311 29.8448 12.0728 27.703 12.7456 25.6555C12.8647 25.2934 12.7816 24.8954 12.5276 24.6112C12.2736 24.3271 11.8873 24.2 11.5143 24.2779C11.1412 24.3558 10.838 24.6268 10.7189 24.9888C10.0923 26.9124 9.72988 28.9122 9.6416 30.9333H1.06667C0.477563 30.9333 0 31.4109 0 32C0 32.5891 0.477563 33.0667 1.06667 33.0667H10.6667C11.2558 33.0667 11.7333 32.5891 11.7333 32Z" fill="white"/>
</svg>
