<svg width="32" height="32" viewBox="0 0 32 32" fill="none" xmlns="http://www.w3.org/2000/svg">
<path d="M30.6667 17.3058H1.33333C0.597331 17.3058 0 16.7085 0 15.9725C0 15.2365 0.597331 14.6392 1.33333 14.6392H30.6667C31.4027 14.6392 32 15.2365 32 15.9725C32 16.7085 31.4027 17.3058 30.6667 17.3058Z" fill="white"/>
<path d="M30.6667 7.08317H1.33333C0.597331 7.08317 0 6.48584 0 5.74984C0 5.01383 0.597331 4.4165 1.33333 4.4165H30.6667C31.4027 4.4165 32 5.01383 32 5.74984C32 6.48584 31.4027 7.08317 30.6667 7.08317Z" fill="white"/>
<path d="M30.6667 27.5275H1.33333C0.597331 27.5275 0 26.9302 0 26.1942C0 25.4582 0.597331 24.8608 1.33333 24.8608H30.6667C31.4027 24.8608 32 25.4582 32 26.1942C32 26.9302 31.4027 27.5275 30.6667 27.5275Z" fill="white"/>
</svg>
