<svg width="1440" height="258" viewBox="0 0 1440 258" fill="none" xmlns="http://www.w3.org/2000/svg">
<path opacity="0.2" d="M39.364 33.7606H38.6519V34.4727V56.8816V57.1789L38.8634 57.3879L72.323 90.4677L73.5357 91.6667V89.9614V34.4727V33.7606H72.8237H39.364Z" stroke="#42FFFF" stroke-width="1.42416"/>
<path opacity="0.2" d="M586.025 113.229L585.356 113.473L585.112 112.803L577.443 91.746L577.341 91.4666L577.468 91.198L597.588 48.6775L598.317 47.1362L598.901 48.7387L617.893 100.881L618.136 101.55L617.467 101.794L586.025 113.229Z" stroke="#42FFFF" stroke-width="1.42416"/>
<path opacity="0.2" d="M121.589 67.891C127.728 67.891 132.706 62.9176 132.706 56.7815C132.706 50.6454 127.728 45.6721 121.589 45.6721C115.45 45.6721 110.472 50.6454 110.472 56.7815C110.472 62.9176 115.45 67.891 121.589 67.891Z" stroke="#42FFFF" stroke-width="1.58849"/>
<rect opacity="0.2" x="-0.756431" width="18.169" height="18.169" transform="matrix(0.707362 -0.706852 0.707362 0.706852 16.1561 126.378)" stroke="#42FFFF" stroke-width="1.06937"/>
<rect opacity="0.2" x="523.685" y="57.4375" width="18.1751" height="18.1628" stroke="#42FFFF" stroke-width="1.06937"/>
<path opacity="0.2" d="M249.377 76.4448V74.7622L248.169 75.9337L211.862 111.148L210.6 112.371H212.357H248.665H249.377V111.659V76.4448Z" stroke="#42FFFF" stroke-width="1.42416"/>
<path opacity="0.2" d="M125.149 98.3984H167.151" stroke="#42FFFF" stroke-width="1.42416"/>
<path opacity="0.2" d="M480.81 80.7539L509.287 94.2704" stroke="#42FFFF" stroke-width="1.42416"/>
<path opacity="0.2" d="M185.305 62.2173L202.647 45.8552" stroke="#42FFFF" stroke-width="1.42416"/>
<path opacity="0.2" d="M367.526 16.7205L367.252 16.0633L366.595 16.3369L345.893 24.9524L345.619 25.0666L345.507 25.3418L327.812 68.9255L327.17 70.5066L328.746 69.8508L380.007 48.517L380.664 48.2434L380.39 47.5861L367.526 16.7205Z" stroke="#3F79A9" stroke-width="1.42416"/>
<path opacity="0.2" d="M-65.9329 62.04L-66.4152 61.5161L-65.891 61.0342L-49.3868 45.863L-49.168 45.6619L-48.8711 45.6759L-1.85512 47.8878L-0.15013 47.968L-1.4063 49.1227L-42.2737 86.6895L-42.7979 87.1714L-43.2802 86.6475L-65.9329 62.04Z" stroke="#3F79A9" stroke-width="1.42416"/>
<path opacity="0.2" d="M367.61 105.693C369.971 111.357 376.479 114.036 382.147 111.677C387.814 109.319 390.496 102.815 388.135 97.1508C385.774 91.4865 379.266 88.8077 373.598 91.1664C367.931 93.5251 365.249 100.029 367.61 105.693Z" stroke="#3F79A9" stroke-width="1.58849"/>
<path opacity="0.2" d="M542.433 79.7417C544.794 85.406 551.302 88.0848 556.97 85.7261C562.637 83.3674 565.319 76.8639 562.958 71.1996C560.597 65.5353 554.089 62.8565 548.421 65.2152C542.754 67.5739 540.072 74.0775 542.433 79.7417Z" stroke="#3F79A9" stroke-width="1.58849"/>
<rect opacity="0.2" x="-0.290647" y="-0.69786" width="18.1733" height="18.1646" transform="matrix(0.924715 0.38066 -0.38113 0.924522 270.308 61.7425)" stroke="#3F79A9" stroke-width="1.06937"/>
<path opacity="0.2" d="M452.592 107.559L454.147 106.912L452.599 106.248L406.109 86.2942L404.496 85.6017L405.171 87.222L419.13 120.714L419.404 121.372L420.062 121.098L452.592 107.559Z" stroke="#3F79A9" stroke-width="1.42416"/>
<path opacity="0.2" d="M521.348 105.588L522.956 106.091L522.197 104.588L499.419 59.4408L498.628 57.874L498.104 59.5489L487.253 94.1719L487.04 94.8514L487.719 95.064L521.348 105.588Z" stroke="#3F79A9" stroke-width="1.42416"/>
<path opacity="0.2" d="M402.829 11.9961L418.978 50.7422" stroke="#3F79A9" stroke-width="1.42416"/>
<path opacity="0.2" d="M491.581 1L503.702 30.0814" stroke="#3F79A9" stroke-width="1.42416"/>
<path opacity="0.2" d="M441.102 42.9844L462.885 52.691" stroke="#3F79A9" stroke-width="1.42416"/>
<rect opacity="0.2" x="0.296126" y="-0.695556" width="18.1645" height="18.1734" transform="matrix(0.373845 0.927491 -0.927678 0.373381 442.054 63.6562)" stroke="#47A93F" stroke-width="1.06937"/>
<rect opacity="0.2" x="0.701583" y="-0.282584" width="18.1647" height="18.1732" transform="matrix(-0.391956 0.919984 -0.920188 -0.391478 36.1418 88.4599)" stroke="#47A93F" stroke-width="1.06937"/>
<path opacity="0.2" d="M73.6523 73.1924L50.0524 94.0795" stroke="#47A93F" stroke-width="1.42416"/>
<path opacity="0.2" d="M314.851 69.9746L323.123 92.329" stroke="#47A93F" stroke-width="1.42416"/>
<path opacity="0.2" d="M962.141 33.7606H961.429V34.4727V56.8816V57.1789L961.64 57.3879L995.1 90.4677L996.312 91.6667V89.9614V34.4727V33.7606H995.6H962.141Z" stroke="#42FFFF" stroke-width="1.42416"/>
<path opacity="0.2" d="M1044.37 67.891C1050.51 67.891 1055.48 62.9176 1055.48 56.7815C1055.48 50.6454 1050.51 45.6721 1044.37 45.6721C1038.23 45.6721 1033.25 50.6454 1033.25 56.7815C1033.25 62.9176 1038.23 67.891 1044.37 67.891Z" stroke="#42FFFF" stroke-width="1.58849"/>
<path opacity="0.2" d="M791.65 113.71C797.789 113.71 802.767 108.737 802.767 102.601C802.767 96.4647 797.789 91.4914 791.65 91.4914C785.511 91.4914 780.533 96.4647 780.533 102.601C780.533 108.737 785.511 113.71 791.65 113.71Z" stroke="#42FFFF" stroke-width="1.58849"/>
<rect opacity="0.2" x="-0.756431" width="18.169" height="18.169" transform="matrix(0.707362 -0.706852 0.707362 0.706852 938.933 126.378)" stroke="#42FFFF" stroke-width="1.06937"/>
<path opacity="0.2" d="M1172.15 76.4448V74.7622L1170.95 75.9337L1134.64 111.148L1133.38 112.371H1135.13H1171.44H1172.15V111.659V76.4448Z" stroke="#42FFFF" stroke-width="1.42416"/>
<path opacity="0.2" d="M728.84 88.7551L729.922 87.466L728.243 87.5876L677.778 91.2421L676.026 91.369L677.372 92.4974L705.185 115.818L705.731 116.276L706.188 115.731L728.84 88.7551Z" stroke="#42FFFF" stroke-width="1.42416"/>
<path opacity="0.2" d="M1047.93 98.3984H1089.93" stroke="#42FFFF" stroke-width="1.42416"/>
<path opacity="0.2" d="M1403.59 80.7539L1432.06 94.2704" stroke="#42FFFF" stroke-width="1.42416"/>
<path opacity="0.2" d="M620.777 76.0024H652.302" stroke="#42FFFF" stroke-width="1.42416"/>
<path opacity="0.2" d="M1108.08 62.2173L1125.42 45.8552" stroke="#42FFFF" stroke-width="1.42416"/>
<path opacity="0.2" d="M1290.3 16.7205L1290.03 16.0633L1289.37 16.3369L1268.67 24.9524L1268.4 25.0666L1268.28 25.3418L1250.59 68.9255L1249.95 70.5066L1251.52 69.8508L1302.78 48.517L1303.44 48.2434L1303.17 47.5861L1290.3 16.7205Z" stroke="#3F79A9" stroke-width="1.42416"/>
<path opacity="0.2" d="M856.844 62.04L856.361 61.5161L856.886 61.0342L873.39 45.863L873.609 45.6619L873.906 45.6759L920.921 47.8878L922.626 47.968L921.37 49.1227L880.503 86.6895L879.979 87.1714L879.496 86.6475L856.844 62.04Z" stroke="#3F79A9" stroke-width="1.42416"/>
<path opacity="0.2" d="M1290.39 105.693C1292.75 111.357 1299.26 114.036 1304.92 111.677C1310.59 109.319 1313.27 102.815 1310.91 97.1508C1308.55 91.4865 1302.04 88.8077 1296.37 91.1664C1290.71 93.5251 1288.03 100.029 1290.39 105.693Z" stroke="#3F79A9" stroke-width="1.58849"/>
<rect opacity="0.2" x="-0.290647" y="-0.69786" width="18.1733" height="18.1646" transform="matrix(0.924715 0.38066 -0.38113 0.924522 1193.08 61.7425)" stroke="#3F79A9" stroke-width="1.06937"/>
<rect opacity="0.2" x="0.287943" y="-0.698978" width="18.1646" height="18.1733" transform="matrix(0.384707 0.923039 -0.923236 0.384234 684.088 62.2809)" stroke="#3F79A9" stroke-width="1.06937"/>
<path opacity="0.2" d="M1375.37 107.559L1376.92 106.912L1375.38 106.248L1328.89 86.2942L1327.27 85.6017L1327.95 87.222L1341.91 120.714L1342.18 121.372L1342.84 121.098L1375.37 107.559Z" stroke="#3F79A9" stroke-width="1.42416"/>
<path opacity="0.2" d="M1444.12 105.588L1445.73 106.091L1444.97 104.588L1422.2 59.4408L1421.4 57.874L1420.88 59.5489L1410.03 94.1719L1409.82 94.8514L1410.5 95.064L1444.12 105.588Z" stroke="#3F79A9" stroke-width="1.42416"/>
<path opacity="0.2" d="M1325.61 11.9961L1341.75 50.7422" stroke="#3F79A9" stroke-width="1.42416"/>
<path opacity="0.2" d="M1414.36 1L1426.48 30.0814" stroke="#3F79A9" stroke-width="1.42416"/>
<path opacity="0.2" d="M1363.88 42.9844L1385.66 52.691" stroke="#3F79A9" stroke-width="1.42416"/>
<path opacity="0.2" d="M698.706 51.1646C696.301 56.8101 698.931 63.3346 704.58 65.7377C710.229 68.1409 716.758 65.5133 719.163 59.8677C721.569 54.2222 718.938 47.6977 713.29 45.2946C707.641 42.8914 701.111 45.519 698.706 51.1646Z" stroke="#47A93F" stroke-width="1.58849"/>
<path opacity="0.2" d="M858.296 71.9185C855.891 77.564 858.521 84.0885 864.17 86.4916C869.819 88.8948 876.348 86.2672 878.754 80.6216C881.159 74.9761 878.529 68.4517 872.88 66.0485C867.231 63.6453 860.702 66.2729 858.296 71.9185Z" stroke="#47A93F" stroke-width="1.58849"/>
<rect opacity="0.2" x="0.296126" y="-0.695556" width="18.1645" height="18.1734" transform="matrix(0.373845 0.927491 -0.927678 0.373381 1364.83 63.6562)" stroke="#47A93F" stroke-width="1.06937"/>
<rect opacity="0.2" x="0.701583" y="-0.282584" width="18.1647" height="18.1732" transform="matrix(-0.391956 0.919984 -0.920188 -0.391478 958.918 88.4599)" stroke="#47A93F" stroke-width="1.06937"/>
<path opacity="0.2" d="M790.887 80.819L792.437 81.4783L791.831 79.9075L773.63 32.7319L772.998 31.0946L772.31 32.7096L758.088 66.0912L757.809 66.7464L758.464 67.0251L790.887 80.819Z" stroke="#47A93F" stroke-width="1.42416"/>
<path opacity="0.2" d="M825.061 74.9065L825.823 76.4066L826.369 74.8151L842.772 26.9855L843.342 25.3244L841.776 26.1197L809.408 42.5564L808.773 42.8788L809.096 43.5135L825.061 74.9065Z" stroke="#3F79A9" stroke-width="1.42416"/>
<path opacity="0.2" d="M669.222 42.4873L652.769 81.1053" stroke="#47A93F" stroke-width="1.42416"/>
<path opacity="0.2" d="M996.429 73.1924L972.829 94.0795" stroke="#47A93F" stroke-width="1.42416"/>
<path opacity="0.2" d="M1237.63 69.9746L1245.9 92.329" stroke="#47A93F" stroke-width="1.42416"/>
<path opacity="0.2" d="M1399.64 150.761H1400.35V151.473V173.882V174.179L1400.14 174.388L1366.68 207.468L1365.46 208.667V206.961V151.473V150.761H1366.18H1399.64Z" stroke="#42FFFF" stroke-width="1.42416"/>
<path opacity="0.2" d="M852.975 230.229L853.644 230.473L853.888 229.803L861.557 208.746L861.659 208.467L861.532 208.198L841.412 165.677L840.683 164.136L840.099 165.739L821.107 217.881L820.864 218.55L821.533 218.794L852.975 230.229Z" stroke="#42FFFF" stroke-width="1.42416"/>
<path opacity="0.2" d="M1317.41 184.891C1311.27 184.891 1306.29 179.918 1306.29 173.782C1306.29 167.645 1311.27 162.672 1317.41 162.672C1323.55 162.672 1328.53 167.645 1328.53 173.782C1328.53 179.918 1323.55 184.891 1317.41 184.891Z" stroke="#42FFFF" stroke-width="1.58849"/>
<rect opacity="0.2" x="0.756431" width="18.169" height="18.169" transform="matrix(-0.707362 -0.706852 -0.707362 0.706852 1423.91 244.448)" stroke="#42FFFF" stroke-width="1.06937"/>
<rect opacity="0.2" x="0.534684" y="-0.534684" width="18.1751" height="18.1628" transform="matrix(-1 0 0 1 915.849 174.972)" stroke="#42FFFF" stroke-width="1.06937"/>
<path opacity="0.2" d="M1189.62 193.445V191.762L1190.83 192.934L1227.14 228.148L1228.4 229.371H1226.64H1190.34H1189.62V228.659V193.445Z" stroke="#42FFFF" stroke-width="1.42416"/>
<path opacity="0.2" d="M1313.85 215.398H1271.85" stroke="#42FFFF" stroke-width="1.42416"/>
<path opacity="0.2" d="M958.19 197.754L929.713 211.27" stroke="#42FFFF" stroke-width="1.42416"/>
<path opacity="0.2" d="M1253.69 179.217L1236.35 162.855" stroke="#42FFFF" stroke-width="1.42416"/>
<path opacity="0.2" d="M1071.47 133.721L1071.75 133.063L1072.41 133.337L1093.11 141.952L1093.38 142.067L1093.49 142.342L1111.19 185.926L1111.83 187.507L1110.25 186.851L1058.99 165.517L1058.34 165.243L1058.61 164.586L1071.47 133.721Z" stroke="#3F79A9" stroke-width="1.42416"/>
<path opacity="0.2" d="M1504.93 179.04L1505.42 178.516L1504.89 178.034L1488.39 162.863L1488.17 162.662L1487.87 162.676L1440.86 164.888L1439.15 164.968L1440.41 166.123L1481.27 203.689L1481.8 204.171L1482.28 203.647L1504.93 179.04Z" stroke="#3F79A9" stroke-width="1.42416"/>
<path opacity="0.2" d="M1071.39 222.693C1069.03 228.357 1062.52 231.036 1056.85 228.677C1051.19 226.319 1048.5 219.815 1050.86 214.151C1053.23 208.486 1059.73 205.808 1065.4 208.166C1071.07 210.525 1073.75 217.029 1071.39 222.693Z" stroke="#3F79A9" stroke-width="1.58849"/>
<path opacity="0.2" d="M896.567 196.742C894.206 202.406 887.698 205.085 882.03 202.726C876.363 200.367 873.681 193.864 876.042 188.2C878.403 182.535 884.911 179.857 890.579 182.215C896.246 184.574 898.928 191.077 896.567 196.742Z" stroke="#3F79A9" stroke-width="1.58849"/>
<rect opacity="0.2" x="0.290647" y="-0.69786" width="18.1733" height="18.1646" transform="matrix(-0.924715 0.38066 0.38113 0.924522 1169.23 178.521)" stroke="#3F79A9" stroke-width="1.06937"/>
<path opacity="0.2" d="M986.408 224.559L984.853 223.912L986.401 223.248L1032.89 203.294L1034.5 202.602L1033.83 204.222L1019.87 237.714L1019.6 238.372L1018.94 238.098L986.408 224.559Z" stroke="#3F79A9" stroke-width="1.42416"/>
<path opacity="0.2" d="M917.652 222.588L916.044 223.091L916.803 221.588L939.581 176.441L940.372 174.874L940.896 176.549L951.747 211.172L951.96 211.851L951.281 212.064L917.652 222.588Z" stroke="#3F79A9" stroke-width="1.42416"/>
<path opacity="0.2" d="M1036.17 128.996L1020.02 167.742" stroke="#3F79A9" stroke-width="1.42416"/>
<path opacity="0.2" d="M947.419 118L935.298 147.081" stroke="#3F79A9" stroke-width="1.42416"/>
<path opacity="0.2" d="M997.898 159.984L976.115 169.691" stroke="#3F79A9" stroke-width="1.42416"/>
<rect opacity="0.2" x="-0.296126" y="-0.695556" width="18.1645" height="18.1734" transform="matrix(-0.373845 0.927491 0.927678 0.373381 996.724 181.206)" stroke="#47A93F" stroke-width="1.06937"/>
<rect opacity="0.2" x="-0.701583" y="-0.282584" width="18.1647" height="18.1732" transform="matrix(0.391956 0.919984 0.920188 -0.391478 1403.41 206.751)" stroke="#47A93F" stroke-width="1.06937"/>
<path opacity="0.2" d="M1365.35 190.192L1388.95 211.079" stroke="#47A93F" stroke-width="1.42416"/>
<path opacity="0.2" d="M1124.15 186.975L1115.88 209.329" stroke="#47A93F" stroke-width="1.42416"/>
<path opacity="0.2" d="M476.859 150.761H477.571V151.473V173.882V174.179L477.36 174.388L443.9 207.468L442.688 208.667V206.961V151.473V150.761H443.4H476.859Z" stroke="#42FFFF" stroke-width="1.42416"/>
<path opacity="0.2" d="M394.634 184.891C388.495 184.891 383.517 179.918 383.517 173.782C383.517 167.645 388.495 162.672 394.634 162.672C400.773 162.672 405.751 167.645 405.751 173.782C405.751 179.918 400.773 184.891 394.634 184.891Z" stroke="#42FFFF" stroke-width="1.58849"/>
<path opacity="0.2" d="M647.35 230.71C641.211 230.71 636.233 225.737 636.233 219.601C636.233 213.465 641.211 208.491 647.35 208.491C653.489 208.491 658.467 213.465 658.467 219.601C658.467 225.737 653.489 230.71 647.35 230.71Z" stroke="#42FFFF" stroke-width="1.58849"/>
<rect opacity="0.2" x="0.756431" width="18.169" height="18.169" transform="matrix(-0.707362 -0.706852 -0.707362 0.706852 501.137 244.448)" stroke="#42FFFF" stroke-width="1.06937"/>
<path opacity="0.2" d="M266.847 193.445V191.762L268.054 192.934L304.362 228.148L305.623 229.371H303.866H267.559H266.847V228.659V193.445Z" stroke="#42FFFF" stroke-width="1.42416"/>
<path opacity="0.2" d="M710.16 205.755L709.078 204.466L710.757 204.588L761.222 208.242L762.974 208.369L761.628 209.497L733.815 232.818L733.269 233.276L732.812 232.731L710.16 205.755Z" stroke="#42FFFF" stroke-width="1.42416"/>
<path opacity="0.2" d="M391.075 215.398H349.072" stroke="#42FFFF" stroke-width="1.42416"/>
<path opacity="0.2" d="M35.413 197.754L6.93668 211.27" stroke="#42FFFF" stroke-width="1.42416"/>
<path opacity="0.2" d="M818.223 193.002H786.698" stroke="#42FFFF" stroke-width="1.42416"/>
<path opacity="0.2" d="M330.918 179.217L313.577 162.855" stroke="#42FFFF" stroke-width="1.42416"/>
<path opacity="0.2" d="M148.697 133.721L148.971 133.063L149.629 133.337L170.33 141.952L170.604 142.067L170.716 142.342L188.411 185.926L189.053 187.507L187.477 186.851L136.217 165.517L135.559 165.243L135.833 164.586L148.697 133.721Z" stroke="#3F79A9" stroke-width="1.42416"/>
<path opacity="0.2" d="M582.156 179.04L582.639 178.516L582.114 178.034L565.61 162.863L565.391 162.662L565.094 162.676L518.079 164.888L516.374 164.968L517.63 166.123L558.497 203.689L559.021 204.171L559.504 203.647L582.156 179.04Z" stroke="#3F79A9" stroke-width="1.42416"/>
<path opacity="0.2" d="M148.613 222.693C146.252 228.357 139.744 231.036 134.076 228.677C128.409 226.319 125.727 219.815 128.088 214.151C130.449 208.486 136.958 205.808 142.625 208.166C148.293 210.525 150.974 217.029 148.613 222.693Z" stroke="#3F79A9" stroke-width="1.58849"/>
<rect opacity="0.2" x="0.290647" y="-0.69786" width="18.1733" height="18.1646" transform="matrix(-0.924715 0.38066 0.38113 0.924522 246.453 178.521)" stroke="#3F79A9" stroke-width="1.06937"/>
<rect opacity="0.2" x="-0.287943" y="-0.698978" width="18.1646" height="18.1733" transform="matrix(-0.384707 0.923039 0.923236 0.384234 754.691 179.812)" stroke="#3F79A9" stroke-width="1.06937"/>
<path opacity="0.2" d="M63.631 224.559L62.0762 223.912L63.6241 223.248L110.114 203.294L111.728 202.602L111.052 204.222L97.0932 237.714L96.8192 238.372L96.1618 238.098L63.631 224.559Z" stroke="#3F79A9" stroke-width="1.42416"/>
<path opacity="0.2" d="M-5.12476 222.588L-6.73206 223.091L-5.97358 221.588L16.8045 176.441L17.595 174.874L18.12 176.549L28.9707 211.172L29.1837 211.851L28.5041 212.064L-5.12476 222.588Z" stroke="#3F79A9" stroke-width="1.42416"/>
<path opacity="0.2" d="M113.394 128.996L97.2454 167.742" stroke="#3F79A9" stroke-width="1.42416"/>
<path opacity="0.2" d="M24.6421 118L12.5214 147.081" stroke="#3F79A9" stroke-width="1.42416"/>
<path opacity="0.2" d="M75.1212 159.984L53.3385 169.691" stroke="#3F79A9" stroke-width="1.42416"/>
<path opacity="0.2" d="M740.294 168.165C742.699 173.81 740.069 180.335 734.42 182.738C728.771 185.141 722.242 182.513 719.837 176.868C717.431 171.222 720.062 164.698 725.71 162.295C731.359 159.891 737.889 162.519 740.294 168.165Z" stroke="#47A93F" stroke-width="1.58849"/>
<path opacity="0.2" d="M580.704 188.918C583.109 194.564 580.479 201.088 574.83 203.492C569.181 205.895 562.652 203.267 560.246 197.622C557.841 191.976 560.471 185.452 566.12 183.048C571.769 180.645 578.298 183.273 580.704 188.918Z" stroke="#47A93F" stroke-width="1.58849"/>
<rect opacity="0.2" x="-0.296126" y="-0.695556" width="18.1645" height="18.1734" transform="matrix(-0.373845 0.927491 0.927678 0.373381 73.9475 181.206)" stroke="#47A93F" stroke-width="1.06937"/>
<rect opacity="0.2" x="-0.701583" y="-0.282584" width="18.1647" height="18.1732" transform="matrix(0.391956 0.919984 0.920188 -0.391478 480.632 206.751)" stroke="#47A93F" stroke-width="1.06937"/>
<path opacity="0.2" d="M648.113 197.819L646.563 198.478L647.169 196.908L665.37 149.732L666.002 148.095L666.69 149.71L680.912 183.091L681.191 183.746L680.536 184.025L648.113 197.819Z" stroke="#47A93F" stroke-width="1.42416"/>
<path opacity="0.2" d="M613.939 191.906L613.177 193.407L612.631 191.815L596.228 143.986L595.658 142.324L597.224 143.12L629.592 159.556L630.227 159.879L629.904 160.514L613.939 191.906Z" stroke="#3F79A9" stroke-width="1.42416"/>
<path opacity="0.2" d="M769.778 159.487L786.231 198.105" stroke="#47A93F" stroke-width="1.42416"/>
<path opacity="0.2" d="M442.571 190.192L466.171 211.079" stroke="#47A93F" stroke-width="1.42416"/>
<path opacity="0.2" d="M201.373 186.975L193.1 209.329" stroke="#47A93F" stroke-width="1.42416"/>
</svg>
