<svg width="24" height="25" viewBox="0 0 24 25" fill="none" xmlns="http://www.w3.org/2000/svg">
<path d="M12 1.25C9.81196 1.25 7.71354 2.11919 6.16637 3.66637C4.61919 5.21354 3.75 7.31196 3.75 9.5C3.75 13.8575 11.1 23.075 11.415 23.4725C11.4853 23.5601 11.5743 23.6308 11.6756 23.6794C11.7768 23.7279 11.8877 23.7532 12 23.7532C12.1123 23.7532 12.2232 23.7279 12.3244 23.6794C12.4257 23.6308 12.5147 23.5601 12.585 23.4725C12.9 23.075 20.25 13.8575 20.25 9.5C20.25 7.31196 19.3808 5.21354 17.8336 3.66637C16.2865 2.11919 14.188 1.25 12 1.25ZM12 11.75C11.4067 11.75 10.8266 11.5741 10.3333 11.2444C9.83994 10.9148 9.45542 10.4462 9.22836 9.89805C9.0013 9.34987 8.94189 8.74667 9.05764 8.16473C9.1734 7.58279 9.45912 7.04824 9.87868 6.62868C10.2982 6.20912 10.8328 5.9234 11.4147 5.80764C11.9967 5.69189 12.5999 5.7513 13.1481 5.97836C13.6962 6.20542 14.1648 6.58994 14.4944 7.08329C14.8241 7.57664 15 8.15666 15 8.75C15 9.54565 14.6839 10.3087 14.1213 10.8713C13.5587 11.4339 12.7956 11.75 12 11.75Z" fill="white"/>
</svg>
