<svg width="24" height="24" viewBox="0 0 24 24" fill="none" xmlns="http://www.w3.org/2000/svg">
<path d="M21.6 0H2.4C1.08 0 0 1.08 0 2.4V21.6C0 22.92 1.08 24 2.4 24H21.6C22.92 24 24 22.92 24 21.6V2.4C24 1.08 22.92 0 21.6 0ZM18.84 8.76C18.72 14.28 15.24 18.12 9.96 18.36C7.8 18.48 6.24 17.76 4.8 16.92C6.36 17.16 8.4 16.56 9.48 15.6C7.92 15.48 6.96 14.64 6.48 13.32C6.96 13.44 7.44 13.32 7.8 13.32C6.36 12.84 5.4 12 5.28 10.08C5.64 10.32 6.12 10.44 6.6 10.44C5.52 9.84 4.8 7.56 5.64 6.12C7.2 7.8 9.12 9.24 12.24 9.48C11.4 6.12 15.96 4.32 17.76 6.6C18.6 6.48 19.2 6.12 19.8 5.88C19.56 6.72 19.08 7.2 18.48 7.68C19.08 7.56 19.68 7.44 20.16 7.2C20.04 7.8 19.44 8.28 18.84 8.76Z" fill="white"/>
</svg>
