<svg width="784" height="740" viewBox="0 0 784 740" fill="none" xmlns="http://www.w3.org/2000/svg">
<path opacity="0.2" d="M652.564 742.141V741.683L652.239 741.361L600.684 690.354L598.816 688.506V691.134V776.693V777.79H599.912H651.467H652.564V776.693V742.141Z" stroke="#42FFFF" stroke-width="2.19382"/>
<path opacity="0.2" d="M378.687 35.0933L378.844 35.5235L378.648 35.9373L347.648 101.5L346.524 103.876L345.625 101.407L316.362 21.0075L315.987 19.9767L317.018 19.6015L365.464 1.96875L366.494 1.59359L366.87 2.62435L378.687 35.0933Z" stroke="#42FFFF" stroke-width="2.19382"/>
<circle opacity="0.2" cx="519.602" cy="698.454" r="17.1287" transform="rotate(-180 519.602 698.454)" stroke="#42FFFF" stroke-width="2.44696"/>
<circle opacity="0.2" cx="124.713" cy="138.875" r="17.1287" transform="rotate(-180 124.713 138.875)" stroke="#42FFFF" stroke-width="2.44696"/>
<rect opacity="0.2" x="682.877" y="590.317" width="28.004" height="28.004" transform="rotate(135 682.877 590.317)" stroke="#42FFFF" stroke-width="1.64729"/>
<rect opacity="0.2" x="534.162" y="77.7494" width="28.004" height="28.004" transform="rotate(-180 534.162 77.7494)" stroke="#42FFFF" stroke-width="1.64729"/>
<path opacity="0.2" d="M380.509 614.625L382.45 612.741H379.745H323.802H322.705V613.838V668.135V670.729L324.566 668.922L380.509 614.625Z" stroke="#42FFFF" stroke-width="2.19382"/>
<path opacity="0.2" d="M179.09 72.5987L181.788 72.4031L179.716 70.6643L136.862 34.7052L136.021 34.0001L135.316 34.8404L100.415 76.4344L98.7477 78.421L101.334 78.2335L179.09 72.5987Z" stroke="#42FFFF" stroke-width="2.19382"/>
<path opacity="0.2" d="M514.117 634.285H449.399" stroke="#42FFFF" stroke-width="2.19382"/>
<path opacity="0.2" d="M600.224 41.7988L556.348 20.9575" stroke="#42FFFF" stroke-width="2.19382"/>
<path opacity="0.2" d="M266.918 96.0952H218.344" stroke="#42FFFF" stroke-width="2.19382"/>
<path opacity="0.2" d="M421.428 690.073L394.707 715.302" stroke="#42FFFF" stroke-width="2.19382"/>
<path opacity="0.2" d="M173.992 747.531L174.415 747.355L174.587 746.931L201.851 679.728L202.839 677.293L200.413 678.303L121.43 711.198L120.418 711.62L120.839 712.633L140.661 760.225L141.082 761.238L142.095 760.816L173.992 747.531Z" stroke="#3F79A9" stroke-width="2.19382"/>
<path opacity="0.2" d="M682.914 244.497L682.577 244.807L682.12 244.785L609.677 241.375L607.052 241.251L608.986 239.472L671.955 181.547L672.762 180.804L673.505 181.612L708.408 219.554L709.151 220.362L708.344 221.104L682.914 244.497Z" stroke="#3F79A9" stroke-width="2.19382"/>
<circle opacity="0.2" cx="124.718" cy="629.623" r="17.1287" transform="rotate(-112.611 124.718 629.623)" stroke="#3F79A9" stroke-width="2.44696"/>
<circle opacity="0.2" cx="489.463" cy="49.9449" r="17.1287" transform="rotate(-112.611 489.463 49.9449)" stroke="#3F79A9" stroke-width="2.44696"/>
<rect opacity="0.2" x="290.458" y="691.969" width="28.004" height="28.004" transform="rotate(-157.611 290.458 691.969)" stroke="#3F79A9" stroke-width="1.64729"/>
<rect opacity="0.2" x="703.312" y="404.422" width="28.004" height="28.004" transform="rotate(-112.611 703.312 404.422)" stroke="#3F79A9" stroke-width="1.64729"/>
<path opacity="0.2" d="M148.627 468.992L151.112 470.06L150.072 467.562L128.564 415.92L128.142 414.907L127.13 415.329L77.0061 436.205L74.6121 437.202L76.9949 438.225L148.627 468.992Z" stroke="#3F79A9" stroke-width="2.19382"/>
<path opacity="0.2" d="M571.552 74.66L572.77 77.0755L573.579 74.494L590.298 21.1082L590.625 20.0615L589.579 19.7336L537.763 3.50643L535.288 2.73141L536.456 5.04703L571.552 74.66Z" stroke="#3F79A9" stroke-width="2.19382"/>
<path opacity="0.2" d="M181.846 599.889L156.964 540.145" stroke="#3F79A9" stroke-width="2.19382"/>
<path opacity="0.2" d="M761.898 451.583L764.268 403.067" stroke="#3F79A9" stroke-width="2.19382"/>
<path opacity="0.2" d="M583.628 164.772L564.952 119.931" stroke="#3F79A9" stroke-width="2.19382"/>
<path opacity="0.2" d="M94.7095 535.773L61.1465 520.806" stroke="#3F79A9" stroke-width="2.19382"/>
<path opacity="0.2" d="M686.412 471.944L685.955 471.919L685.651 471.577L637.471 417.372L635.725 415.408L638.349 415.548L723.786 420.117L724.881 420.176L724.823 421.271L722.069 472.752L722.011 473.848L720.916 473.789L686.412 471.944Z" stroke="#47A93F" stroke-width="2.19382"/>
<circle opacity="0.2" cx="20.8645" cy="341.748" r="17.1287" transform="rotate(-66.9386 20.8645 341.748)" stroke="#47A93F" stroke-width="2.44696"/>
<circle opacity="0.2" cx="690.41" cy="197.612" r="17.1287" transform="rotate(-66.9386 690.41 197.612)" stroke="#47A93F" stroke-width="2.44696"/>
<rect opacity="0.2" x="92.0779" y="503.876" width="28.004" height="28.004" transform="rotate(-111.939 92.0779 503.876)" stroke="#47A93F" stroke-width="1.64729"/>
<rect opacity="0.2" x="588.616" y="600.667" width="28.004" height="28.004" transform="rotate(-66.9386 588.616 600.667)" stroke="#47A93F" stroke-width="1.64729"/>
<path opacity="0.2" d="M152.48 246.608L153.453 249.132L154.513 246.643L176.426 195.171L176.856 194.161L175.847 193.732L125.889 172.463L123.503 171.447L124.436 173.867L152.48 246.608Z" stroke="#47A93F" stroke-width="2.19382"/>
<path opacity="0.2" d="M730.091 273.605L729.214 276.164L731.625 274.939L781.498 249.595L782.475 249.098L781.979 248.12L757.38 199.714L756.205 197.402L755.364 199.856L730.091 273.605Z" stroke="#47A93F" stroke-width="2.19382"/>
<path opacity="0.2" d="M82.0542 361.837L107.405 302.291" stroke="#47A93F" stroke-width="2.19382"/>
<path opacity="0.2" d="M593.463 673.15L629.826 640.944" stroke="#47A93F" stroke-width="2.19382"/>
<path opacity="0.2" d="M674.066 345.211L693.094 300.518" stroke="#47A93F" stroke-width="2.19382"/>
<path opacity="0.2" d="M67.0327 254.702L54.2867 220.234" stroke="#47A93F" stroke-width="2.19382"/>
</svg>
